<svg width="24" height="24" viewBox="0 0 24 24" fill="none" xmlns="http://www.w3.org/2000/svg">
<path fill-rule="evenodd" clip-rule="evenodd" d="M0 12C0 5.3772 5.376 0 12 0C18.636 0 24 5.3772 24 12C24 18.6252 18.636 24 12 24C5.376 24 0 18.6252 0 12ZM10.9441 7.45202C10.9441 6.87722 11.4241 6.39602 12.0001 6.39602C12.5761 6.39602 13.0441 6.87722 13.0441 7.45202V12.756C13.0441 13.3332 12.5761 13.8 12.0001 13.8C11.4241 13.8 10.9441 13.3332 10.9441 12.756V7.45202ZM12.0118 17.6172C11.4238 17.6172 10.9558 17.1372 10.9558 16.5612C10.9558 15.9852 11.4238 15.5172 11.9998 15.5172C12.5878 15.5172 13.0558 15.9852 13.0558 16.5612C13.0558 17.1372 12.5878 17.6172 12.0118 17.6172Z" fill="#393939"/>
</svg>
