<?xml version="1.0" encoding="utf-8"?>
<!-- Generator: Adobe Illustrator 25.0.0, SVG Export Plug-In . SVG Version: 6.00 Build 0)  -->
<svg version="1.1" id="Layer_1" xmlns="http://www.w3.org/2000/svg" xmlns:xlink="http://www.w3.org/1999/xlink" x="0px" y="0px"
	 viewBox="0 0 1080 1080" style="enable-background:new 0 0 1080 1080;" xml:space="preserve">
<style type="text/css">
	.st0{fill:#FFFFFF;}
</style>
<g>
	<path class="st0" d="M417.42,828.12h-0.03c-50.32,0-91.74,41.42-91.74,91.74c0,50.32,41.42,91.74,91.74,91.74
		c50.32,0,91.74-41.42,91.74-91.74c0-0.13,0-0.29,0-0.42c0-50.09-41.22-91.31-91.32-91.31c-0.13,0-0.29,0-0.42,0H417.42z"/>
	<path class="st0" d="M784.29,1011.6c50.67,0,91.74-41.07,91.74-91.74c0-50.67-41.07-91.74-91.74-91.74
		c-50.67,0-91.74,41.07-91.74,91.74C692.55,970.53,733.63,1011.6,784.29,1011.6z"/>
	<path class="st0" d="M962.52,197.23c-242.81-29.35-488.19-30.62-731.29-3.75l-14.48-67.48C203.96,66.1,151.26,22.46,90.04,21.06
		c-32.16,1.08-58.02,27.79-58.02,59.98c0,32.19,25.86,58.9,58.02,59.98c7.24,0,14.48,3.75,14.48,11.25l14.48,63.73
		c14.48,82.48,57.92,311.13,79.64,374.86c30.1,91.61,113.72,155.8,210,161.21c112.19,3.75,228.07,3.75,340.29,0
		c95.2-8.35,177.32-71.39,209.97-161.21c27.46-99.67,48.01-201.13,61.54-303.63c1.34-5.64,2.02-11.45,2.02-17.25
		C1022.46,234.64,997.19,203.99,962.52,197.23z M509.09,576.14c0,20.12-16.57,36.69-36.69,36.69c-20.12,0-36.69-16.57-36.69-36.69
		V350.35c0-20.12,16.57-36.69,36.69-36.69c20.12,0,36.69,16.57,36.69,36.69V576.14z M729.24,576.14
		c0.23,20.39-16.31,37.34-36.69,37.64c-19.83-1.6-35.58-17.77-36.69-37.64V350.35c-0.23-20.38,16.31-37.34,36.69-37.64
		c19.89,1.63,35.58,17.68,36.69,37.64V576.14z"/>
</g>
</svg>
