<svg width="7" height="7" viewBox="0 0 7 7" fill="none" xmlns="http://www.w3.org/2000/svg">
<path d="M6.90481 2.38984L6.36342 1.84851C6.23491 1.72001 6.0271 1.72001 5.89995 1.84851L2.62562 5.12244L1.10261 3.59825C0.974097 3.46976 0.76629 3.46976 0.639145 3.59825L0.0963844 4.14095C-0.0321281 4.26944 -0.0321281 4.47722 0.0963844 4.60572L2.3932 6.90363C2.52172 7.03212 2.72952 7.03212 2.85667 6.90363L6.90344 2.85461C7.03196 2.72475 7.03196 2.51697 6.90481 2.38984ZM2.47113 3.83884C2.55589 3.92496 2.69534 3.92496 2.78011 3.83884L5.62379 0.992775C5.70855 0.906654 5.70855 0.768589 5.62379 0.683835L5.00583 0.0645901C4.92107 -0.0215301 4.78162 -0.0215301 4.69686 0.0645901L2.62562 2.13558L1.86822 1.3769C1.78345 1.29078 1.644 1.29078 1.55924 1.3769L0.939918 1.99614C0.855155 2.08226 0.855155 2.22033 0.939918 2.30508L2.47113 3.83884Z" fill="#234FEA"/>
</svg>
