<?xml version="1.0" encoding="utf-8"?>
<!-- Generator: Adobe Illustrator 25.0.0, SVG Export Plug-In . SVG Version: 6.00 Build 0)  -->
<svg version="1.1" id="Layer_1" xmlns="http://www.w3.org/2000/svg" xmlns:xlink="http://www.w3.org/1999/xlink" x="0px" y="0px"
	 viewBox="0 0 1080 1080" style="enable-background:new 0 0 1080 1080;" xml:space="preserve">
<style type="text/css">
	.st0{fill:#393939;}
</style>
<path class="st0" d="M856.78,647.91c-32.61-7.02-58.42,8.12-81.26,21.35c-23.4,13.62-67.88,49.71-93.38,40.48
	c-130.56-53.75-253.35-168.03-306.5-299.11c-9.37-26.04,26.55-70.81,40.08-94.49c13.13-22.91,27.95-48.96,21.19-81.82
	c-6.11-29.53-85.17-130.12-113.12-157.63c-18.44-18.17-37.32-28.16-56.71-29.78c-72.89-3.13-154.3,94.13-168.58,117.4
	c-35.77,49.62-35.57,115.63,0.6,195.69c87.17,215.02,416.87,539.51,632.69,629.96c39.83,18.62,76.25,27.96,108.97,27.96
	c32.01,0,60.52-8.93,85.02-26.65c18.48-10.65,119.73-96.1,117.08-170.95c-1.6-19.08-11.57-38.16-29.51-56.63
	C986.03,735.48,886.08,654.07,856.78,647.91z"/>
</svg>
