<svg width="31" height="19" viewBox="0 0 31 19" fill="none" xmlns="http://www.w3.org/2000/svg">
<path d="M23.2351 18.7559C24.8122 18.7559 26.0907 17.4774 26.0907 15.9003C26.0907 14.3232 24.8122 13.0447 23.2351 13.0447C21.658 13.0447 20.3795 14.3232 20.3795 15.9003C20.3795 17.4774 21.658 18.7559 23.2351 18.7559Z" fill="#393939"/>
<path d="M7.75305 18.7559C9.33015 18.7559 10.6086 17.4774 10.6086 15.9003C10.6086 14.3232 9.33015 13.0447 7.75305 13.0447C6.17595 13.0447 4.89746 14.3232 4.89746 15.9003C4.89746 17.4774 6.17595 18.7559 7.75305 18.7559Z" fill="#393939"/>
<path d="M30.9797 10.5848C30.8622 9.22302 29.8688 8.08745 28.5345 7.79015C27.019 7.49647 25.4889 7.2782 23.9516 7.13752L21.1889 2.78018C20.2259 1.26609 18.6074 0.286429 16.8192 0.134875C14.5423 -0.0449585 12.2552 -0.0449585 9.97824 0.134875C8.07983 0.271926 6.37358 1.35818 5.44613 3.0202L3.12062 7.22019C2.62245 7.29415 2.12863 7.3935 1.64134 7.5175C0.935778 7.71183 0.38975 8.27744 0.221518 8.98952C0.0170294 10.1795 -0.0460574 11.389 0.0329826 12.5935C0.122174 14.0793 0.849487 14.9654 2.84652 15.4295C3.0046 15.4657 3.14745 15.502 3.2845 15.5382C3.47593 13.225 5.43308 11.4224 7.75425 11.4224C10.2146 11.4224 12.2392 13.4469 12.2392 15.9073C12.2392 15.9102 12.2392 15.9124 12.2392 15.9153C12.2392 16.0408 12.2399 16.1909 12.2298 16.3127C13.1957 16.3228 14.2689 16.3018 15.5002 16.3018C16.7003 16.3018 17.7872 16.3192 18.7836 16.3069C18.7785 16.222 18.7763 16.1365 18.7763 16.0509C18.7763 13.5912 20.8009 11.5667 23.2606 11.5667C25.5469 11.5667 27.4852 13.315 27.7209 15.589L28.127 15.5063C29.4837 15.2699 30.8368 14.312 30.9543 13.1061C30.9884 12.5362 31.0232 11.0148 30.9797 10.5848ZM7.38588 4.07019L7.61429 3.62351L7.62299 3.60756C8.0559 2.86937 8.85863 2.42341 9.71429 2.44516L12.237 2.44734V6.52623H6.11834L7.38588 4.07019ZM14.6844 6.52623V2.44734L17.0389 2.44516C17.5683 2.43791 18.0809 2.61919 18.487 2.95856C18.6886 3.13259 18.8648 3.33345 19.0091 3.55752L20.046 5.21083L20.8024 6.52623H14.6844Z" fill="#393939"/>
</svg>
