<svg width="152" height="184" viewBox="0 0 152 184" fill="none" xmlns="http://www.w3.org/2000/svg">
<path d="M41.8099 80.0645H134.848L129.614 175.88L34.1604 174.574L41.8099 80.0645Z" fill="#B9BBC5"/>
<path d="M132.329 181.564L127.54 175.651L134.832 80.0645L138.533 82.4586L144.592 83.7646L132.329 181.564Z" fill="#B9BBC5"/>
<path d="M109.953 95.9829C109.225 95.9829 108.643 95.3639 108.643 94.6357V60.6997C108.643 49.3755 99.5759 40.1269 88.4338 40.1269C77.2918 40.1269 68.2252 49.3391 68.2252 60.6997V94.6357C68.2252 95.3639 67.6426 95.9829 66.9144 95.9829C66.1861 95.9829 65.6035 95.3639 65.6035 94.6357V60.6997C65.6035 47.8826 75.8717 37.4324 88.4703 37.4324C101.069 37.4324 111.337 47.8826 111.337 60.6997V94.6357C111.301 95.4003 110.682 95.9829 109.953 95.9829Z" fill="#8B8FAB"/>
<path d="M138.543 82.5005L134.848 158.016L144.592 83.8037L138.543 82.5005Z" fill="#CACCD3"/>
<path d="M151.9 181.177L53.6484 184L54.6719 84.2331L144.297 84.1245L151.9 181.177Z" fill="#DCDDE2"/>
<path d="M54.2297 184L34.1604 174.634L41.9424 80.0645L49.5382 81.5892L55.2723 83.9126L54.2297 184Z" fill="#A8ABB7"/>
<path d="M49.4796 81.6885L46.3403 168.369L54.2632 184L55.2723 83.8283L49.4796 81.6885Z" fill="#B9BBC5"/>
<path d="M34.1604 174.8L46.5054 168.572L54.4603 184L34.1604 174.8Z" fill="#DCDDE2"/>
<path d="M73.6141 101.481C75.0822 101.481 76.2722 100.291 76.2722 98.8231C76.2722 97.3551 75.0822 96.165 73.6141 96.165C72.1461 96.165 70.9561 97.3551 70.9561 98.8231C70.9561 100.291 72.1461 101.481 73.6141 101.481Z" fill="#4E4E4E"/>
<path d="M73.6143 100.353C74.4589 100.353 75.1436 99.6679 75.1436 98.8232C75.1436 97.9786 74.4589 97.2939 73.6143 97.2939C72.7697 97.2939 72.085 97.9786 72.085 98.8232C72.085 99.6679 72.7697 100.353 73.6143 100.353Z" fill="#E5D0B9"/>
<path d="M116.726 101.481C118.194 101.481 119.384 100.291 119.384 98.8231C119.384 97.3551 118.194 96.165 116.726 96.165C115.258 96.165 114.068 97.3551 114.068 98.8231C114.068 100.291 115.258 101.481 116.726 101.481Z" fill="#4E4E4E"/>
<path d="M116.726 100.353C117.571 100.353 118.255 99.6679 118.255 98.8232C118.255 97.9786 117.571 97.2939 116.726 97.2939C115.881 97.2939 115.197 97.9786 115.197 98.8232C115.197 99.6679 115.881 100.353 116.726 100.353Z" fill="#E5D0B9"/>
<path d="M116.69 99.9153C115.961 99.9153 115.379 99.2963 115.379 98.568V64.632C115.379 53.3079 106.312 44.0592 95.1702 44.0592C84.0281 44.0592 74.9615 53.2715 74.9615 64.632V98.568C74.9615 99.2963 74.3789 99.9153 73.6507 99.9153C72.9224 99.9153 72.3398 99.2963 72.3398 98.568V64.632C72.3398 51.815 82.608 41.3647 95.2066 41.3647C107.805 41.3647 118.073 51.815 118.073 64.632V98.568C118.037 99.3327 117.418 99.9153 116.69 99.9153Z" fill="#A8ABC0"/>
<path d="M113.704 40.9644C113.194 41.5106 112.684 42.1296 112.138 42.7122C112.102 42.7486 112.065 42.785 112.029 42.8215C111.701 43.222 111.337 43.5861 111.01 43.9866C111.01 43.9866 111.01 43.9866 110.973 44.0231C109.116 46.0985 107.441 47.992 107.113 48.3561C107.004 48.5017 106.859 48.611 106.749 48.7566C106.64 48.8659 106.531 48.9751 106.458 49.0843C106.203 49.3756 105.948 49.6305 105.693 49.9218C105.548 50.0675 105.438 50.2131 105.293 50.3587C104.383 51.3783 103.436 52.3978 102.526 53.381C102.271 53.6358 102.052 53.9271 101.834 54.182C101.615 54.4369 101.397 54.7282 101.178 54.9831C101.069 55.1287 100.923 55.2744 100.814 55.3836C100.523 55.6749 100.268 55.9662 99.9403 56.2211C99.2848 56.7309 98.4838 57.0586 97.3914 57.095C93.1676 57.2042 87.8151 58.1873 83.8462 56.5124C80.7875 55.2016 78.3115 52.9076 75.5806 51.087C74.1605 49.6305 71.7938 48.5746 70.1188 47.4458C68.371 46.2806 66.6233 45.1154 64.8755 43.9502C64.6206 43.8046 64.4021 43.6225 64.1108 43.5497C63.8924 43.4769 63.6375 43.4405 63.419 43.4405C54.4252 42.6758 45.4315 41.8747 36.4377 41.0737C34.1073 40.8552 31.7405 40.6732 29.4102 40.4547L26.8613 9.35881L31.1215 10.2691C34.5443 10.9974 37.967 11.7256 41.3897 12.4538C45.5407 13.3277 49.6553 14.2016 53.8062 15.0755L61.8897 16.7869C63.2005 17.0782 64.5114 17.2602 65.7858 17.5879C67.0602 17.9156 68.3346 18.3162 69.6455 18.2798C71.3932 18.2433 72.9954 17.4059 74.5247 16.5684C76.1632 15.6581 77.7653 14.6386 79.4403 13.7283C81.5522 12.5631 83.7733 11.5799 85.9216 10.524C87.1596 9.90499 88.6889 8.77622 90.109 8.73981C91.2378 8.7034 92.403 8.81263 93.5317 8.92187C95.2067 9.10393 96.9181 9.24958 98.593 9.43164C99.4305 9.50446 100.268 9.57728 101.105 9.68652C101.87 9.75934 102.598 9.75934 103.254 10.2327C104.237 10.9245 105.002 12.0897 105.803 13C106.786 14.0924 107.732 15.1847 108.716 16.2771C110.281 18.0249 111.92 19.6998 113.522 21.4476C114.724 22.7584 115.707 25.198 114.068 26.6181C112.029 28.4023 109.007 28.4023 106.713 27.1643C105.402 26.4725 104.2 25.4529 102.89 24.6883C101.542 23.8872 100.086 23.2318 98.7387 22.4307C98.411 22.2487 98.0832 22.0666 97.7191 22.0666C96.8452 22.103 96.6268 23.3046 97.3914 23.6687C102.89 26.3268 106.604 29.0941 107.077 29.4583C107.113 29.4947 107.113 29.4947 107.113 29.4947C109.189 31.1696 111.337 32.8446 113.34 34.6288C115.197 36.2309 115.343 39.071 113.704 40.9644Z" fill="#DCDDE2"/>
<path d="M3.37539 40.7823L25.696 43.1855C27.6622 43.4039 29.4828 42.0567 29.8469 40.0904L35.3087 9.54074C35.6729 7.5745 34.4349 5.68107 32.4686 5.20771L11.7502 0.110028C9.67467 -0.399741 7.56278 0.911092 7.12583 3.02299L0.0983098 36.2672C-0.411459 38.4155 1.11785 40.5274 3.37539 40.7823Z" fill="#DCDDE2"/>
<path d="M34.5077 5.68115L59.5956 13.0728C60.87 13.4005 61.7075 14.6385 61.5254 15.9858L57.6293 45.5159C57.4473 46.9724 56.0636 48.0283 54.6071 47.7735L26.5334 43.2584L34.5077 5.68115Z" fill="#B9BBC5"/>
<path d="M49.6913 25.8533C51.7425 25.8533 53.4053 24.1905 53.4053 22.1393C53.4053 20.0881 51.7425 18.4253 49.6913 18.4253C47.6401 18.4253 45.9773 20.0881 45.9773 22.1393C45.9773 24.1905 47.6401 25.8533 49.6913 25.8533Z" fill="#EEEEEE"/>
<path d="M48.6718 21.5203C49.0338 21.5203 49.3272 21.2269 49.3272 20.8649C49.3272 20.5029 49.0338 20.2095 48.6718 20.2095C48.3098 20.2095 48.0164 20.5029 48.0164 20.8649C48.0164 21.2269 48.3098 21.5203 48.6718 21.5203Z" fill="#C7C7C7"/>
<path d="M50.9293 21.9937C51.2913 21.9937 51.5848 21.7003 51.5848 21.3383C51.5848 20.9763 51.2913 20.6829 50.9293 20.6829C50.5674 20.6829 50.2739 20.9763 50.2739 21.3383C50.2739 21.7003 50.5674 21.9937 50.9293 21.9937Z" fill="#C7C7C7"/>
<path d="M48.1984 23.7779C48.5604 23.7779 48.8538 23.4844 48.8538 23.1225C48.8538 22.7605 48.5604 22.467 48.1984 22.467C47.8364 22.467 47.543 22.7605 47.543 23.1225C47.543 23.4844 47.8364 23.7779 48.1984 23.7779Z" fill="#C7C7C7"/>
<path d="M50.4559 24.2513C50.8179 24.2513 51.1114 23.9578 51.1114 23.5958C51.1114 23.2339 50.8179 22.9404 50.4559 22.9404C50.094 22.9404 49.8005 23.2339 49.8005 23.5958C49.8005 23.9578 50.094 24.2513 50.4559 24.2513Z" fill="#C7C7C7"/>
<path d="M39.2411 27.4189L59.5226 31.2786L59.4134 32.1161L39.0955 28.0744L39.2411 27.4189Z" fill="#EEEEEE"/>
<path d="M112.029 42.8212C111.701 43.2218 111.337 43.5859 111.009 43.9864C111.009 43.9864 111.009 43.9864 110.973 44.0228C105.074 39.8355 99.139 35.1019 98.8113 34.8106C98.4835 34.5193 98.4107 34.0459 98.702 33.7182C98.9569 33.3905 99.4667 33.3177 99.7944 33.609C99.9036 33.6454 106.057 38.561 112.029 42.8212Z" fill="white"/>
<path d="M106.785 48.72C106.676 48.8293 106.567 48.9385 106.494 49.0477C106.239 49.339 105.984 49.5939 105.73 49.8852C99.1753 45.443 91.6381 39.3986 91.2375 39.0709C90.9098 38.7796 90.837 38.3062 91.1283 37.9785C91.3832 37.6508 91.8929 37.578 92.2206 37.8693C92.2935 37.9057 100.195 44.2414 106.785 48.72Z" fill="white"/>
<path d="M101.87 54.182C101.652 54.4368 101.433 54.7281 101.215 54.983C101.105 55.1287 100.96 55.2743 100.85 55.3835C94.0778 50.9049 85.6302 44.1322 85.2297 43.7681C84.902 43.5132 84.8292 43.0035 85.1205 42.6758C85.4118 42.348 85.8851 42.2752 86.2128 42.5665C86.2857 42.6393 95.061 49.7033 101.87 54.182Z" fill="white"/>
</svg>
