<svg width="21" height="21" viewBox="0 0 21 21" fill="none" xmlns="http://www.w3.org/2000/svg">
<path d="M21 4.8938V11.6845C21 14.3895 18.8094 16.5822 16.107 16.5822H13.649L11.4016 20.4797C10.9997 21.1734 10.0003 21.1734 9.59837 20.4797L7.34714 16.5822H4.88917C2.18996 16.5822 0 14.3902 0 11.6845V4.8938C0 2.19112 2.18905 0 4.88917 0H16.107C18.81 0 21 2.19203 21 4.8938ZM12.3899 10.3521C12.3899 9.85778 11.9896 9.45685 11.4956 9.45685H6.13007C5.63625 9.45685 5.2357 9.85755 5.2357 10.3521C5.2357 10.8464 5.63602 11.2473 6.13007 11.2473H11.4958C11.9896 11.2471 12.3899 10.8464 12.3899 10.3521ZM15.445 6.06818C15.445 5.57389 15.0447 5.17297 14.5506 5.17297H6.13007C5.63625 5.17297 5.2357 5.57366 5.2357 6.06818C5.2357 6.56246 5.63602 6.96339 6.13007 6.96339H14.5509C15.0447 6.96316 15.445 6.56246 15.445 6.06818Z" fill="white"/>
</svg>
