<?xml version="1.0" encoding="utf-8"?>
<!-- Generator: Adobe Illustrator 25.0.0, SVG Export Plug-In . SVG Version: 6.00 Build 0)  -->
<svg version="1.1" id="Layer_1" xmlns="http://www.w3.org/2000/svg" xmlns:xlink="http://www.w3.org/1999/xlink" x="0px" y="0px"
	 viewBox="0 0 1080 1080" style="enable-background:new 0 0 1080 1080;" xml:space="preserve">
<style type="text/css">
	.st0{fill:#FFFFFF;}
</style>
<path class="st0" d="M1019.57,298.39v292.66c0,116.58-94.41,211.08-210.87,211.08H702.77l-96.86,167.97
	c-17.32,29.9-60.39,29.9-77.71,0l-97.02-167.97H325.25c-116.33,0-210.71-94.47-210.71-211.08V298.39
	c0-116.48,94.34-210.91,210.71-210.91H808.7C925.19,87.48,1019.57,181.95,1019.57,298.39z M648.51,533.63
	c0-21.3-17.25-38.58-38.54-38.58H378.73c-21.28,0-38.54,17.27-38.54,38.58c0,21.3,17.25,38.58,38.54,38.58h231.25
	C631.25,572.2,648.51,554.93,648.51,533.63z M780.17,349c0-21.3-17.25-38.58-38.55-38.58h-362.9c-21.28,0-38.54,17.27-38.54,38.58
	c0,21.3,17.25,38.58,38.54,38.58h362.91C762.92,387.57,780.17,370.3,780.17,349z"/>
</svg>
