<?xml version="1.0" encoding="utf-8"?>
<!-- Generator: Adobe Illustrator 25.0.0, SVG Export Plug-In . SVG Version: 6.00 Build 0)  -->
<svg version="1.1" id="Layer_1" xmlns="http://www.w3.org/2000/svg" xmlns:xlink="http://www.w3.org/1999/xlink" x="0px" y="0px"
	 viewBox="0 0 1080 1080" style="enable-background:new 0 0 1080 1080;" xml:space="preserve">
<style type="text/css">
	.st0{fill:#FFFFFF;}
</style>
<path class="st0" d="M933.37,288.74c-261.82-16.97-524.92-16.97-786.74,0c-0.86,0.06-1.73,0.08-2.6,0.08
	c-17.59,0-32.07-11.58-32.07-25.65v-14.93c0-54.35,47.55-99.85,121.23-104.58c204.22-12.83,409.39-12.83,613.61,0
	c73.68,4.83,121.23,50.23,121.23,104.58v14.93c0,14.07-14.48,25.65-32.07,25.65C935.1,288.83,934.23,288.8,933.37,288.74z"/>
<path class="st0" d="M823.02,151.12c-188.58-8.23-377.57-8.23-566.15,0v-32.21c0-13.75,22.91-35.01,53.04-36.41
	c153.22-7.15,306.84-7.15,460.06,0c30.2,1.4,53.04,22.66,53.04,36.41V151.12z"/>
<path class="st0" d="M921.11,412.59c6.04-76.9,8.74-130.72,8.74-130.72c-263.21-19.65-523.21-20.16-779.73,0
	c0,0.18,2.74,53.32,8.64,129.38c0.74,9.67,10.88,17.3,22.99,17.3c0.86,0,1.72-0.04,2.58-0.12c234.52-21.16,471.6-20.71,711.23,1.34
	c0.86,0.08,1.72,0.12,2.58,0.12C910.23,429.89,920.37,422.26,921.11,412.59z"/>
<path class="st0" d="M213.01,748.64c-13.35,1.23-23.54,10.38-23.54,21.13c0,0.94,0.08,1.88,0.23,2.81
	c6.99,41.87,22.99,133.81,34.81,170.71c7.89,24.66,36.62,43.48,71.46,47.02c80.85,8.32,162.28,12.51,243.8,12.55
	c81.51-0.04,162.94-4.23,243.78-12.55c34.85-3.59,63.57-22.37,71.46-47.02c13.71-42.59,25.39-102.97,35.23-170.04
	c1.7-11.61-8.82-22.28-23.33-23.66C641.62,728.55,423.87,728.88,213.01,748.64z"/>
<path class="st0" d="M161.7,498.11c4.95,57.97,11.13,120.78,18.62,181.3c0.98,8.1,9.6,14.36,19.78,14.36c0.64,0,1.28-0.02,1.92-0.07
	c219-17.39,444.1-17.52,675.82,1.08c0.67,0.06,1.35,0.08,2.03,0.08c10.18,0,18.81-6.25,19.81-14.35
	c7.47-60.36,13.63-122.94,18.6-180.72c0.73-8.48-7.17-16.01-17.73-16.91c-239.65-20.12-481.24-20.66-721.03-1.61
	C168.95,482.12,161.01,489.62,161.7,498.11z"/>
</svg>
