<?xml version="1.0" encoding="utf-8"?>
<!-- Generator: Adobe Illustrator 25.0.0, SVG Export Plug-In . SVG Version: 6.00 Build 0)  -->
<svg version="1.1" id="Layer_1" xmlns="http://www.w3.org/2000/svg" xmlns:xlink="http://www.w3.org/1999/xlink" x="0px" y="0px"
	 viewBox="0 0 1080 1080" style="enable-background:new 0 0 1080 1080;" xml:space="preserve">
<style type="text/css">
	.st0{fill-rule:evenodd;clip-rule:evenodd;fill:#FFFFFF;}
</style>
<path class="st0" d="M942.83,403.38l34.51,34.49c27.32,26.83,42.17,63.24,42.17,101.57c0.48,38.33-14.38,74.78-41.21,102.04
	c-0.32,0.35-0.64,0.66-0.96,0.97c-0.16,0.16-0.32,0.31-0.48,0.47l-34.03,34.02c-13.42,13.41-21.09,31.62-21.09,50.83v49.3
	c0,79.53-64.7,144.25-144.25,144.25h-49.37c-19.17,0-37.38,7.61-50.8,21.03l-34.51,34.5c-28.28,28.31-65.18,42.16-102.08,42.16
	c-36.9,0-73.81-13.84-102.08-41.63l-34.99-35.02c-13.42-13.42-31.63-21.03-50.8-21.03H303.5c-79.56,0-144.26-64.73-144.26-144.25
	v-49.3c0-19.21-7.67-37.42-21.09-51.31l-34.51-34.02c-56.07-56-56.55-147.56-0.48-204.04l34.99-35.02
	c13.42-13.41,21.09-31.62,21.09-51.26v-48.87c0-79.53,64.7-144.16,144.26-144.16h49.36c19.17,0,37.38-7.71,50.8-21.13l34.51-34.49
	c56.07-56.48,147.61-56.48,204.16-0.43l34.99,34.93c13.42,13.41,31.63,21.13,50.8,21.13h49.37c79.55,0,144.25,64.63,144.25,144.16
	v49.39C921.74,371.76,929.41,389.97,942.83,403.38z M417.08,705.2c11.5,0,22.05-4.31,29.71-12.46l246.33-246.2
	c16.3-16.29,16.3-43.17,0-59.45c-16.29-16.24-42.65-16.24-58.95,0L387.85,633.34c-16.29,16.29-16.29,43.12,0,59.41
	C395.52,700.89,406.06,705.2,417.08,705.2z M621.73,663.04c0,23.47,18.69,42.16,42.18,42.16c23,0,41.69-18.68,41.69-42.16
	c0-22.95-18.69-41.68-41.69-41.68C640.42,621.36,621.73,640.09,621.73,663.04z M417.56,375.11c23,0,41.7,18.68,41.7,41.68
	c0,23.52-18.69,42.16-41.7,42.16s-42.17-18.64-42.17-42.16C375.39,393.8,394.56,375.11,417.56,375.11z"/>
</svg>
