<?xml version="1.0" encoding="utf-8"?>
<!-- Generator: Adobe Illustrator 25.0.0, SVG Export Plug-In . SVG Version: 6.00 Build 0)  -->
<svg version="1.1" id="Layer_1" xmlns="http://www.w3.org/2000/svg" xmlns:xlink="http://www.w3.org/1999/xlink" x="0px" y="0px"
	 viewBox="0 0 1080 1080" style="enable-background:new 0 0 1080 1080;" xml:space="preserve">
<style type="text/css">
	.st0{fill-rule:evenodd;clip-rule:evenodd;fill:#393939;}
</style>
<path class="st0" d="M288.6,0h502.86C976.8,0,1080,96.12,1080,260.82v557.82c0,167.4-103.2,261.36-288.54,261.36H288.6
	C106.2,1080,0,986.04,0,818.64V260.82C0,96.12,106.2,0,288.6,0z M304.8,251.64v-0.54h179.34C510,251.1,531,270,531,293.17
	c0,23.81-21,42.71-46.86,42.71H304.8c-25.86,0-46.8-18.9-46.8-42.12S278.94,251.64,304.8,251.64z M304.8,579.96h470.4
	c25.8,0,46.8-18.9,46.8-42.12c0-23.22-21-42.17-46.8-42.17H304.8c-25.86,0-46.8,18.96-46.8,42.17
	C258,561.06,278.94,579.96,304.8,579.96z M304.8,826.74h470.4c23.94-2.16,42-20.58,42-42.12c0-22.14-18.06-40.5-42-42.66H304.8
	c-18-1.62-35.4,5.94-45,19.98c-9.6,13.5-9.6,31.32,0,45.36C269.4,820.8,286.8,828.9,304.8,826.74z"/>
</svg>
