<svg width="19" height="28" viewBox="0 0 19 28" fill="none" xmlns="http://www.w3.org/2000/svg">
<path d="M7.03019 26.4251C7.03019 26.8619 7.38599 27.2165 7.82438 27.2165H14.5316C14.9705 27.2165 15.3258 26.8619 15.3258 26.4251V24.2583H7.03019V26.4251Z" fill="white"/>
<path d="M17.2736 4.08851C16.7117 4.10776 16.2741 4.58476 16.2741 5.14501V10.9925C16.2741 11.4108 15.9571 11.7729 15.5384 11.8029C15.2963 11.8202 15.0743 11.7289 14.9182 11.5734C14.7747 11.4299 14.6857 11.232 14.6857 11.0136V3.18516C14.6857 2.61114 14.2187 2.1458 13.6422 2.1458C13.3541 2.1458 13.0931 2.2624 12.9046 2.45023C12.7161 2.63805 12.5991 2.89815 12.5991 3.18516V11.0136C12.5991 11.4504 12.2438 11.805 11.8049 11.805C11.5857 11.805 11.3872 11.7163 11.2432 11.5734C11.0997 11.4299 11.0107 11.232 11.0107 11.0136V1.24257C11.0107 0.669072 10.5443 0.203735 9.96822 0.203735C9.68019 0.203735 9.4197 0.319806 9.23068 0.508156C9.04166 0.695979 8.92518 0.956083 8.92518 1.24257V11.0136C8.92518 11.4504 8.56991 11.805 8.13098 11.805C7.91179 11.805 7.71324 11.7163 7.56975 11.5734C7.42574 11.4299 7.33679 11.232 7.33679 11.0136V3.31379C7.33679 2.68442 6.83682 2.15382 6.20528 2.14591C5.88225 2.14185 5.59015 2.27079 5.37937 2.48083C5.17182 2.68764 5.04369 2.97307 5.04369 3.28857V11.7116C5.03575 11.7068 5.02833 11.7026 5.02039 11.6984L7.29073 14.2651H8.42801C10.034 14.2651 11.3426 15.5624 11.3569 17.1631C11.3608 17.598 11.018 17.9707 10.5816 17.9808C10.1341 17.991 9.76866 17.6327 9.76866 17.1896C9.76866 16.4499 9.1672 15.8479 8.42807 15.8479H6.93181C6.70361 15.8479 6.48706 15.7503 6.33616 15.5799L3.97958 12.9153C3.16532 11.9947 1.75546 11.9083 0.834092 12.7225C0.651375 12.884 0.634008 13.1622 0.795177 13.345L7.02976 20.4163V22.6755H15.3254V20.3889L17.2383 17.9298C17.9536 17.0113 18.347 15.8643 18.347 14.7004V5.1209C18.347 4.53849 17.8632 4.0683 17.2736 4.08851Z" fill="white"/>
</svg>
