<svg width="70" height="78" viewBox="0 0 70 78" fill="none" xmlns="http://www.w3.org/2000/svg">
<path d="M15.5556 62.4H54.4444V54.6H15.5556V62.4Z" fill="#1D9440"/>
<path d="M54.4444 46.8H15.5556V39H54.4444V46.8Z" fill="#1D9440"/>
<path d="M15.5556 31.2H31.1111V23.4H15.5556V31.2Z" fill="#1D9440"/>
<path fill-rule="evenodd" clip-rule="evenodd" d="M11.6667 0C5.22334 0 0 5.23827 0 11.7V66.3C0 72.7617 5.22335 78 11.6667 78H58.3333C64.7767 78 70 72.7617 70 66.3V27.3C70 12.2226 57.8122 0 42.7778 0H11.6667ZM11.6667 7.8H38.8889V27.3H62.2222V66.3C62.2222 68.4539 60.4811 70.2 58.3333 70.2H11.6667C9.51889 70.2 7.77778 68.4539 7.77778 66.3V11.7C7.77778 9.54609 9.51889 7.8 11.6667 7.8ZM46.6667 8.19007C52.9329 9.46569 58.1049 13.7633 60.6043 19.5H46.6667V8.19007Z" fill="#1D9440"/>
</svg>
