<svg id="Layer_1" data-name="Layer 1" xmlns="http://www.w3.org/2000/svg" viewBox="0 0 746.05 977.21"><defs><style>.cls-1{fill:#1d9440;stroke-miterlimit:10;stroke-width:50px;fill-rule:evenodd;}.cls-1,.cls-2,.cls-3{stroke:#fff;}.cls-2,.cls-3{fill:none;stroke-linecap:round;stroke-linejoin:round;}.cls-2{stroke-width:82.39px;}.cls-3{stroke-width:89.4px;}</style></defs><path class="cls-1" d="M876.35,555C853,668.51,794.87,783.8,708.92,878.13v.22A669,669,0,0,1,562.46,999.53a20.67,20.67,0,0,1-23.54.76C457.43,948.45,389,886.2,335.19,818.51c-74.25-93.1-120.95-196.34-136.95-295.78C181.93,421.92,197.18,324.88,247.36,246A340.56,340.56,0,0,1,323.19,162C394,105.61,474.78,75.81,555.37,76.41c77.57.59,154.15,29.5,220.33,89.94A324.29,324.29,0,0,1,834.47,238C888.43,326.84,900.05,440.18,876.35,555Z" transform="translate(-166.98 -51.4)"/><path class="cls-2" d="M540,330.89v348" transform="translate(-166.98 -51.4)"/><path class="cls-3" d="M375.43,496.13,540,330.86,704.57,496.13" transform="translate(-166.98 -51.4)"/></svg>