<?xml version="1.0" encoding="utf-8"?>
<!-- Generator: Adobe Illustrator 25.2.0, SVG Export Plug-In . SVG Version: 6.00 Build 0)  -->
<svg version="1.1" id="Layer_1" xmlns="http://www.w3.org/2000/svg" xmlns:xlink="http://www.w3.org/1999/xlink" x="0px" y="0px"
	 viewBox="0 0 739.3 970.5" style="enable-background:new 0 0 739.3 970.5;" xml:space="preserve">
<style type="text/css">
	.st0{fill-rule:evenodd;clip-rule:evenodd;fill:#FF5530;stroke:#FFFFFF;stroke-width:42.1995;stroke-miterlimit:10;}
	.st1{fill-rule:evenodd;clip-rule:evenodd;fill:#FFFFFF;stroke:#FFFFFF;stroke-width:29.6721;stroke-miterlimit:10;}
</style>
<path class="st0" d="M697.5,499.9c-22.8,110.6-79.4,223-163.3,315v0.2c-41.1,45.1-89,85.5-142.8,118.1c-6.7,5-15.9,5.3-22.9,0.7
	C289.2,883.4,222.5,822.7,170,756.7C97.6,666,52.1,565.4,36.5,468.4c-15.9-98.3-1-192.8,47.9-269.7c19.9-31.3,44.9-58.9,73.9-81.9
	c69-55,147.8-84,226.3-83.4c75.6,0.6,150.3,28.8,214.8,87.7c22.3,20.4,41.6,43.9,57.3,69.8C709.3,277.4,720.6,387.9,697.5,499.9z"/>
<path class="st1" d="M489.4,387.9c0.5,65.6-52.2,119.1-117.8,119.6S252.5,455.3,252,389.7c0-0.6,0-1.2,0-1.8
	c0-65.6,53.1-118.7,118.7-118.7C436.2,269.2,489.4,322.4,489.4,387.9z"/>
</svg>
