<?xml version="1.0" encoding="utf-8"?>
<!-- Generator: Adobe Illustrator 25.0.0, SVG Export Plug-In . SVG Version: 6.00 Build 0)  -->
<svg version="1.1" id="Layer_1" xmlns="http://www.w3.org/2000/svg" xmlns:xlink="http://www.w3.org/1999/xlink" x="0px" y="0px"
	 viewBox="0 0 1080 1080" style="enable-background:new 0 0 1080 1080;" xml:space="preserve">
<style type="text/css">
	.st0{fill:currentColor;}
</style>
<path class="st0" d="M502.79,495.65c2.86-96.3-2.87-192.61-17.18-286.08c-2.86-31.16-31.49-50.98-60.12-48.15h-2.87
	c-31.49,8.5-51.53,36.82-45.8,67.98C388.27,291.71,394,354.03,394,416.34c2.86,19.83-14.31,39.65-34.35,39.65
	c-20.04,0-40.08-14.16-40.08-33.99c0-2.83,0-5.66,0-5.66v-226.6c2.86-28.33-17.18-53.82-45.8-62.31
	c-31.49-2.83-60.12,16.99-62.98,48.15c0,2.83,0,5.66,0,11.33v229.43c0,22.66-17.18,39.65-37.22,39.65
	c-22.9,0-37.22-19.83-37.22-39.65c0-62.31,5.73-124.63,17.18-186.94c5.73-31.16-14.31-62.31-45.8-67.98
	c-31.49-5.66-57.26,14.16-62.98,45.32v2.83C30.43,297.38,24.7,388.02,24.7,478.66c0,87.81,45.8,169.95,117.37,218.1
	c31.49,19.83,54.39,56.65,54.39,93.47l5.73,135.96c0,33.99,28.63,62.31,60.12,62.31c34.35,0,60.12-28.32,60.12-62.31l5.73-130.29
	c2.86-39.65,22.9-73.64,57.26-93.47C456.98,657.1,499.92,580.63,502.79,495.65z M826.28,127.43
	c-151.73,0-226.16,223.77-226.16,371.05c0,76.48,40.08,147.29,103.06,189.78c28.63,19.83,48.67,50.98,51.53,84.97l8.59,152.95
	c0,33.99,25.76,62.31,62.98,65.15c37.22,2.83,62.98-25.49,65.84-62.31v-2.83l8.59-152.95c2.86-33.99,20.04-67.98,51.53-84.97
	c62.98-42.49,103.06-113.3,103.06-189.78C1052.43,351.2,975.14,127.43,826.28,127.43z"/>
</svg>
