<?xml version="1.0" encoding="utf-8"?>
<!-- Generator: Adobe Illustrator 25.0.0, SVG Export Plug-In . SVG Version: 6.00 Build 0)  -->
<svg version="1.1" id="Layer_1" xmlns="http://www.w3.org/2000/svg" xmlns:xlink="http://www.w3.org/1999/xlink" x="0px" y="0px"
	 viewBox="0 0 1080 1080" style="enable-background:new 0 0 1080 1080;" xml:space="preserve">
<style type="text/css">
	.st0{fill-rule:evenodd;clip-rule:evenodd;fill:#393939;}
</style>
<path class="st0" d="M536.35,1083.65c298.23,0,540-241.77,540-540c0-298.23-241.77-540-540-540c-298.23,0-540,241.77-540,540
	C-3.65,841.88,238.12,1083.65,536.35,1083.65z M704.68,928.56c139.04-60.89,238.75-194.91,250.51-353.41
	c-49.37,26.93-111.64,49.01-182.61,64.38C763.65,751.71,739.31,851.87,704.68,928.56z M368.02,158.74
	c-116.83,51.17-205.9,153.97-238.35,279.55c13.9,13.19,37.56,29.4,73.58,45.41c26.93,11.97,58.33,22.74,93.42,31.74
	C299.86,376,326.56,250.54,368.02,158.74z M422.39,658.3c9.4,87.4,29.08,162.56,53.92,218.45c17.64,39.7,35.54,64.39,49.36,77.54
	c4.91,4.68,8.47,7.16,10.69,8.45c2.22-1.29,5.78-3.78,10.69-8.45c13.81-13.15,31.72-37.84,49.36-77.54
	c24.84-55.89,44.51-131.05,53.91-218.45c-36.74,3.51-74.87,5.36-113.96,5.36S459.13,661.8,422.39,658.3z M300.12,639.53
	c8.93,112.18,33.27,212.35,67.9,289.03c-139.04-60.89-238.75-194.91-250.51-353.41C166.89,602.08,229.15,624.16,300.12,639.53z
	 M656.33,537.03c-37.84,4.27-78.03,6.62-119.98,6.62s-82.14-2.35-119.98-6.62c0.79-133.53,25.35-248.67,59.93-326.48
	c17.64-39.69,35.54-64.39,49.36-77.54c4.91-4.68,8.47-7.17,10.69-8.45c2.22,1.29,5.78,3.78,10.69,8.45
	c13.81,13.15,31.72,37.84,49.36,77.54C630.98,288.35,655.54,403.49,656.33,537.03z M776.03,515.43
	c-3.19-139.44-29.89-264.89-71.35-356.69c116.83,51.17,205.9,153.97,238.34,279.55c-13.9,13.19-37.56,29.4-73.57,45.41
	C842.52,495.67,811.12,506.43,776.03,515.43z"/>
</svg>
