<svg width="24" height="24" viewBox="0 0 24 24" fill="none" xmlns="http://www.w3.org/2000/svg">
<path fill-rule="evenodd" clip-rule="evenodd" d="M12 24C18.6274 24 24 18.6274 24 12C24 5.37258 18.6274 0 12 0C5.37258 0 0 5.37258 0 12C0 18.6274 5.37258 24 12 24ZM15.7407 20.5535C18.8304 19.2004 21.0463 16.2222 21.3075 12.7C20.2103 13.2985 18.8266 13.7891 17.2495 14.1306C17.051 16.6235 16.5103 18.8494 15.7407 20.5535ZM8.25933 3.44649C5.663 4.58355 3.68367 6.86808 2.96277 9.65868C3.27161 9.9517 3.79751 10.3121 4.59777 10.6677C5.1962 10.9337 5.89404 11.173 6.67382 11.373C6.74471 8.27442 7.33799 5.48652 8.25933 3.44649ZM9.46746 14.5477C9.67641 16.49 10.1136 18.1602 10.6656 19.4022C11.0576 20.2844 11.4554 20.8331 11.7624 21.1253C11.8716 21.2292 11.9506 21.2845 12 21.3131C12.0494 21.2845 12.1284 21.2292 12.2376 21.1253C12.5446 20.8331 12.9424 20.2844 13.3344 19.4022C13.8864 18.1602 14.3236 16.49 14.5325 14.5477C13.7161 14.6256 12.8688 14.6667 12 14.6667C11.1312 14.6667 10.2839 14.6256 9.46746 14.5477ZM6.75048 14.1306C6.94901 16.6235 7.48972 18.8494 8.25933 20.5535C5.1696 19.2004 2.95367 16.2222 2.69252 12.7C3.78974 13.2984 5.17335 13.7891 6.75048 14.1306ZM14.6662 11.8528C13.8254 11.9478 12.9323 12 12 12C11.0677 12 10.1746 11.9478 9.33377 11.8528C9.35129 8.88544 9.89717 6.32672 10.6656 4.59775C11.0576 3.71564 11.4554 3.16688 11.7624 2.87474C11.8716 2.77083 11.9506 2.71546 12 2.68688C12.0494 2.71546 12.1284 2.77083 12.2376 2.87474C12.5446 3.16688 12.9424 3.71564 13.3344 4.59775C14.1028 6.32672 14.6487 8.88544 14.6662 11.8528ZM17.3262 11.373C17.2553 8.27443 16.662 5.48652 15.7407 3.44649C18.337 4.58355 20.3163 6.86809 21.0372 9.65869C20.7284 9.95171 20.2025 10.3121 19.4023 10.6677C18.8038 10.9337 18.106 11.173 17.3262 11.373Z" fill="#393939"/>
</svg>
