<svg width="25" height="31" viewBox="0 0 25 31" fill="none" xmlns="http://www.w3.org/2000/svg">
<path d="M8.05827 24.5012C7.19661 24.0717 6.39394 23.5262 5.67203 22.8781L5.6601 22.8676V19.0351L5.7254 19.1433C6.32442 20.138 7.14394 21.0146 8.09408 21.6789L8.10883 21.6894V24.5265L8.05827 24.5012Z" fill="#06B160"/>
<path d="M5.69519 19.1616V22.8521C6.40867 23.4925 7.20853 24.0387 8.0737 24.4696V21.7077C7.11443 21.0371 6.30123 20.1682 5.69519 19.1616Z" fill="#06B160"/>
<path d="M2.09198 26.7907V15.0473C2.09198 9.04903 6.88903 4.14878 12.7851 4.12347H12.8314C15.8111 4.12347 18.5836 5.322 20.6362 7.49762C22.6868 9.67114 23.7226 12.5125 23.5527 15.5C23.4094 18.0074 22.3736 20.4037 20.6348 22.249C18.8954 24.0949 16.5653 25.2681 14.0737 25.5528C13.6615 25.5999 13.2437 25.6238 12.8314 25.6238C12.0274 25.6238 11.2247 25.5339 10.4452 25.356L10.4178 25.3497V22.8127L10.4628 22.8261C11.2296 23.056 12.0267 23.1727 12.8314 23.1727C13.0477 23.1727 13.2675 23.1642 13.4845 23.1473C17.5154 22.8345 20.7886 19.5574 21.0969 15.5246C21.276 13.1866 20.5 10.9547 18.9129 9.23953C17.3462 7.54683 15.1299 6.57606 12.8322 6.57606C12.8027 6.57606 12.7718 6.57606 12.7423 6.57676C8.22049 6.62526 4.54212 10.4198 4.54212 15.0367V24.3768C4.54212 25.7089 3.45926 26.7928 2.1285 26.7928H2.09198V26.7907Z" fill="#06B160"/>
<path d="M12.7851 4.15861C6.86303 4.18391 2.12708 9.11931 2.12708 15.0473V26.7563C3.44098 26.7563 4.50559 25.6899 4.50559 24.3754V21.6001V15.036C4.50559 10.4416 8.15095 6.5894 12.7408 6.5409C17.5892 6.48958 21.5077 10.6074 21.1313 15.5267C20.8209 19.5862 17.5421 22.8676 13.4866 23.1818C12.4269 23.264 11.4045 23.1452 10.4522 22.8591V25.3208C11.5997 25.583 12.8188 25.6604 14.0695 25.517C19.2043 24.93 23.2233 20.6624 23.5175 15.4972C23.8708 9.29223 18.9143 4.1326 12.7851 4.15861Z" fill="#06B160"/>
<path d="M10.4445 25.3546C9.6222 25.1683 8.81953 24.8808 8.0583 24.5012L8.03864 24.4914V21.6403L8.09411 21.6789C8.82375 22.1893 9.6208 22.5745 10.4628 22.8247L10.4881 22.8325V25.3645L10.4445 25.3546Z" fill="url(#paint0_linear)"/>
<path d="M10.4522 22.8584V25.3202C9.61867 25.1311 8.82162 24.8429 8.07373 24.4696V21.7077C8.79283 22.2103 9.59339 22.6033 10.4522 22.8584Z" fill="url(#paint1_linear)"/>
<path d="M10.4403 21.6402C9.55897 21.3281 8.7549 20.8501 8.04984 20.2189L8.0379 20.2083V14.8723H8.10813C8.10813 16.5509 9.01262 18.1192 10.4691 18.9634L10.4866 18.9733V21.6557L10.4403 21.6402Z" fill="url(#paint2_linear)"/>
<path d="M10.4522 18.9951V21.6079C9.56671 21.2944 8.76053 20.8087 8.07373 20.1936V14.873C8.07373 16.6325 9.03159 18.1705 10.4522 18.9951Z" fill="url(#paint3_linear)"/>
<path d="M5.6601 26.8175V15.0206C5.6601 13.1346 6.36726 11.3385 7.65097 9.96217C8.94451 8.57596 10.6833 7.77249 12.5477 7.70008C12.6432 7.69657 12.7359 7.69446 12.8314 7.69446C14.8062 7.69446 16.7142 8.52464 18.0674 9.97271C19.4389 11.4398 20.1201 13.3539 19.9859 15.3629C19.8687 17.1168 19.1018 18.7673 17.8244 20.0101C16.5477 21.2529 14.8785 21.9756 13.1236 22.0451C13.0267 22.0487 12.9284 22.0508 12.8314 22.0508C12.0077 22.0508 11.2036 21.9123 10.441 21.6402L10.4178 21.6318V18.9332L10.4705 18.9641C11.1854 19.3796 12.0014 19.5996 12.8314 19.5996C13.0386 19.5996 13.2493 19.5862 13.4571 19.5588C15.5709 19.2854 17.2387 17.6166 17.5126 15.5007C17.6882 14.1419 17.2753 12.7768 16.3785 11.7561C15.4803 10.7326 14.1868 10.1456 12.8307 10.1456C12.7029 10.1456 12.573 10.1506 12.4445 10.1611C10.0133 10.3558 8.10883 12.4689 8.10883 14.9721V24.4007C8.10883 25.7328 7.02597 26.8168 5.69521 26.8168H5.6601V26.8175Z" fill="#06B160"/>
<path d="M12.5492 7.73527C8.69525 7.885 5.69525 11.1593 5.69525 15.0206V26.7823C7.00916 26.7823 8.07376 25.716 8.07376 24.4015V20.1936V14.9728C8.07376 12.4759 9.95508 10.3256 12.4417 10.1267C15.4509 9.88559 17.941 12.4675 17.5478 15.5057C17.2739 17.6215 15.5752 19.3206 13.4621 19.594C12.3617 19.7367 11.3217 19.4998 10.453 18.9944V21.6072C11.283 21.9039 12.184 22.0473 13.1229 22.01C16.7332 21.8666 19.7114 18.9691 19.9516 15.3601C20.2346 11.1066 16.7746 7.57148 12.5492 7.73527Z" fill="#06B160"/>
<path d="M12.8308 18.4798C10.8441 18.4798 9.22754 16.8616 9.22754 14.8729C9.22754 12.8843 10.8441 11.2661 12.8308 11.2661C14.8174 11.2661 16.434 12.8843 16.434 14.8729C16.434 16.8616 14.8174 18.4798 12.8308 18.4798ZM12.8308 13.7173C12.1945 13.7173 11.6763 14.2354 11.6763 14.8729C11.6763 15.5105 12.1938 16.0286 12.8308 16.0286C13.467 16.0286 13.9853 15.5105 13.9853 14.8729C13.9853 14.2354 13.4677 13.7173 12.8308 13.7173Z" fill="#06B160"/>
<path d="M12.8308 11.3013C10.8631 11.3013 9.26263 12.9033 9.26263 14.8729C9.26263 16.8426 10.8631 18.4446 12.8308 18.4446C14.7984 18.4446 16.3989 16.8426 16.3989 14.8729C16.3989 12.9033 14.7984 11.3013 12.8308 11.3013ZM12.8308 16.0637C12.1756 16.0637 11.6411 15.5295 11.6411 14.8729C11.6411 14.2171 12.1749 13.6822 12.8308 13.6822C13.4867 13.6822 14.0204 14.2164 14.0204 14.8729C14.0204 15.5288 13.4867 16.0637 12.8308 16.0637Z" fill="#06B160"/>
<defs>
<linearGradient id="paint0_linear" x1="8.03858" y1="23.5024" x2="10.4875" y2="23.5024" gradientUnits="userSpaceOnUse">
<stop stop-color="#4D4D4D"/>
<stop offset="1" stop-color="#06B160"/>
</linearGradient>
<linearGradient id="paint1_linear" x1="8.07366" y1="23.5141" x2="10.4523" y2="23.5141" gradientUnits="userSpaceOnUse">
<stop stop-color="#4D4D4D"/>
<stop offset="1" stop-color="#06B160"/>
</linearGradient>
<linearGradient id="paint2_linear" x1="8.03855" y1="18.265" x2="10.4874" y2="18.265" gradientUnits="userSpaceOnUse">
<stop stop-color="#4D4D4D"/>
<stop offset="1" stop-color="#06B160"/>
</linearGradient>
<linearGradient id="paint3_linear" x1="8.07366" y1="18.2402" x2="10.4523" y2="18.2402" gradientUnits="userSpaceOnUse">
<stop stop-color="#4D4D4D"/>
<stop offset="1" stop-color="#06B160"/>
</linearGradient>
</defs>
</svg>
