<svg width="264" height="327" viewBox="0 0 264 327" fill="none" xmlns="http://www.w3.org/2000/svg">
<path d="M85.096 258.448C75.9969 253.918 67.5207 248.164 59.8973 241.327L59.7712 241.216V200.79L60.4609 201.932C66.7865 212.424 75.4407 221.67 85.4742 228.677L85.6299 228.789V258.715L85.096 258.448Z" fill="#06B160"/>
<path d="M60.1425 202.124V241.053C67.6768 247.808 76.1234 253.569 85.2596 258.115V228.981C75.1297 221.907 66.5422 212.742 60.1425 202.124Z" fill="#06B160"/>
<path d="M22.0919 282.599V158.725C22.0919 95.4527 72.7488 43.763 135.011 43.496H135.501C166.966 43.496 196.243 56.1386 217.919 79.0879C239.573 102.015 250.511 131.986 248.717 163.5C247.204 189.949 236.266 215.227 217.904 234.691C199.536 254.163 174.93 266.538 148.619 269.541C144.266 270.038 139.854 270.29 135.501 270.29C127.01 270.29 118.534 269.341 110.302 267.465L110.013 267.398V240.638L110.487 240.779C118.585 243.203 127.002 244.434 135.501 244.434C137.785 244.434 140.106 244.345 142.397 244.167C184.964 240.868 219.528 206.299 222.784 163.759C224.675 139.097 216.48 115.555 199.721 97.4621C183.176 79.6069 159.772 69.3668 135.508 69.3668C135.197 69.3668 134.87 69.3668 134.559 69.3743C86.809 69.8859 47.9654 109.912 47.9654 158.613V257.136C47.9654 271.187 36.5303 282.621 22.4775 282.621H22.0919V282.599Z" fill="#06B160"/>
<path d="M135.012 43.8666C72.4748 44.1336 22.4631 96.194 22.4631 158.724V282.236C36.338 282.236 47.5802 270.987 47.5802 257.121V227.847V158.606C47.5802 110.142 86.0753 69.5076 134.544 68.996C185.743 68.4547 227.122 111.892 223.148 163.781C219.87 206.603 185.246 241.216 142.42 244.53C131.23 245.398 120.432 244.145 110.377 241.127V267.094C122.494 269.86 135.368 270.676 148.575 269.163C202.799 262.971 245.239 217.955 248.346 163.47C252.076 98.0181 199.736 43.5923 135.012 43.8666Z" fill="#06B160"/>
<path d="M110.294 267.45C101.61 265.485 93.1337 262.453 85.095 258.449L84.8874 258.345V228.27L85.4732 228.678C93.1782 234.061 101.595 238.124 110.486 240.764L110.753 240.846V267.554L110.294 267.45Z" fill="url(#paint0_linear)"/>
<path d="M110.376 241.12V267.087C101.573 265.092 93.1563 262.052 85.2586 258.115V228.981C92.8523 234.283 101.306 238.428 110.376 241.12Z" fill="url(#paint1_linear)"/>
<path d="M110.25 228.27C100.943 224.977 92.4523 219.935 85.0069 213.277L84.8809 213.165V156.878H85.6224C85.6224 174.585 95.1739 191.128 110.554 200.033L110.739 200.137V228.433L110.25 228.27Z" fill="url(#paint2_linear)"/>
<path d="M110.376 200.367V227.929C101.024 224.622 92.5112 219.498 85.2586 213.01V156.886C85.2586 175.446 95.3736 191.67 110.376 200.367Z" fill="url(#paint3_linear)"/>
<path d="M59.7712 282.881V158.443C59.7712 138.549 67.2389 119.603 80.7948 105.085C94.4546 90.4625 112.816 81.9872 132.505 81.2234C133.513 81.1864 134.492 81.1641 135.501 81.1641C156.354 81.1641 176.502 89.9212 190.792 105.196C205.275 120.671 212.469 140.862 211.052 162.054C209.814 180.554 201.716 197.965 188.227 211.074C174.745 224.184 157.118 231.807 138.586 232.541C137.562 232.578 136.524 232.6 135.501 232.6C126.802 232.6 118.311 231.139 110.258 228.27L110.013 228.181V199.715L110.569 200.041C118.118 204.423 126.735 206.744 135.501 206.744C137.688 206.744 139.913 206.603 142.108 206.314C164.429 203.43 182.042 185.826 184.934 163.507C186.788 149.174 182.427 134.774 172.958 124.008C163.473 113.212 149.813 107.02 135.493 107.02C134.144 107.02 132.772 107.072 131.415 107.183C105.741 109.237 85.6299 131.527 85.6299 157.931V257.388C85.6299 271.44 74.1948 282.874 60.142 282.874H59.7712V282.881Z" fill="#06B160"/>
<path d="M132.519 81.5946C91.8212 83.174 60.1412 117.713 60.1412 158.443V282.51C74.0161 282.51 85.2583 271.262 85.2583 257.396V213.01V157.939C85.2583 131.601 105.125 108.919 131.384 106.82C163.161 104.277 189.457 131.512 185.304 163.56C182.412 185.879 164.473 203.801 142.159 206.685C130.539 208.19 119.556 205.691 110.383 200.36V227.922C119.148 231.051 128.663 232.563 138.577 232.17C176.702 230.658 208.152 200.093 210.688 162.025C213.676 117.157 177.139 79.8669 132.519 81.5946Z" fill="#06B160"/>
<path d="M135.493 194.932C114.514 194.932 97.4428 177.862 97.4428 156.886C97.4428 135.909 114.514 118.839 135.493 118.839C156.472 118.839 173.543 135.909 173.543 156.886C173.543 177.862 156.472 194.932 135.493 194.932ZM135.493 144.695C128.774 144.695 123.301 150.16 123.301 156.886C123.301 163.611 128.767 169.076 135.493 169.076C142.212 169.076 147.684 163.611 147.684 156.886C147.684 150.16 142.219 144.695 135.493 144.695Z" fill="#06B160"/>
<path d="M135.493 119.21C114.714 119.21 97.814 136.109 97.814 156.886C97.814 177.662 114.714 194.561 135.493 194.561C156.272 194.561 173.173 177.662 173.173 156.886C173.173 136.109 156.272 119.21 135.493 119.21ZM135.493 169.447C128.574 169.447 122.931 163.811 122.931 156.886C122.931 149.967 128.567 144.325 135.493 144.325C142.42 144.325 148.056 149.96 148.056 156.886C148.056 163.804 142.42 169.447 135.493 169.447Z" fill="#06B160"/>
<defs>
<linearGradient id="paint0_linear" x1="84.8868" y1="247.913" x2="110.747" y2="247.913" gradientUnits="userSpaceOnUse">
<stop stop-color="#4D4D4D"/>
<stop offset="1" stop-color="#06B160"/>
</linearGradient>
<linearGradient id="paint1_linear" x1="85.2579" y1="248.036" x2="110.377" y2="248.036" gradientUnits="userSpaceOnUse">
<stop stop-color="#4D4D4D"/>
<stop offset="1" stop-color="#06B160"/>
</linearGradient>
<linearGradient id="paint2_linear" x1="84.8877" y1="192.666" x2="110.748" y2="192.666" gradientUnits="userSpaceOnUse">
<stop stop-color="#4D4D4D"/>
<stop offset="1" stop-color="#06B160"/>
</linearGradient>
<linearGradient id="paint3_linear" x1="85.2579" y1="192.404" x2="110.377" y2="192.404" gradientUnits="userSpaceOnUse">
<stop stop-color="#4D4D4D"/>
<stop offset="1" stop-color="#06B160"/>
</linearGradient>
</defs>
</svg>
