<?xml version="1.0" encoding="utf-8"?>
<!-- Generator: Adobe Illustrator 25.0.0, SVG Export Plug-In . SVG Version: 6.00 Build 0)  -->
<svg version="1.1" id="Layer_1" xmlns="http://www.w3.org/2000/svg" xmlns:xlink="http://www.w3.org/1999/xlink" x="0px" y="0px"
	 viewBox="0 0 1080 1080" style="enable-background:new 0 0 1080 1080;" xml:space="preserve">
<style type="text/css">
	.st0{fill:#393939;}
</style>
<g>
	<path class="st0" d="M802.58,858.35c53.54,0,96.94-43.4,96.94-96.94c0-53.54-43.4-96.94-96.94-96.94
		c-53.54,0-96.94,43.4-96.94,96.94C705.64,814.95,749.05,858.35,802.58,858.35z"/>
	<path class="st0" d="M277.01,858.35c53.54,0,96.94-43.4,96.94-96.94c0-53.54-43.4-96.94-96.94-96.94s-96.94,43.4-96.94,96.94
		C180.07,814.95,223.48,858.35,277.01,858.35z"/>
	<path class="st0" d="M1065.49,580.97c-3.99-46.23-37.71-84.78-83.01-94.87c-51.45-9.97-103.39-17.38-155.58-22.15l-93.79-147.92
		c-32.69-51.4-87.63-84.66-148.34-89.8c-77.29-6.1-154.93-6.1-232.23,0c-64.45,4.65-122.37,41.53-153.85,97.95l-78.94,142.58
		c-16.91,2.51-33.68,5.88-50.22,10.09c-23.95,6.6-42.49,25.8-48.2,49.97c-6.94,40.4-9.08,81.46-6.4,122.34
		c3.03,50.44,27.72,80.52,95.51,96.27c5.37,1.23,10.22,2.46,14.87,3.69c6.5-78.53,72.94-139.72,151.73-139.72
		c83.52,0,152.25,68.73,152.25,152.25c0,0.1,0,0.17,0,0.27c0,4.26,0.02,9.36-0.32,13.49c32.79,0.34,69.22-0.37,111.02-0.37
		c40.74,0,77.64,0.59,111.46,0.17c-0.17-2.88-0.25-5.78-0.25-8.69c0-83.5,68.73-152.23,152.23-152.23
		c77.61,0,143.41,59.35,151.41,136.55l13.79-2.81c46.06-8.03,91.99-40.54,95.98-81.48C1065.78,647.21,1066.97,595.57,1065.49,580.97
		z M264.55,359.82l7.75-15.16l0.3-0.54c14.7-25.06,41.95-40.2,70.99-39.46l85.64,0.07v138.47H221.52L264.55,359.82z M512.31,443.19
		V304.73l79.93-0.07c17.97-0.25,35.37,5.91,49.16,17.43c6.84,5.91,12.83,12.73,17.72,20.33l35.2,56.13L720,443.19H512.31z"/>
</g>
</svg>
