<?xml version="1.0" encoding="utf-8"?>
<!-- Generator: Adobe Illustrator 25.0.0, SVG Export Plug-In . SVG Version: 6.00 Build 0)  -->
<svg version="1.1" id="Layer_1" xmlns="http://www.w3.org/2000/svg" xmlns:xlink="http://www.w3.org/1999/xlink" x="0px" y="0px"
	 viewBox="0 0 1080 1080" style="enable-background:new 0 0 1080 1080;" xml:space="preserve">
<g>
	<path d="M911.4,205.31C749.77,38.16,471.97,13.14,282.66,147.57c-8.77,6.04-10.98,18.05-4.94,26.82
		c6.04,8.77,18.05,10.99,26.82,4.94c296.19-207.95,716.05,12.78,712.9,375.06c0.01,250.94-204.15,455.09-455.09,455.09
		c-362.26,3.11-583.03-416.7-375.06-712.88c6.04-8.77,3.83-20.78-4.94-26.82c-8.77-6.04-20.78-3.83-26.82,4.94
		c-224.79,325.07,11.39,774.62,406.83,773.33C1000.51,1047.64,1220.96,515.41,911.4,205.31z"/>
	<path d="M896.35,361.55c-17.52-30.34-44.84-52.56-77.72-63.45c-10.89-32.88-33.1-60.2-63.45-77.72
		c-30.35-17.52-65.11-23.1-99.03-16.09c-50.92-47.16-136.69-47.16-187.61,0c-33.93-7.01-68.69-1.43-99.03,16.09
		c-30.34,17.52-52.56,44.84-63.45,77.72c-32.88,10.89-60.2,33.1-77.72,63.45c-17.52,30.35-23.1,65.12-16.09,99.03
		c-47.16,50.93-47.16,136.68,0,187.61c-7.01,33.91-1.43,68.69,16.09,99.03c17.52,30.34,44.84,52.56,77.72,63.45
		c10.89,32.88,33.1,60.2,63.45,77.72c30.35,17.52,65.12,23.1,99.03,16.09c25.87,23.03,58.77,35.58,93.81,35.58
		c35.04,0,67.94-12.55,93.81-35.58c33.92,7.01,68.69,1.43,99.04-16.09c30.34-17.52,52.56-44.85,63.44-77.72
		c32.88-10.89,60.2-33.1,77.72-63.45s23.1-65.12,16.09-99.03c23.02-25.87,35.58-58.77,35.58-93.81
		c-0.01-35.04-12.56-67.94-35.58-93.81C919.45,426.66,913.87,391.89,896.35,361.55z M877.82,628.58
		c-5.17,4.97-7.16,12.39-5.17,19.28c17.05,54.29-18.67,116.13-74.2,128.52c-6.97,1.71-12.4,7.15-14.11,14.11
		c-6.76,27.45-23.96,50.36-48.44,64.49c-24.47,14.13-52.92,17.58-80.08,9.71c-6.89-2-14.31-0.01-19.28,5.17
		c-19.58,20.4-45.93,31.63-74.2,31.63c-28.26,0-54.61-11.24-74.2-31.64c-4.97-5.2-12.48-7.15-19.28-5.17
		c-27.15,7.88-55.59,4.43-80.07-9.7c-24.48-14.13-41.68-37.04-48.44-64.5c-1.71-6.97-7.15-12.4-14.11-14.11
		c-27.46-6.76-50.36-23.96-64.49-48.44c-14.13-24.47-17.57-52.92-9.7-80.08c2-6.89,0.01-14.31-5.17-19.28
		c-41.9-38.49-41.9-109.9,0-148.39c5.17-4.97,7.16-12.39,5.17-19.28c-7.88-27.16-4.43-55.6,9.7-80.07
		c14.13-24.47,37.04-41.68,64.5-48.44c6.96-1.71,12.4-7.15,14.11-14.12c6.76-27.46,23.96-50.36,48.44-64.49
		c24.47-14.13,52.91-17.58,80.08-9.7c6.89,2,14.31,0.01,19.28-5.17c38.48-41.9,109.91-41.9,148.39,0
		c4.97,5.17,12.39,7.16,19.28,5.17c54.29-17.05,116.14,18.66,128.52,74.2c1.71,6.96,7.15,12.4,14.11,14.12
		c27.46,6.76,50.36,23.96,64.49,48.44c14.13,24.48,17.58,52.92,9.7,80.08c-2,6.89-0.01,14.31,5.17,19.28
		c20.4,19.58,31.63,45.93,31.64,74.2C909.45,582.65,898.22,609,877.82,628.58z"/>
	<path d="M702.04,426.2c-72.04-19.3-96.61-37.44-118.29-53.44c-16.5-12.18-32.08-23.68-61.94-33.02
		c-62.71-19.13-122.29,58.63-141.33,116.78c-19.67,57.31-8.36,101.72,29.53,115.88c66.56,24.89,114.81,21.17,146.75,18.71
		c5.79-0.45,12.42-0.96,17.57-1.03c0.27,4.73,0.6,9.47,0.94,14.25c1.96,27.82,3.99,56.59-6.5,95.75
		c-8.65,29.77,10.79,63.46,40.91,70.85c5,1.34,10.01,1.98,14.96,1.98c25.53,0,48.97-17.07,55.89-42.88
		c15.42-57.57,35.82-85.29,53.82-109.74c15.29-20.77,29.72-40.4,38.25-72.18C790.35,481.81,742.03,436.91,702.04,426.2z
		 M735.34,538.11c-6.64,24.76-17.85,40.01-32.05,59.3c-19.03,25.85-42.71,58.03-60.01,122.62c-2.76,10.27-13.35,16.39-23.62,13.64
		c-4.93-1.33-9.08-4.52-11.67-9.01c-2.59-4.49-3.29-9.67-1.97-14.61c12.17-45.4,9.8-78.9,7.72-108.45
		c-1.89-26.71-3.38-47.82,6.25-72.36c3.89-9.92-1-21.1-10.91-24.99c-9.66-3.86-21.11,0.9-24.99,10.91
		c-5.01,12.78-7.77,24.76-9.14,36.35c-6.51,0-13.53,0.54-21.16,1.13c-28.55,2.2-71.69,5.53-130.27-16.38
		c-19.39-7.25-15.65-40.75-6.56-67.24c17.44-50.82,62.01-102.29,93.33-92.49c23.69,7.41,35.55,16.17,50.56,27.25
		c23.22,17.14,52.13,38.47,131.21,59.66C714.89,469.57,746.82,495.24,735.34,538.11z"/>
	<path d="M515.03,684.95c0-10.65-8.64-19.29-19.28-19.29h-0.02c-10.65,0-19.28,8.63-19.28,19.29
		C477.48,710.53,514.02,710.53,515.03,684.95z"/>
	<path d="M349.95,649.47h-0.01c-10.65,0-19.28,8.63-19.28,19.29c1.02,25.57,37.56,25.57,38.58,0
		C369.23,658.1,360.6,649.47,349.95,649.47z"/>
	<path d="M524.64,804.51h-0.02c-10.65,0-19.28,8.63-19.28,19.29c1.02,25.58,37.56,25.58,38.58,0
		C543.92,813.15,535.29,804.51,524.64,804.51z"/>
	<path d="M787.3,657.57h-0.02c-10.65,0-19.28,8.63-19.28,19.28c1.01,25.58,37.56,25.58,38.57,0
		C806.58,666.21,797.95,657.57,787.3,657.57z"/>
	<path d="M705.16,357.13c25.58-1.02,25.57-37.56,0-38.57h-0.02C679.56,319.58,679.59,356.12,705.16,357.13z"/>
	<path d="M561.64,310.85c25.59-1.02,25.57-37.56,0-38.57h-0.01C536.04,273.31,536.08,309.84,561.64,310.85z"/>
	<path d="M343.75,423.47c0-10.65-8.64-19.28-19.28-19.28h-0.01c-10.65,0-19.28,8.63-19.28,19.28
		C306.19,449.05,342.74,449.04,343.75,423.47z"/>
	<path d="M226.9,238.23c4.35,0,8.74-1.47,12.34-4.47c8.18-6.82,9.29-18.98,2.47-27.16c-6.82-8.18-18.98-9.28-27.16-2.47l-0.01,0.01
		c-8.18,6.82-9.28,18.97-2.46,27.16C215.89,235.87,221.37,238.23,226.9,238.23z"/>
</g>
</svg>
