<?xml version="1.0" encoding="utf-8"?>
<!-- Generator: Adobe Illustrator 25.0.0, SVG Export Plug-In . SVG Version: 6.00 Build 0)  -->
<svg version="1.1" id="Layer_1" xmlns="http://www.w3.org/2000/svg" xmlns:xlink="http://www.w3.org/1999/xlink" x="0px" y="0px"
	 viewBox="0 0 1080 1080" style="enable-background:new 0 0 1080 1080;" xml:space="preserve">
<g>
	<path d="M397.8,958.59c-13.18,0-25.33-4.32-34.26-13.26L105.22,687.02c-21.54-21.52-16.28-61.84,11.73-89.84l48.53-48.53l6.35,6.35
		l-48.53,48.53c-12.04,12.04-19.81,26.81-21.89,41.63c-2.02,14.35,1.6,26.96,10.16,35.52l258.31,258.31
		c18.04,18.04,52.64,12.78,77.15-11.73l6.35,6.34C436.99,949.99,416.38,958.59,397.8,958.59z"/>
	<path d="M459.48,267.36l-6.35-6.35L643.81,70.33c13.4-13.4,29.99-22.07,46.71-24.44c17.19-2.38,32.52,2.08,43.12,12.7l-6.34,6.35
		c-8.57-8.56-21.2-12.17-35.52-10.15c-14.8,2.08-29.6,9.86-41.62,21.89L459.48,267.36z"/>
	<path d="M980.24,406.75l-6.35-6.35c24.5-24.5,29.76-59.1,11.73-77.14l6.34-6.35C1013.5,338.46,1008.24,378.75,980.24,406.75z"/>
	<path d="M391.63,987.64c-18.93,0-36.78-6.59-50.28-20.09L83.04,709.23c-30.8-30.8-25.65-84.2,11.72-121.57l45.91-45.91
		c10.52-10.52,27.56-10.52,38.08,0c10.52,10.51,10.52,27.57,0,38.08l-45.91,45.91c-16.34,16.35-19.66,37.45-11.72,45.41
		l258.31,258.31c7.96,7.93,29.03,4.64,45.41-11.72l45.53-45.54c10.5-10.52,27.56-10.52,38.08,0c10.52,10.51,10.52,27.56,0,38.08
		l-45.53,45.54C441.93,976.81,415.88,987.64,391.63,987.64z"/>
	<path d="M447.07,300.38c-6.89,0-13.78-2.63-19.04-7.89c-10.52-10.52-10.52-27.57,0-38.08l193.6-193.6
		c16.82-16.82,37.95-27.76,59.46-30.78c24.03-3.38,46.63,3.57,62.1,19.05l31.4,31.39c10.52,10.51,10.52,27.57,0,38.08
		c-10.52,10.52-27.56,10.52-38.08,0l-31.39-31.39c-7.94-7.94-29.04-4.61-45.41,11.73L466.11,292.5
		C460.85,297.76,453.97,300.38,447.07,300.38z"/>
	<path d="M777.41,630.17c-6.89,0-13.78-2.63-19.04-7.89c-10.52-10.51-10.52-27.57,0-38.08l193.31-193.31
		c16.35-16.35,19.67-37.45,11.73-45.41l-31.33-31.33c-10.52-10.51-10.52-27.57,0-38.08c10.52-10.52,27.56-10.52,38.08,0l31.33,31.33
		c15.48,15.48,22.43,38.11,19.05,62.1c-3.03,21.52-13.96,42.64-30.78,59.46L796.46,622.28C791.19,627.54,784.3,630.17,777.41,630.17
		z"/>
	<path d="M860.7,419.52c-10.14,0-19.85-5.75-24.42-15.55c-6.28-13.47-0.47-29.5,13.01-35.79c13.55-6.32,25.58-14.7,35.79-24.89
		c48.99-49,48.99-128.73,0-177.73c-49.01-48.99-128.72-49-177.74,0c-9.4,9.42-17.27,20.34-23.37,32.49
		c-6.67,13.29-22.87,18.64-36.15,11.98c-13.29-6.67-18.65-22.85-11.98-36.15c8.69-17.3,19.93-32.91,33.42-46.39
		c70-70,183.9-70,253.9,0c70,70,70,183.89,0,253.89c-14.65,14.66-31.84,26.64-51.09,35.63C868.4,418.7,864.52,419.52,860.7,419.52z"
		/>
	<path d="M739.05,345.26c-19.18,0-37.22-7.47-50.77-21.03c-13.57-13.56-21.04-31.61-21.04-50.78c0-19.18,7.47-37.22,21.04-50.77
		c13.56-13.56,31.6-21.04,50.77-21.04c19.19,0,37.22,7.48,50.77,21.04c28.01,28,28.01,73.56,0.01,101.56
		C776.28,337.79,758.24,345.26,739.05,345.26z M739.05,237.54c-9.58,0-18.6,3.73-25.38,10.52c-6.79,6.79-10.52,15.8-10.52,25.39
		c0,9.59,3.74,18.61,10.52,25.4c6.78,6.78,15.8,10.51,25.38,10.51c9.6,0,18.61-3.73,25.4-10.51c14.01-14,13.99-36.79-0.01-50.78
		C757.66,241.28,748.65,237.54,739.05,237.54z"/>
	<path d="M821.54,415.09c-19.18,0-37.22-7.47-50.77-21.03c-13.57-13.56-21.04-31.61-21.04-50.78c0-19.18,7.47-37.22,21.04-50.77
		c13.56-13.56,31.6-21.04,50.78-21.04c19.19,0,37.22,7.48,50.77,21.04c13.57,13.56,21.04,31.59,21.04,50.77
		c0,19.19-7.47,37.22-21.04,50.78C858.76,407.62,840.72,415.09,821.54,415.09z M821.55,307.37c-9.59,0-18.61,3.73-25.39,10.52
		c-6.79,6.79-10.52,15.8-10.52,25.39c0,9.59,3.73,18.61,10.52,25.4c6.78,6.78,15.8,10.51,25.39,10.51c9.6,0,18.61-3.73,25.39-10.51
		c6.78-6.78,10.51-15.8,10.51-25.4c0-9.59-3.73-18.61-10.51-25.39C840.15,311.1,831.14,307.37,821.55,307.37z"/>
	<path d="M777.16,571.79L466.12,260.75l160.34-160.35l109.45,276.84l209.58,26.2L777.16,571.79z M478.81,260.75L777.16,559.1
		l149.02-149.04l-196.66-24.58L623.15,116.41L478.81,260.75z"/>
	<path d="M745.22,395.84c-8.72,0-17.25-4.22-22.44-12C605.66,207.93,616.54,79.46,617.07,74.09c1.44-14.8,14.57-25.56,29.4-24.21
		c14.77,1.43,25.59,14.52,24.22,29.27c-0.14,1.66-8.42,116.63,96.92,274.84c8.24,12.39,4.89,29.1-7.49,37.34
		C755.53,394.38,750.34,395.84,745.22,395.84z"/>
	<path d="M966.44,424.76c-54.15,0-362.24-6.8-513.08-157.66c-7.01-7.01-7.01-18.38,0-25.39L631.09,63.98
		c7.01-7.01,18.38-7.01,25.39,0c7.01,7.01,7.01,18.38,0,25.39L491.84,254.01c157,138.85,478.38,134.98,481.7,134.79
		c0.11,0,0.22,0,0.32,0c9.76,0,17.76,7.83,17.94,17.63c0.19,9.91-7.7,18.1-17.62,18.28C973.17,424.72,970.53,424.76,966.44,424.76z"
		/>
	<path d="M523.26,935.14c-6.89,0-13.78-2.63-19.04-7.89L123.37,546.4c-10.52-10.51-10.52-27.57,0-38.08l279.29-279.3
		c10.52-10.52,27.56-10.52,38.08,0L821.6,609.88c5.06,5.05,7.89,11.89,7.89,19.04s-2.83,13.99-7.89,19.04L542.3,927.25
		C537.04,932.51,530.15,935.14,523.26,935.14z M180.49,527.36l342.77,342.78l241.22-241.21L421.7,286.15L180.49,527.36z"/>
	<path d="M472.43,712.8c-35.97,0-69.78-14.02-95.21-39.45c-25.43-25.43-39.44-59.25-39.44-95.21c0-35.97,14.01-69.78,39.44-95.21
		c25.43-25.43,59.25-39.44,95.21-39.44c35.96,0,69.78,14.01,95.21,39.44c52.5,52.51,52.5,137.93,0,190.42
		C542.21,698.78,508.4,712.8,472.43,712.8z M472.43,479.4c-26.37,0-51.18,10.28-69.82,28.92c-18.65,18.65-28.92,43.46-28.92,69.82
		c0,26.37,10.27,51.18,28.92,69.82c18.64,18.65,43.45,28.92,69.82,28.92s51.17-10.28,69.82-28.92c38.49-38.5,38.49-101.15,0-139.65
		C523.6,489.67,498.8,479.4,472.43,479.4z"/>
</g>
</svg>
