<?xml version="1.0" encoding="utf-8"?>
<!-- Generator: Adobe Illustrator 25.0.0, SVG Export Plug-In . SVG Version: 6.00 Build 0)  -->
<svg version="1.1" id="Layer_1" xmlns="http://www.w3.org/2000/svg" xmlns:xlink="http://www.w3.org/1999/xlink" x="0px" y="0px"
	 viewBox="0 0 1080 1080" style="enable-background:new 0 0 1080 1080;" xml:space="preserve">
<path d="M789.11,0.1c-147.61,0-267.81,92.41-287.67,211.2H332.26V105.65C332.26,47.4,276.36,0,207.66,0H41.53
	C18.6,0,0,15.77,0,35.22s18.59,35.22,41.53,35.22h166.13c22.9,0,41.53,15.8,41.53,35.22v105.65H124.6
	c-11.65,0-22.76,4.15-30.63,11.43c-7.87,7.29-11.76,17.04-10.74,26.88c3.66,35.2,79.61,765.04,83.06,798.26
	c1.89,18.18,19.85,32.12,41.37,32.12h498.39c21.52,0,39.48-13.94,41.37-32.12c2.5-24.1,55.31-531.52,57.78-555.31
	c71.1-3.29,138.48-28.48,189.49-71.73C1177.48,265.84,1046.88,0.1,789.11,0.1z M615.85,149.41l72.99,61.9H585.7
	C590.95,189.16,601.16,168.21,615.85,149.41z M668.02,1009.56H245.69l-7.33-70.44h436.99L668.02,1009.56z M682.67,868.69H231.03
	l-32.05-307.98c41.31,3.09,83.64-3.36,121.82-19.55c40.38-17.12,88.6-17.12,128.98,0c63.64,26.99,139.63,26.98,203.28,0
	c20.31-8.61,42.62-12.94,65.04-12.88L682.67,868.69z M726.48,447.78c-0.6,1.91-1.06,3.89-1.28,5.93c-0.16,1.44-0.17,2.86-0.12,4.27
	c-37.57-1.05-75.15,5.77-109.17,20.2c-40.38,17.12-88.6,17.12-128.98,0c-63.64-26.98-139.63-26.98-203.27,0
	c-28.6,12.13-61.13,15.71-92.16,10.6l-21.54-207.03h573.8L726.48,447.78z M789.11,196.71L674.59,99.6
	c33.64-18.9,73.13-29.07,114.53-29.07c41.39,0,80.88,10.16,114.53,29.07L789.11,196.71z M812.61,421.38l10.05-96.61l80.95,68.64
	C876.33,408.7,845.19,418.28,812.61,421.38z M962.36,343.62l-114.51-97.1l114.52-97.1C1008.11,208.06,1008.11,284.98,962.36,343.62z
	"/>
</svg>
