<?xml version="1.0" encoding="utf-8"?>
<!-- Generator: Adobe Illustrator 25.0.0, SVG Export Plug-In . SVG Version: 6.00 Build 0)  -->
<svg version="1.1" id="Layer_1" xmlns="http://www.w3.org/2000/svg" xmlns:xlink="http://www.w3.org/1999/xlink" x="0px" y="0px"
	 viewBox="0 0 1080 1080" style="enable-background:new 0 0 1080 1080;" xml:space="preserve">
<path d="M1073.53,132.67c-5.43-9.26-13.06-16.42-18.15-26c-12.14-9.26-25.43-17.52-38.61-26c-8.21-0.88-15.14-2.86-20.46-6.5h-45.31
	c-9.13-2.09-12.83-9.48-18.15-15.09c-5.66-5.29-13.76-8.37-18.15-14.99c-28.9-12.89-54.22-28.98-90.74-34.6
	c-4.28,0.44-4.97-2.42-9.02-2.2c-43.46-1.76-82.31,0.88-111.21,13c-6.82,5.07-15.26,8.59-22.66,13c-7.86,4.08-10.52,13-20.46,15.1
	C623.39,14,569.06-4.07,490.57,0.78c-32.95,4.63-62.77,12.23-88.43,23.8c-6.36,6.17-16.18,9.04-22.66,15.1
	c-9.25,4.19-11.56,14.87-22.66,17.3c-9.13-9.26-23.93-13.22-38.61-17.3c-8.67-1.87-17.34-3.64-27.28-4.3
	c-19.88-0.22-34.68,4.41-52.13,6.5c-12.6,7.49-26.59,13.55-40.81,19.5c-3.24,6.28-12.48,6.83-18.15,10.8
	c-8.09,2.42-11.56,9.15-20.46,10.8c-4.74,7.71-13.87,11.24-20.46,17.3c-6.24,6.39-8.21,16.75-18.15,19.5
	c-38.03-7.38-71.79,6.06-95.25,19.5C7.94,162.86-2.58,193.27,0.55,236.57c3.35,3.31,3.7,9.48,4.51,15.1c3.58,3.09,5.78,7.49,6.82,13
	c5.43,7.82,10.06,16.31,15.84,23.8c6.36,6.94,12.37,14.21,20.46,19.5c6.59,7.38,12.14,15.87,24.97,17.3
	c6.47,4.63,24.85,2.09,31.79,0c35.26,64.46,69.94,129.47,104.39,194.59c11.56,16.97,20.11,38.56,29.48,54.1
	c2.77,4.52,5.09,7.16,6.82,10.8c3.24,6.72,5.66,13.33,9.02,19.5c2.43,4.41,6.7,6.72,9.13,10.8c4.05,7.16,6.7,16.64,9.02,21.6
	c0.35,0.77,4.05,1.21,4.51,2.2c4.16,7.38,6.59,16.53,9.02,21.6c0.35,0.77,4.05,1.21,4.51,2.2c4.62,8.04,6.47,17.3,11.33,25.89
	c0.69,1.32,3.47,2.53,4.51,4.3c4.05,6.61,7.28,12.89,9.02,19.5c7.17,5.4,10.17,14.76,13.64,23.8c6.13,6.39,10.87,14.1,13.64,23.8
	c12.48,12.67,16.88,32.94,29.48,45.39c1.97,10.35,9.36,15.54,11.33,25.89c8.67,3.97,7.28,17.63,15.84,21.59
	c7.51,17.42,16.53,33.17,27.17,47.6c7.98,16.97,16.41,33.39,27.28,47.6c7.17,17.63,17.69,32.17,29.48,45.39
	c4.39,8.05,9.83,15.21,13.64,23.8c3.12,9.25,10.75,14.22,13.64,23.8c12.95,12.89,18.5,32.83,40.81,36.8c5.2,6.17,13.29-3.08,22.66,0
	c7.98-1.1,14.8-3.19,24.97-2.2c24.51-22.04,39.3-53.33,58.96-79.99c17.69-29.2,40.58-53.66,52.13-88.7
	c17.92-28.32,28.67-63.57,40.81-97.29c16.18-30.63,30.86-62.81,47.62-93c34.1-58.95,66.47-119.66,95.26-183.78
	c9.02-13.66,12.83-32.39,22.65-45.4c6.01-17.41,16.65-30.3,22.66-47.6c13.3-33.39,27.74-65.78,31.79-108.09
	c10.17-16.97,16.88-37.35,24.97-56.19c15.95-0.66,24.27-8.59,36.29-13c20.46-20.83,40.12-42.53,47.63-75.7v-34.6
	C1076.65,146.99,1075.96,139.06,1073.53,132.67z M495.07,928.42c-4.74-6.28-5.09-16.75-11.33-21.59c0.23-7.05,13.52-1.55,11.33-10.8
	c0.46-4.08-2.54-4.74-2.31-8.7c-7.4-1.22-10.52,1.43-15.84,2.2c-5.9-11.02-11.44-22.25-15.84-34.59
	c15.26-7.05,29.59-14.99,52.13-15.1c9.71,5.95,15.14,15.87,22.66,23.8c-1.04,10.58,2.31,25.35-2.31,32.39h-2.31
	C525.13,912.44,513.57,923.79,495.07,928.42z M762.68,688.44c-1.15,10.35-6.36,16.96-11.33,23.8c-2.89,9.59-6.94,17.85-11.33,26
	c-4.97,6.83-6.13,17.19-13.64,21.59c-8.79-0.99-9.25-9.92-13.64-15.09c-3.7-5.18-3.58-13.88-6.82-19.5
	c1.62-15.21-3.81-23.69-2.31-38.9c0.81-1.54,3.7-2.97,4.51-4.29c3.47-5.29,7.74-11.13,15.84-15.1c12.6-6.17,36.07-10.36,52.14-2.2
	C772.4,673.12,768.23,681.39,762.68,688.44z M869.38,483.05c-22.89,52.45-52.83,98.06-74.9,151.39c-9.36-3.31-16.19-9.14-29.48-8.59
	c-40.23-0.33-68.67,18.07-83.93,45.4c-8.78,15.75-13.06,30.85-11.33,58.4c3.01,11.57,5.32,23.8,11.33,32.39
	c3.58,6.72,9.25,11.35,13.64,17.3c4.51,5.84,16.3,4.62,18.15,13c-47.05,82.53-88.32,170.9-142.99,246.37
	c-17.46-6.39-22.89-24.24-33.99-36.8c-7.05-16.42-17.46-29.53-24.97-45.39c0.92-7.82,11.21-6.61,15.84-10.8
	c4.51-3.64,11.33-5.07,13.64-10.8c10.52-5.84,16.07-16.3,22.66-26c2.08-11.68,4.97-42.97,0-56.19c-0.58-1.54-3.93-5.18-4.51-6.5
	c-1.39-2.98-0.58-5.73-2.31-8.59c-0.58-0.88-4.16-1.43-4.51-2.21c-0.46-0.99,0.69-3.42,0-4.29c-6.7-8.38-18.15-12.89-24.97-19.51
	c-27.05-10.35-61.38-4.52-83.92,6.5c-23.12-42.86-47.74-84.18-68.09-129.68c-9.36-23.58-21.39-44.41-31.79-66.99
	c-5.2-11.57-12.95-20.83-18.15-32.39c-7.75-8.48-11.79-20.49-20.46-28.1c-10.06-22.92-24.39-41.65-38.61-60.6
	c-13.06-19.94-24.62-41.32-36.3-62.69c-21.5-43.74-43.7-86.6-65.78-129.69c0.35-9.04,11.79-7.49,15.84-13
	c5.9-3.09,10.52-7.27,15.84-10.8c14.91-11.02,25.89-25.78,40.81-36.8c11.68-14.1,22.19-29.31,38.61-38.89
	c41.15,5.4,66.35,26.11,108.89,30.3h27.28c47.97-6.17,70.28-36.8,111.2-49.69c18.73-1.32,26.47,7.93,40.81,10.8
	c12.6,4.63,24.74,9.59,36.3,15.1c25.55,3.75,57.22,1.65,86.23,2.2c27.05-4.41,36.76-25.45,70.29-23.8
	c18.84,5.84,31.09,17.96,40.8,32.39c12.95,11.46,24.16,24.57,36.29,36.8c10.17,3.97,18.38,9.92,27.28,15.1
	c10.98,1.1,17.57,6.28,31.79,4.3c5.66,6.83,10.86,14.21,15.84,21.6c8.09,3.75,17.34,6.5,22.65,13
	C922.44,383.78,895.74,433.14,869.38,483.05z M1041.73,180.27c-3.35,18.4-14.33,29.64-22.65,43.3
	c-18.15,11.57-29.48,29.53-58.95,30.3c-7.86,6.72,5.08,13.22,0,17.3c-9.6,2.42-12.95,10.69-24.97,10.8
	c-17.23-4.52-22.2-20.71-33.99-30.3c-11.22-2.97-16.65-11.46-29.48-13c-7.63-6.39-15.96-12.23-24.97-17.3
	c-8.9-10.25-18.37-20.05-27.28-30.3c-8.21-5.07-16.07-10.58-22.66-17.3c-8.78-4.63-18.61-8.15-27.16-13h-38.61
	c-8.56,4.08-19.89,5.51-24.97,13c-9.48,2.53-16.88,6.94-24.97,10.8c-11.44,1.43-18.26-2.75-24.97,0c-8.21,2.09-2.31-9.37-6.82-10.8
	c-0.58-4.41-6.01-4.3-9.02-6.5c-10.06-0.22-8.67,10.47-13.64,15.1c-9.13-1.43-15.49-5.4-13.64-17.3c1.62-6.61-2.31-7.93-2.31-13
	c1.96-6.94-5.9-4.52-6.82-8.59c-8.79-1.87-8.09,5.29-13.64,6.5c0,6.39,0.23,13.11-6.82,13c-11.21-0.88-5.32-17.96-6.82-28.1
	c0.58-11.35,0.81-22.48-9.13-23.8c-22.31-0.33-11.91,30.41-18.15,45.4c-22.89-3.75,4.39-44.18-13.64-49.69
	c-12.37-0.22-15.61,8.26-15.84,19.5c-5.09,0.88-0.92,10.69-2.31,15.21c-4.97,0.22-0.92,9.15-2.31,13
	c-43.93,8.59-63.58,40.33-106.58,49.69h-33.75c-39.53-6.61-66.01-28.76-113.4-21.6c-12.25,3.53-23.47,7.82-31.79,15.1
	c-12.14,10.8-25.55,20.38-33.99,34.6c-10.52-5.07-6.7-23.91-20.46-26c-23.58,8.48,6.59,40.33-6.82,51.9
	c-15.95-4.3-3.93-35.15-24.97-34.6c-12.48,0.66-8.9,16.97-6.82,26c0.46,9.14,10.29,17.74,4.51,26
	c-17.34-10.91-5.32-49.69-22.66-60.49c-9.02,0.11-9.36,8.37-13.64,13c-1.39,11.35,1.73,18.62,2.31,28.1
	c-2.2,9.48,8.21,17.96,2.31,23.8c-7.86-1.1-5.9-11.68-9.02-17.3c-2.2-5.73-4.74-11.35-4.51-19.5c-7.63-9.37,1.27-34.27-13.64-36.8
	c-10.64-1.54-6.82,10.8-11.33,15.1c-0.81,15.87,1.85,28.54,4.51,41.1c-9.71-5.18-11.56-17.85-15.84-28.1
	c-4.05-10.58-6.47-22.7-6.82-36.8c0.69-10.14,4.86-16.97,6.82-25.89c4.05-1.98,7.05-4.85,9.02-8.59c13.29-5.18,33.99-5.4,49.94-2.2
	c4.97,5.4,12.37,8.37,18.15,13c15.14-0.66,35.6,3.64,38.61-8.59c1.5-13.66-8.9-16.09-11.33-26c17.92-18.95,38.38-35.48,70.28-41.1
	h43.12c17.69,2.75,28.9,9.59,43.12,17.3c7.17,3.97,13.52,12.45,24.97,10.8c12.14-1.43,15.26-11.35,13.64-25.89
	c20.23-0.88,25.43-16.09,38.61-23.8c10.75-9.26,25.09-14.99,38.61-21.6c31.21-9.92,70.17-12.45,113.4-10.8
	c33.52,5.51,58.61,19.06,81.61,34.6c10.52,9.48,13.18,26.33,36.3,23.8c10.17-2.75,16.65-14.99,11.33-26
	c29.48-20.16,72.6-27.33,124.73-26c23.81,2.64,46.12,13,65.77,21.6c3.47,1.54,7.17,3.97,11.33,6.5c1.73,1.1,4.74,0.88,6.82,2.2
	c3.35,2.09,5.43,5.95,9.02,8.59c6.36,4.63,8.9,6.06,13.64,10.8c1.38,1.32,3.46,6.28,6.82,8.59c3.58,14.65,0.34,35.7,15.84,38.89
	c25.66,2.09,25.43-20.38,29.48-38.89c37.91-2.31,54.45,15.87,72.6,32.5c1.51,5.73,3.58,11.02,6.82,15.1L1041.73,180.27z
	 M426.99,292.77c2.43,2.09,5.43,6.28,6.82,8.59c1.73,2.97,2.31,7.38,4.51,10.8c3.47,5.51,9.6,11.13,13.64,17.3
	c2.08,3.2,2.31,7.27,4.51,10.8c1.73,2.75,4.51,5.4,6.82,8.59c4.16,5.84,7.98,13.11,13.64,17.3c2.54,1.87,8.09,2.75,11.33,4.3
	c3.93,1.87,6.36,6.28,11.33,4.3c15.61-7.38,35.14-11.13,45.31-23.8c-3.47-27-24.85-36.8-33.99-58.4
	c-15.84-15.21-23.35-38.23-38.61-54.1c-7.98-3.75-18.61-1.65-27.17,0c-9.71,6.61-17.22,15.32-22.66,26
	C423.63,274.25,429.3,279.76,426.99,292.77z M460.97,262.46c7.51,12.78,15.03,25.78,22.66,38.9c7.51,12.78,14.45,26.44,24.97,36.8
	c-1.04,6.28-9.71,5.07-11.33,10.8c-12.83-9.37-17.34-26.66-29.48-36.8c-3.01-7.93-7.51-14.43-13.64-19.5
	c-1.85-9.03-12.14-10.03-13.64-19.5C447.79,269.96,450.34,262.35,460.97,262.46z M708.35,281.86c3.35-4.74,11.33-5.07,11.33-13
	c-7.86-11.9-14.56-25.01-36.29-23.8c-2.32,2.86-2.19,7.93-4.51,10.8C685.12,267.97,690.78,280.65,708.35,281.86z M626.62,271.06
	c-8.79-13-33.29-3.31-31.79,13C604.31,295.3,625.24,286.04,626.62,271.06z M338.55,357.55c5.43-2.75,4.51-11.46,9.02-15.1
	c3.82-32.39-8.09-49.91-22.66-64.9c-5.78-0.22-7.98-3.97-11.33-6.5c-2.66-0.33-6.47,0.33-6.82-2.2H286.3
	c-11.1,5.29-20,12.56-20.46,28.1c-0.92,11.02,4.62,15.76,9.02,21.6c3.81,7.27,7.63,14.43,11.33,21.6
	c8.67,12.56,15.49,26.99,38.61,25.89C329.19,363.06,336.7,363.06,338.55,357.55z M320.41,344.66c-10.87-2.64-14.57-12.01-20.46-19.5
	c-3.35-9.04-12.25-12.78-11.33-25.89c-1.62-5.84,4.51-4.41,4.51-8.59C319.02,291.11,332.54,321.74,320.41,344.66z M828.58,335.96
	c-11.21,8.81-21.38,18.51-20.46,38.89c5.2,3.64,9.71,8.04,18.14,8.59c16.07-5.4,31.1-32.28,15.84-47.6h-13.52V335.96z
	 M676.57,364.05c-17.57-0.88-32.14,1.1-45.43,4.3c-14.8,2.53-23.7,10.58-36.3,15.1c-9.71,10.91-20.69,20.6-29.48,32.39
	c-4.05,12.45-10.06,28.1-4.51,43.19c5.32,0.66,4.28,7.49,11.33,6.5c0.81,5.73,11.56,1.98,13.64,6.5c5.43,1.32,16.42-2.75,18.15,2.2
	c5.43,1.32,16.41-2.75,18.15,2.2c-11.44,13.66-15.37,47.38-11.33,62.69c1.27,4.85,2.2,8.48,4.51,10.8c3.47,3.53,7.4,8.15,9.02,10.8
	c5.78,0.99,10.4,3.08,13.64,6.5h33.99c23.35-11.68,37.8-35.92,31.79-69.2c-4.51-3.64-3.58-12.45-9.13-15.1
	c-0.46-4.74-10.29-11.68-4.51-15.1c14.22,1.65,28.67,2.97,45.43,2.2c10.29-8.26,10.98-25.56,11.33-43.3
	C741.88,388.3,716.1,369.56,676.57,364.05z M717.37,444.05c-4.62,4.96-20.34-0.66-24.97,4.3c-10.06-0.22-14.11,6.72-22.66,2.2
	c-0.23,5.51-1.27,10.36-4.51,13c-1.73,11.79,2.77,17.52,2.31,28.1c2.08,9.48,9.59,13.88,9.13,26c-3.35,13.33-6.94,26.55-24.97,26
	c-0.35-2.53-4.16-1.87-6.82-2.2c-16.76-24.46,3.24-62.47-4.51-90.79c-5.9-4.41-16.41-4.63-27.28-4.3
	c-7.51-2.97-18.15-2.86-27.28-4.3c8.32-21.6,28.21-32.17,47.63-43.19c15.03-2.97,33.99-2.09,52.13-2.2c0.35,2.53,4.16,1.87,6.82,2.2
	c5.55,4.85,12.48,8.37,18.14,13C712.86,422.45,718.41,430.06,717.37,444.05z M261.34,400.86c3.01,9.92,29.71,13,31.79,0
	C294.05,385.1,261.1,387.08,261.34,400.86z M472.42,483.05c-0.12-0.88-1.96-1.76-2.31-4.3c-0.92-7.71-2.66-8.37-4.51-13
	c-1.39-3.42-1.16-5.29-2.31-8.7c-2.89-0.88-4.62-2.75-4.51-6.5c-13.29-11.02-27.05-21.82-47.63-25.89h-15.84
	c-1.39,0.11-2.66,0.33-2.31,2.2c-28.21,4.74-48.67,17.08-65.78,32.39c-5.43,11.35-12.37,21.38-13.64,36.8
	c1.96,41.32,25.43,62.25,56.76,75.7c27.05,6.39,58.15-0.44,77.1-8.59C465.13,548.94,477.16,514.02,472.42,483.05z M433.81,528.45
	c-5.09,2.31-9.94,4.85-13.64,8.59c-3.24-0.22-6.47-0.33-6.82,2.2c-10.4-0.11-22.19,0.99-29.48-2.2c-9.83-0.66-14.33-6.5-22.66-8.59
	c-2.89-7.38-5.09-15.32-6.82-23.8c3.24-14.99,10.17-26.33,13.64-41.1c8.21-5.07,19.3-7.6,29.48-10.8
	c12.02,0.77,20.35,5.07,29.48,8.59c2.31,4.3,3.93,9.26,9.13,10.8c2.66,9.03,5.66,17.63,6.82,28.1
	C442.01,511.81,437.51,519.64,433.81,528.45z M819.44,459.25c3.7,8.93,19.42,13.55,27.28,6.5
	C848.23,452.64,820.71,443.94,819.44,459.25z M411.15,467.85c-3.35,3.2-3.35,14.1,0,17.3h9.02c3.35-3.2,3.35-14.1,0-17.3H411.15z
	 M381.67,485.15c0.35,6.94,5.2,9.48,13.64,8.59C401.32,484.82,387.57,476.66,381.67,485.15z M415.66,517.65v-10.8
	C395.89,496.28,397.62,527.24,415.66,517.65z M783.14,582.44c17.81,0.66,15.38-25.34,6.82-32.39
	C766.27,543.77,767.08,580.79,783.14,582.44z M608.48,621.45c2.31-2.86,3.7-6.5,6.82-8.59c0.35-11.13-4.51-17.3-9.02-23.8
	c-18.84-8.37-31.44,7.27-24.97,23.8C589.05,616.82,595.53,622.22,608.48,621.45z M365.72,606.24c-1.73-5.62-12.72-8.81-18.15-4.3
	c0.35,14.65,16.65,30.3,29.48,19.5C376.7,613.18,373.81,607.12,365.72,606.24z M556.34,619.24c-4.05-1.21-9.36-1.1-11.33-4.3
	c-16.88-1.65-24.85,5.18-38.61,6.5c-3.7,5.84-11.56,7.71-15.84,13c-7.74,2.75-8.55,12.01-18.15,13
	c-6.01-10.14-15.37-17.08-29.48-19.5c-8.21-0.55-10.98,3.97-18.15,4.3c-10.52,10.91-16.3,26.33-18.15,45.4
	c6.36,43.63,19.3,81.09,61.27,90.79c13.52,2.09,22.43-3.64,27.28-6.51c14.91-8.81,28.78-24.35,29.48-43.19
	c0.81-11.57-6.24-15.65-9.02-23.8c23.7-9.15,47.51-18.18,54.45-43.19C571.6,635,563.51,627.51,556.34,619.24z M524.55,668.93
	c-11.56,2.64-24.85,3.64-31.79,10.8c0.58,7.38-1.73,17.52,2.31,21.59c2.2,5.85,3.7,12.35,6.82,17.3
	c-4.97,8.92-10.87,17.08-22.66,19.39c-33.41-5.95-54.45-43.3-40.81-79.99c18.61-1.87,18.84,13.77,33.99,15.1
	c9.48,1.87,9.02-5.84,13.64-8.59c5.32-1.43,6.13-7.16,11.33-8.59c7.05-6.94,16.76-11.35,24.97-17.3c12.02-0.33,18.96-3.97,24.97,4.3
	C547.56,659.24,531.37,659.57,524.55,668.93z M728.7,688.44c5.2,0.55,8.56-0.55,9.02-4.3c-3.23-0.55-3.81-3.52-6.82-4.3
	C730.32,682.71,727.77,683.92,728.7,688.44z M724.19,703.53c-3.46,3.08-7.16,10.47-2.31,15.21c8.44,0.88,13.29-1.77,13.64-8.71
	C732.05,707.61,730.78,702.98,724.19,703.53z M601.66,725.24c-4.05-1.88-5.78-6.06-13.64-4.3c-9.83,7.16-24.85,9.48-24.97,26
	c4.51,6.39,20.35,5.51,22.66-2.2C594.95,741.88,602.81,737.8,601.66,725.24z M622.12,757.63h-2.31
	c-11.68,11.24-24.85,21.05-27.28,41.1c4.62,15.75,12.25,28.76,20.46,41.09c1.73,8.48,8.9,11.79,11.33,19.5
	c6.59,3.86,7.4,13.12,18.15,13.01c19.19-4.74,31.79-15.87,38.61-32.39c0.35-5.4-3.46-6.72-6.82-8.71c1.27-7.05-1.5-10.02-2.31-15.09
	c-8.09-9.59-15.49-19.84-22.66-30.3C639.8,776.8,639.23,759.4,622.12,757.63z M649.28,848.42c-4.97-0.33-4.86-5.39-4.51-10.79
	c-9.13-12.89-21.5-22.7-31.79-34.6c-1.97-9.81,5.32-10.8,6.82-17.3c3.01,0.78,3.58,3.86,6.82,4.3c7.17,17.63,18.26,31.62,31.79,43.3
	C657.95,840.82,650.32,841.48,649.28,848.42z M501.89,852.72c-5.55-0.33-10.87-0.33-13.64,2.21c-0.69,5.06,0.35,8.26,2.31,10.79
	c5.55,0.33,10.98,0.33,13.64-2.2C506.06,857.46,500.97,858.01,501.89,852.72z M517.73,883.02c-1.85,0.44-2.31,2.21-4.51,2.21
	c-3.47,12.22,10.4,16.09,18.15,10.79C531.26,887.43,526.75,883.13,517.73,883.02z M547.21,952.22c2.31,9.92,15.26,19.28,27.28,13
	C584.43,951.12,552.3,932.28,547.21,952.22z"/>
</svg>
