<?xml version="1.0" encoding="utf-8"?>
<!-- Generator: Adobe Illustrator 25.0.0, SVG Export Plug-In . SVG Version: 6.00 Build 0)  -->
<svg version="1.1" id="Layer_1" xmlns="http://www.w3.org/2000/svg" xmlns:xlink="http://www.w3.org/1999/xlink" x="0px" y="0px"
	 viewBox="0 0 1080 1080" style="enable-background:new 0 0 1080 1080;" xml:space="preserve">
<path d="M1032.54,548.57h-32.35c-9.41-51.67-34.98-91.39-67.63-104.13c-8.3-60.38-39.04-107.25-76.69-117.07
	c-6.31-64.78-38.05-115.71-77.53-126.12c-6.34-73.05-44.79-129.56-91.34-130.61C669.87,26.84,640.1,0,607.9,0
	c-28.68,0-55.5,21.21-73.19,57.29c-10.39-6.31-21.32-9.5-32.62-9.5c-31.48,0-60.92,25.97-78.14,68.33
	c-14.93,0.11-29.56,5.97-42.73,17.08c-17.51-20.72-39.3-29.33-60.65-24.15c-8.64,2.09-14.6,15.19-13.32,29.22
	c1.29,14.05,9.34,23.73,17.99,21.64c14.75-3.58,29.54,3.54,40.56,18.99c7.35,10.37,17.85,11.79,26.1,3.51
	c10.37-10.37,22.66-15.86,36.06-14.67c8.37,0.71,16.17-6.13,20.36-17.95c11.02-31.21,31.63-50.58,53.76-50.58
	c9.25,0,18.1,3.2,26.36,9.55c10.01,7.65,21.74,2.38,27.92-12.56c11.54-28.04,30.8-44.79,51.52-44.79
	c22.63,0,43.46,20.01,54.39,52.34c4.07,11.89,12.12,19.1,20.48,18.39c34.49-2.89,64.84,42.23,64.84,100.39l-0.01,0.71
	c0,0.59-0.01,1.18-0.01,1.75c0,14.21,7.1,25.71,15.85,25.71c32.31,0,59.45,40.88,61.78,93.07c0.8,17.87,9.68,32.22,20.53,33.39
	c28.71,3.39,52.56,39.37,56.72,85.42c1.36,15.63,8.7,27.84,18.26,30.39c20,5.38,36.93,26.8,45.56,55.58h-87.99
	c-8.73,0-15.82,11.52-15.82,25.71c0,14.2,7.09,25.71,15.82,25.71h109h0.18h0.23h44.84c8.72,0,15.82,11.53,15.82,25.71
	s-7.09,25.71-15.82,25.71H47.46c-8.73,0-15.82-11.53-15.82-25.71S38.74,600,47.46,600h44.87h0.23h0.18h717.53
	c8.73,0,15.82-11.52,15.82-25.71c0-14.2-7.09-25.71-15.82-25.71H113.63c6.98-23.71,19.56-42.32,35.41-51.31
	c9.5-5.3,15.63-20.44,14.9-36.9c-0.12-2.6-0.19-5.1-0.19-7.45c0-55.42,27.79-100.5,61.93-100.5l0.22,0.01
	c0.33,0.01,0.67,0.03,1.01,0.03c7.68,0,14.25-8.97,15.58-21.27c3.11-28.73,13.77-53.8,29.33-68.84c6.11-5.96,10.08-16.37,10.6-27.8
	c0.45-9.54,1.92-18.76,4.34-27.43c3.63-12.92,0.11-28.17-7.84-34.06c-7.94-5.88-17.33-0.17-20.95,12.75
	c-3.27,11.68-5.47,23.97-6.56,36.67c-17.6,19.11-30.59,47.2-37.01,79.62c-46.28,9.08-82.27,73.22-82.28,150.74
	c-25.49,18-44.49,53.01-52.28,95.73H47.46C21.29,548.57,0,583.18,0,625.71c0,42.54,21.29,77.14,47.46,77.14h5.22l20.4,149.85
	c1.63,12,8.17,20.16,15.43,20.16c1.13,0,2.28-0.18,3.43-0.6c8.53-3.08,13.92-16.79,12.03-30.67L85.09,702.86h909.82l-39.76,292.11
	c-2.69,19.78-13.28,33.6-25.74,33.6H150.6c-12.47,0-23.05-13.82-25.74-33.6l-6.3-46.23c-1.89-13.88-10.34-22.63-18.86-19.55
	c-8.54,3.06-13.93,16.79-12.03,30.65l6.3,46.25c5.92,43.51,29.21,73.91,56.63,73.91h778.8c27.43,0,50.72-30.4,56.64-73.91
	l41.28-303.23h5.22c26.17,0,47.46-34.61,47.46-77.14C1080,583.18,1058.71,548.57,1032.54,548.57z"/>
<path d="M472.5,270c0-37.84-29.65-67.5-67.5-67.5s-67.5,29.66-67.5,67.5c0,37.85,29.65,67.5,67.5,67.5S472.5,307.85,472.5,270z
	 M371.82,270c0-9.16,12.92-22.5,33.18-22.5s33.18,13.34,33.18,22.5c0,9.18-12.92,22.5-33.18,22.5S371.82,279.18,371.82,270z"/>
<path d="M742.5,337.5c0-37.84-29.65-67.5-67.5-67.5c-37.85,0-67.5,29.66-67.5,67.5c0,37.85,29.65,67.5,67.5,67.5
	C712.85,405,742.5,375.35,742.5,337.5z M641.82,337.5c0-9.16,12.92-22.5,33.18-22.5c20.26,0,33.18,13.34,33.18,22.5
	c0,9.18-12.92,22.5-33.18,22.5C654.75,360,641.82,346.68,641.82,337.5z"/>
<path d="M405,472.5c0-37.84-29.65-67.5-67.5-67.5S270,434.66,270,472.5c0,37.85,29.65,67.5,67.5,67.5S405,510.35,405,472.5z
	 M304.32,472.5c0-9.16,12.92-22.5,33.18-22.5s33.18,13.34,33.18,22.5c0,9.18-12.92,22.5-33.18,22.5S304.32,481.68,304.32,472.5z"/>
</svg>
