<?xml version="1.0" encoding="utf-8"?>
<!-- Generator: Adobe Illustrator 25.0.0, SVG Export Plug-In . SVG Version: 6.00 Build 0)  -->
<svg version="1.1" id="Layer_1" xmlns="http://www.w3.org/2000/svg" xmlns:xlink="http://www.w3.org/1999/xlink" x="0px" y="0px"
	 viewBox="0 0 1080 1080" style="enable-background:new 0 0 1080 1080;" xml:space="preserve">
<g>
	<path d="M1035.56,518.64c-7.65-8.18-18.43-12.87-29.59-12.87h-3.32c15.04-25.89,23.22-55.29,23.22-85.56
		c0-68.26-40.83-129.71-102.8-156.71C921.61,170.42,845.53,95.1,752.1,95.1c-93.41,0-169.47,75.27-170.98,168.33
		c-3.49-0.82-7.08-1.3-10.75-1.3c-15.22,0-29.54,7.43-38.28,19.85l-4.26,6.06c-3.51,4.96-10.09,6.76-15.6,4.19l-6.71-3.11
		c-13.81-6.43-29.91-5.68-43.1,1.92c-13.19,7.6-21.87,21.2-23.24,36.35l-0.67,7.38c-0.24,2.63-1.4,6.31-2.93,10.25
		c-3.92-1.87-6.72-5.7-7.14-10.27l-0.67-7.34c-1.3-14.37-8.98-26.28-19.99-33.83l53.85-76.42c10.49-14.9,14.56-33.06,11.41-51.1
		c-3.13-18.07-13.06-33.8-27.94-44.28c-30.87-21.73-73.65-14.34-95.38,16.53l-98.56,139.89c-3.29,4.67-5.72,9.74-7.72,14.94
		c-1.59,0.07-3.29-0.09-5.03-0.89l-6.71-3.11c-13.81-6.4-29.95-5.66-43.1,1.93c-13.18,7.6-21.85,21.18-23.22,36.33l-0.67,7.38
		c-0.55,6.07-5.36,10.88-11.43,11.43l-7.36,0.67c-15.14,1.37-28.75,10.06-36.35,23.22c-7.61,13.19-8.33,29.29-1.93,43.14l3.1,6.67
		c2.57,5.54,0.8,12.12-4.19,15.62l-6.04,4.26c-12.44,8.78-19.87,23.1-19.87,38.31c0,10.15,3.56,19.73,9.45,27.69H74.02
		c-11.16,0-21.94,4.69-29.59,12.87c-7.72,8.25-11.7,19.47-10.93,30.75c10.13,149.68,105.34,224.83,245.19,291.61
		c15.61,7.46,28.49,19.85,36.31,34.94c7.63,14.75,6.42,33.78-3.32,49.97c-7.34,12.18-7.55,26.85-0.55,39.24
		c7,12.39,19.66,19.76,33.88,19.76h389.98c14.22,0,26.88-7.39,33.88-19.76c6.99-12.39,6.79-27.06-0.72-39.55
		c-9.57-15.89-10.76-34.91-3.15-49.64c7.81-15.09,20.69-27.49,36.31-34.96c139.82-66.78,235.04-141.92,245.19-291.6
		C1047.26,538.1,1043.25,526.89,1035.56,518.64z M991.66,420.22c0,31.14-10.7,61.24-30.25,85.56h-89.53v-68.45
		c0-9.46-7.65-17.11-17.11-17.11c-9.47,0-17.11,7.65-17.11,17.11v68.45h-60.42c1.39-1.88,2.59-3.87,3.66-5.92
		c0.05-0.09,0.12-0.17,0.17-0.26c1.5-2.91,2.58-6.02,3.46-9.19c0.22-0.79,0.41-1.57,0.58-2.4c0.7-3.25,1.2-6.55,1.2-9.94
		c0-15.23-7.42-29.53-19.85-38.26l-3.94-2.79c1.37-0.09,2.69-0.31,4.04-0.41c2.06-0.17,4.11-0.38,6.14-0.63
		c3.37-0.41,6.71-0.92,10.01-1.52c1.95-0.36,3.92-0.68,5.85-1.11c3.56-0.77,7.06-1.73,10.54-2.72c1.56-0.44,3.13-0.8,4.67-1.3
		c4.88-1.56,9.65-3.29,14.32-5.25c1.31-0.55,2.54-1.2,3.8-1.78c3.39-1.52,6.76-3.1,10.03-4.84c1.83-0.98,3.61-2.04,5.39-3.08
		c2.61-1.52,5.22-3.06,7.75-4.72c1.88-1.23,3.73-2.5,5.56-3.8c2.31-1.64,4.59-3.35,6.81-5.1c1.83-1.44,3.64-2.86,5.4-4.36
		c2.11-1.8,4.11-3.68,6.13-5.56c1.73-1.61,3.47-3.2,5.13-4.88c1.9-1.93,3.66-3.99,5.46-6.01c3.41-3.82,6.62-7.77,9.69-11.89
		c1.08-1.45,2.22-2.86,3.27-4.36c1.86-2.69,3.57-5.48,5.28-8.25c0.86-1.4,1.75-2.79,2.57-4.23c1.73-2.99,3.32-6.06,4.86-9.16
		c0.6-1.23,1.2-2.45,1.78-3.7c1.59-3.4,3.08-6.84,4.45-10.37c0.29-0.75,0.56-1.54,0.84-2.29c3.1-8.33,5.73-16.89,7.51-25.75
		C963.52,323.57,991.66,369.55,991.66,420.22z M752.1,129.32c75.48,0,136.9,61.41,136.9,136.89c0,2.58-0.22,5.12-0.38,7.67
		c0,0-0.05,0.1-0.05,0.17c-1.01,17.98-5.49,34.98-12.75,50.39c-0.07,0.15-0.13,0.31-0.2,0.46c-1.68,3.54-3.52,6.96-5.49,10.34
		c-0.24,0.41-0.46,0.82-0.7,1.23c-1.83,3.06-3.82,6.04-5.89,8.93c-0.44,0.63-0.88,1.27-1.32,1.88c-1.93,2.63-4,5.17-6.12,7.65
		c-0.67,0.79-1.31,1.59-2,2.36c-2,2.26-4.12,4.4-6.28,6.52c-0.89,0.89-1.76,1.78-2.69,2.65c-2.05,1.92-4.21,3.71-6.38,5.51
		c-1.11,0.92-2.2,1.87-3.35,2.74c-2.11,1.61-4.28,3.11-6.47,4.62c-1.31,0.91-2.62,1.83-3.98,2.69c-2.14,1.35-4.35,2.57-6.55,3.8
		c-1.51,0.84-3.01,1.71-4.55,2.5c-2.16,1.1-4.38,2.07-6.59,3.05c-1.69,0.75-3.37,1.54-5.1,2.21c-2.18,0.86-4.4,1.59-6.62,2.33
		c-1.86,0.63-3.69,1.28-5.6,1.83c-2.16,0.63-4.38,1.11-6.58,1.63c-2.04,0.48-4.06,0.99-6.13,1.39c-2.14,0.39-4.31,0.65-6.47,0.96
		c-2.21,0.31-4.4,0.63-6.62,0.84c-0.43,0.03-0.87,0.03-1.31,0.07v-0.02c0.03-0.22,0.03-0.43,0.07-0.65c0.56-3.1,0.75-6.23,0.68-9.36
		c-0.01-1.01-0.14-1.98-0.22-2.99c-0.2-2.46-0.62-4.88-1.2-7.27c-0.24-0.96-0.43-1.92-0.74-2.86c-1.01-3.22-2.26-6.38-3.99-9.36
		c-7.61-13.18-21.2-21.85-36.34-23.22l-7.38-0.67c-4.53-0.41-8.37-3.2-10.25-7.14L740,302.52c6.69-6.69,6.69-17.51,0-24.2
		c-6.69-6.69-17.5-6.69-24.2,0l-24.42,24.42c-3.61-4.57-7.85-8.68-13.02-11.67c-3.46-2-7.14-3.46-10.9-4.5
		c-1.27-0.36-2.55-0.39-3.84-0.63c-2.57-0.5-5.1-0.96-7.7-1.01c-0.32,0-0.65-0.14-0.97-0.14c-1.97,0-3.9,0.38-5.85,0.63
		c-1.21,0.15-2.43,0.15-3.63,0.39c-3.49,0.72-6.91,1.78-10.21,3.3l-6.67,3.1c-1.71,0.79-3.52,1.1-5.36,1.03
		c-0.1,0-0.19-0.02-0.29-0.02c-1.8-0.12-3.59-0.62-5.24-1.52c-1.66-8.66-2.5-17.21-2.5-25.5
		C615.21,190.73,676.6,129.32,752.1,129.32z M472.6,337.84l0.67-7.38c0.36-4.14,2.65-7.72,6.26-9.79c3.59-2.07,7.84-2.29,11.6-0.51
		l6.74,3.13c20.52,9.48,44.92,2.93,57.94-15.54l4.26-6.06c4.81-6.83,15.86-6.78,20.64-0.02l4.26,6.06
		c8.73,12.37,22.56,19.23,36.91,19.66c0.17,0,0.33,0,0.49,0c2.07,0.03,4.16,0,6.23-0.24c0.98-0.1,1.94-0.33,2.91-0.5
		c1.4-0.26,2.79-0.44,4.17-0.82c2.47-0.67,4.89-1.51,7.26-2.6l6.69-3.11c3.78-1.75,8.02-1.56,11.6,0.51
		c3.59,2.09,5.88,5.65,6.24,9.81l0.67,7.34c2.05,22.55,19.9,40.42,42.44,42.44l7.36,0.67c4.16,0.36,7.74,2.65,9.81,6.26
		c2.09,3.59,2.27,7.84,0.53,11.58l-3.15,6.78c-0.14,0.31-0.19,0.58-0.31,0.89c-6.1,13.96-4.83,29.48,2.39,42.04
		c0.1,0.17,0.21,0.36,0.31,0.53c0.92,1.56,1.9,3.05,3.01,4.5c0.6,0.8,1.27,1.54,1.91,2.31c0.84,0.96,1.65,1.95,2.57,2.84
		c1.74,1.73,3.61,3.35,5.66,4.79l6.08,4.3c3.39,2.43,5.34,6.19,5.34,10.35c0,4.16-1.95,7.91-5.34,10.3l-6.09,4.28
		c-0.05,0.03-0.08,0.09-0.15,0.14c-2.22,1.59-4.26,3.39-6.16,5.34c-0.76,0.77-1.4,1.64-2.11,2.46c-1.03,1.21-2.04,2.45-2.93,3.76
		c-0.34,0.5-0.79,0.92-1.11,1.44H503.45c1.39-1.88,2.58-3.88,3.68-5.94c0.05-0.09,0.1-0.15,0.15-0.24c1.51-2.93,2.6-6.04,3.47-9.22
		c0.22-0.79,0.39-1.56,0.56-2.34c0.72-3.23,1.2-6.54,1.22-9.91v-0.03c0-2.19-0.48-4.28-0.77-6.42c-0.22-1.57-0.19-3.2-0.58-4.74
		c-1.25-5.1-3.63-9.77-6.47-14.15c-3.22-4.95-7.1-9.48-12.05-12.97l-6.06-4.28c-4.98-3.51-6.72-10.06-4.18-15.57l3.13-6.72
		c1.52-3.29,2.57-6.72,3.29-10.22c0.22-1.04,0.22-2.09,0.36-3.13c0.34-2.46,0.6-4.91,0.55-7.38c-0.03-1.28-0.24-2.55-0.38-3.83
		c-0.24-2.21-0.53-4.4-1.08-6.55c-0.36-1.4-0.84-2.74-1.32-4.11c-0.41-1.13-0.62-2.31-1.09-3.42c-0.29-0.67-0.8-1.16-1.13-1.8
		c-0.43-0.87-0.65-1.81-1.13-2.67c-0.91-1.56-2.14-2.84-3.22-4.28c-0.89-1.2-1.68-2.45-2.67-3.56c-2.07-2.31-4.43-4.28-6.9-6.11
		c-0.74-0.55-1.28-1.32-2.05-1.81C470.58,349.19,472.09,343.47,472.6,337.84z M377.73,158.02c10.87-15.43,32.27-19.13,47.69-8.26
		c7.43,5.24,12.39,13.11,13.95,22.14c1.56,9.05-0.44,18.14-5.68,25.55l-66.75,94.73c0,0-0.02,0-0.02,0.02l-31.81,45.12
		c-5.24,7.44-13.09,12.41-22.13,13.96c-9.02,1.51-18.12-0.44-25.55-5.7c-0.03-0.02-0.05-0.05-0.09-0.07
		c-2.45-1.73-4.5-3.83-6.37-6.06c-0.48-0.57-0.92-1.16-1.37-1.76c-1.63-2.24-3.03-4.62-4.07-7.17c-0.07-0.17-0.17-0.31-0.24-0.48
		c-1.04-2.7-1.63-5.56-1.97-8.47c-0.09-0.74-0.12-1.47-0.17-2.21c-0.15-2.91-0.07-5.87,0.55-8.83c0.94-4.48,2.74-8.78,5.44-12.61
		L377.73,158.02z M126.28,492.64l-6.06-4.26c-3.4-2.4-5.36-6.14-5.36-10.32c0-4.18,1.95-7.92,5.36-10.34l6.02-4.24
		c18.53-13.02,25.07-37.41,15.55-58.01l-3.1-6.67c-1.76-3.78-1.56-8.03,0.51-11.64c2.09-3.59,5.65-5.89,9.81-6.25l7.34-0.67
		c22.55-2.02,40.4-19.87,42.45-42.42l0.67-7.38c0.36-4.14,2.65-7.7,6.25-9.79c3.58-2.07,7.84-2.26,11.6-0.51l6.74,3.13
		c4.89,2.26,10.08,3.58,15.35,3.99c0.05,0.36,0.21,0.72,0.27,1.08c0.05,0.31,0.02,0.62,0.07,0.91c0.34,1.95,1.06,3.75,1.56,5.65
		c0.58,2.21,1.03,4.45,1.81,6.61c0.94,2.53,2.24,4.88,3.46,7.27c0.82,1.61,1.45,3.27,2.41,4.81c1.68,2.72,3.73,5.19,5.78,7.65
		c0.87,1.04,1.56,2.19,2.48,3.18c3.15,3.34,6.62,6.42,10.46,9.1c3.37,2.38,6.96,4.33,10.63,6.04c1.16,0.53,2.34,0.96,3.54,1.42
		c2.62,1.04,5.27,1.93,7.99,2.64c1.37,0.36,2.72,0.7,4.12,0.96c2.89,0.57,5.82,0.89,8.78,1.08c1.11,0.07,2.19,0.24,3.3,0.26
		c0.29,0,0.57,0.07,0.86,0.07c3.95,0,7.92-0.34,11.89-1.03c18.05-3.15,33.78-13.07,44.27-27.96l25.17-35.73
		c2.86,1.9,5.06,4.98,5.44,9.19l0.67,7.34c2.05,22.55,19.9,40.4,42.44,42.44l7.36,0.67c1.61,0.14,3.01,0.8,4.38,1.47
		c0.67,0.34,1.33,0.65,1.93,1.11c0.92,0.68,1.68,1.57,2.38,2.5c0.44,0.58,0.94,1.11,1.28,1.78c0.82,1.61,1.4,3.3,1.49,5.05
		c0,0.07-0.02,0.17-0.02,0.24c0.07,1.92-0.29,3.87-1.13,5.68l-3.13,6.72c-3.58,7.72-4.88,15.97-4.14,23.96
		c0.02,0.1,0.05,0.21,0.05,0.32c0.26,2.55,0.68,5.07,1.35,7.55c2.76,10.3,9.02,19.64,18.26,26.15l4.16,2.93l1.9,1.33
		c3.42,2.48,5.37,6.23,5.37,10.39c0,2.09-0.48,4.06-1.4,5.82c-0.26,0.51-0.8,0.82-1.15,1.3c-0.82,1.16-1.61,2.34-2.82,3.2
		l-0.22,0.15l-5.85,4.11c-2.34,1.66-4.5,3.58-6.49,5.63c-0.62,0.63-1.11,1.35-1.68,2c-1.3,1.51-2.55,3.05-3.66,4.71
		c-0.19,0.27-0.44,0.51-0.62,0.79H138.75C135.48,500.64,131.26,496.14,126.28,492.64z M786.56,810.11
		c-22.3,10.64-40.74,28.44-51.97,50.12c-13.06,25.23-11.43,57.04,4.4,83.32c1.16,1.95,0.68,3.66,0.05,4.74
		c-0.61,1.08-1.81,2.4-4.09,2.4H345.02c-2.26,0-3.47-1.3-4.09-2.4c-0.62-1.08-1.11-2.79,0.24-5.05
		c15.66-25.99,17.28-57.8,4.23-83.04c-11.21-21.68-29.67-39.47-51.95-50.1C160.74,746.74,76.69,680.64,67.65,547.08
		c-0.17-2.55,1.06-4.28,1.8-5.08c0.86-0.92,2.34-2,4.59-2h53.83h337.48h273.78h1.08h229.11h36.67c2.22,0,3.71,1.08,4.59,2
		c0.74,0.8,1.97,2.52,1.78,5.08C1003.3,680.64,919.25,746.74,786.56,810.11z"/>
	<path d="M666.52,830.9H517.53c-9.45,0-17.11,7.65-17.11,17.11s7.67,17.11,17.11,17.11h148.99c9.45,0,17.11-7.65,17.11-17.11
		S675.97,830.9,666.52,830.9z"/>
	<path d="M409.88,865.12h57.94c9.45,0,17.11-7.65,17.11-17.11s-7.67-17.11-17.11-17.11h-57.94c-9.45,0-17.11,7.65-17.11,17.11
		S400.41,865.12,409.88,865.12z"/>
	<path d="M666.55,882.23H409.88c-9.45,0-17.11,7.65-17.11,17.11c0,9.47,7.67,17.11,17.11,17.11h256.67
		c9.45,0,17.11-7.65,17.11-17.11C683.66,889.88,676,882.23,666.55,882.23z"/>
	<path d="M715.81,254.12c3.34,3.34,7.72,5.01,12.1,5.01c4.38,0,8.76-1.68,12.1-5.01c6.69-6.69,6.69-17.51,0-24.2l-48.41-48.39
		c-6.69-6.69-17.5-6.69-24.2,0c-6.69,6.69-6.69,17.51,0,24.2L715.81,254.12z"/>
	<path d="M812.6,350.9c3.34,3.34,7.72,5.01,12.1,5.01c4.38,0,8.76-1.68,12.1-5.01c6.69-6.69,6.67-17.51,0-24.2l-48.41-48.39
		c-6.69-6.69-17.5-6.69-24.19,0c-6.69,6.69-6.69,17.5,0,24.2L812.6,350.9z"/>
	<path d="M776.29,259.13c4.38,0,8.76-1.68,12.1-5.01l48.41-48.39c6.67-6.69,6.69-17.5,0-24.2c-6.69-6.69-17.5-6.69-24.2,0
		l-48.41,48.39c-6.69,6.69-6.69,17.5,0,24.2C767.53,257.46,771.91,259.13,776.29,259.13z"/>
	<path d="M871.89,403.11c0,9.46,7.65,17.11,17.11,17.11h68.45c9.46,0,17.11-7.65,17.11-17.11c0-9.46-7.65-17.11-17.11-17.11h-68.45
		C879.54,386,871.89,393.65,871.89,403.11z"/>
	<path d="M555.33,411.66c4.38,0,8.76-1.68,12.1-5.01l25.67-25.67c6.69-6.69,6.69-17.5,0-24.2c-6.69-6.69-17.5-6.69-24.19,0
		l-25.67,25.67c-6.69,6.69-6.69,17.51,0,24.2C546.57,409.99,550.95,411.66,555.33,411.66z"/>
	<path d="M637.34,449.43c3.34,3.34,7.72,5.01,12.1,5.01s8.76-1.68,12.1-5.01c6.69-6.69,6.69-17.51,0-24.2l-17.11-17.11
		c-6.69-6.69-17.5-6.69-24.2,0c-6.69,6.69-6.69,17.51,0,24.2L637.34,449.43z"/>
	<path d="M568.89,442.34l-17.11,17.11c-6.69,6.69-6.69,17.5,0,24.2c3.34,3.34,7.72,5.01,12.1,5.01s8.76-1.68,12.1-5.01l17.11-17.11
		c6.69-6.69,6.69-17.5,0-24.2C586.39,435.65,575.56,435.65,568.89,442.34z"/>
</g>
</svg>
