<?xml version="1.0" encoding="utf-8"?>
<!-- Generator: Adobe Illustrator 25.0.0, SVG Export Plug-In . SVG Version: 6.00 Build 0)  -->
<svg version="1.1" id="Layer_1" xmlns="http://www.w3.org/2000/svg" xmlns:xlink="http://www.w3.org/1999/xlink" x="0px" y="0px"
	 viewBox="0 0 1080 1080" style="enable-background:new 0 0 1080 1080;" xml:space="preserve">
<path d="M585.49,268.67c4.76,0,9.23-1.85,12.59-5.22c6.94-6.94,6.94-18.24,0-25.19c-3.36-3.36-7.84-5.22-12.59-5.22
	c-4.76,0-9.23,1.85-12.59,5.22c-6.94,6.94-6.94,18.24,0,25.19C576.25,266.82,580.73,268.67,585.49,268.67z"/>
<path d="M1044.73,35.33C1021.94,12.55,991.65,0,959.42,0c-28.57,0-55.61,9.88-77.26,28c-42.59-13.25-87.89-15.3-131.7-5.84
	c-48.51,10.47-92.79,34.63-128.03,69.87L92.03,622.39c-35.24,35.24-59.41,79.52-69.88,128.03c-9.45,43.8-7.4,89.1,5.85,131.69
	C9.88,903.76,0,930.79,0,959.37c0,32.22,12.55,62.52,35.34,85.3c22.79,22.79,53.08,35.33,85.31,35.33
	c28.57,0,55.61-9.88,77.25-27.99c24.98,7.77,50.89,11.7,76.89,11.7c18.33,0,36.7-1.95,54.82-5.86
	c48.52-10.47,92.79-34.63,128.03-69.86l530.4-530.37c35.25-35.24,59.41-79.51,69.88-128.03c9.46-43.81,7.4-89.12-5.85-131.7
	C1091.6,150.54,1089.18,79.78,1044.73,35.33z M116.4,646.77l530.4-530.37c54.15-54.15,132.76-76.44,206.6-60.35L56.05,853.35
	C39.96,779.52,62.25,700.92,116.4,646.77z M59.71,1020.29c-16.28-16.27-25.24-37.91-25.24-60.93c0-23.02,8.96-44.66,25.24-60.93
	L898.49,59.71c16.27-16.28,37.91-25.24,60.93-25.24c23.02,0,44.66,8.96,60.94,25.24c33.59,33.6,33.59,88.27,0,121.86L181.58,1020.3
	c-16.28,16.27-37.92,25.24-60.94,25.24C97.63,1045.54,75.99,1036.57,59.71,1020.29z M963.66,433.24L433.26,963.6
	c-54.15,54.15-132.76,76.45-206.6,60.35l797.35-797.3C1040.11,300.48,1017.82,379.09,963.66,433.24z"/>
<path d="M926.69,379.28c-4.72,0-9.34,1.92-12.6,5.22c-6.95,6.94-6.95,18.24-0.06,25.13c3.32,3.36,7.93,5.28,12.66,5.28
	c4.76,0,9.23-1.85,12.6-5.22c6.94-6.94,6.94-18.24,0-25.19C935.91,381.13,931.44,379.28,926.69,379.28z"/>
<path d="M268.89,867.99c33.05-33.05,40.99-59.81,48-83.44c6.69-22.54,12.46-42.01,39.32-68.87c26.86-26.86,46.33-32.64,68.87-39.32
	c23.62-7.01,50.4-14.95,83.44-47.99c33.05-33.05,40.99-59.82,48-83.44c6.69-22.54,12.46-42.01,39.33-68.87
	c26.86-26.86,46.33-32.64,68.87-39.32c23.62-7.01,50.4-14.95,83.44-47.99c33.05-33.05,41-59.82,48.01-83.45
	c6.69-22.54,12.47-42.01,39.33-68.88s46.34-32.64,68.88-39.33c23.62-7.01,50.4-14.95,83.46-48c6.73-6.73,6.73-17.64,0-24.37
	c-6.74-6.73-17.64-6.73-24.37,0c-26.87,26.86-46.34,32.64-68.88,39.33c-23.62,7.01-50.41,14.95-83.46,48
	c-33.05,33.05-40.99,59.82-48.01,83.45c-6.68,22.54-12.47,42.01-39.33,68.88c-26.86,26.86-46.33,32.64-68.87,39.32
	c-23.62,7.01-50.4,14.95-83.45,47.99c-33.05,33.05-40.99,59.82-48,83.44c-6.69,22.54-12.46,42.01-39.33,68.87
	c-26.86,26.86-46.33,32.64-68.87,39.32c-23.62,7.01-50.4,14.95-83.45,47.99c-33.05,33.05-40.99,59.82-48,83.45
	c-6.69,22.54-12.46,42.01-39.32,68.87c-26.86,26.86-46.33,32.63-68.88,39.32c-23.62,7.01-50.4,14.95-83.45,48
	c-6.73,6.74-6.73,17.64,0,24.37c3.36,3.37,7.78,5.05,12.19,5.05c4.41,0,8.82-1.68,12.19-5.05c26.86-26.86,46.33-32.63,68.88-39.32
	C209.07,908.98,235.84,901.04,268.89,867.99z"/>
</svg>
