<?xml version="1.0" encoding="utf-8"?>
<!-- Generator: Adobe Illustrator 25.0.0, SVG Export Plug-In . SVG Version: 6.00 Build 0)  -->
<svg version="1.1" id="Layer_1" xmlns="http://www.w3.org/2000/svg" xmlns:xlink="http://www.w3.org/1999/xlink" x="0px" y="0px"
	 viewBox="0 0 1080 1080" style="enable-background:new 0 0 1080 1080;" xml:space="preserve">
<path d="M1064.72,412.08C1064.72,412.08,1064.72,412.08,1064.72,412.08c-12.27-50.51-31.78-98.9-57.99-143.83
	c-37.27-63.88-86.35-118.6-145.88-162.64C767.44,36.52,656.5,0,540,0c-32.59,0-65.3,2.95-97.25,8.76
	C352.21,25.22,266.74,65.1,195.6,124.07C91.03,210.76,23.35,332.27,5.04,466.21C1.7,490.68,0,515.5,0,540
	c0,96.14,25.58,190.54,73.99,272.98c46.81,79.72,113.72,146.56,193.52,193.29c0.01,0,0.01,0.01,0.02,0.01
	c45.28,26.51,94.04,46.2,144.95,58.53C454.09,1074.89,497,1080,540,1080c104.43,0,205.77-29.86,293.04-86.36
	c85.26-55.19,153.06-132.87,196.09-224.63C1062.89,697.04,1080,619.98,1080,540C1080,496.86,1074.86,453.83,1064.72,412.08z
	 M869.39,170.51c26.97,23.67,51.11,50.02,72.26,78.84l-42.53-10.57c-13.64-3.39-27.65,0.2-38.45,9.83
	c-10.79,9.63-16.71,23.84-16.22,38.98c0.02,0.63-0.27,1.23-0.76,1.57l-31.24,22.07c-0.53,0.37-1.19,0.39-1.74,0.06l-44-27.11
	c-3.91-2.41-5.93-7.41-4.91-12.16l9.9-45.73c1.06-4.9,5.05-8.41,9.69-8.55l37.28-1.12C843.68,215.86,864.5,196.1,869.39,170.51z
	 M267.29,900.85L261,948.33C125.8,856.95,43.03,703.28,43.03,540c0-14.45,0.65-29.02,1.94-43.55l28.79,5.03
	c7.25,1.27,14.66,1.91,22.01,1.91h14.58c20.22,0,40.3,7.18,56.54,20.2l22.1,17.72c1.89,1.52,3.12,3.84,3.37,6.37l3,29.98
	c0.48,4.85-2.62,9.25-7.08,10.03c-25.12,4.35-43.76,28.38-43.35,55.91l1.57,105.54c0.18,11.99,3.83,23.36,10.55,32.89l35.06,49.71
	c16.54,23.46,38.92,40.93,64.7,50.55C263.96,884.96,268.36,892.76,267.29,900.85z M405.89,1015.23
	c-36.4-10.1-71.49-24.32-104.67-42.42l8.66-65.36c4-30.15-12.42-59.24-39.04-69.17c-17.74-6.62-33.13-18.65-44.52-34.79
	l-35.06-49.71c-1.1-1.57-1.7-3.44-1.73-5.41l-1.57-105.53c-0.07-4.53,3-8.48,7.13-9.19c27.09-4.69,46.01-31.48,43.06-61l-3-29.98
	c-1.54-15.4-9.02-29.53-20.53-38.76l-22.1-17.72c-23.6-18.93-52.78-29.36-82.16-29.36H95.77c-5.06,0-10.16-0.44-15.15-1.31
	l-29.39-5.14c20.86-112.95,80.84-215.02,170.53-289.37c63.22-52.41,138.78-88.47,219.06-104.63c12.18,10.96,21.6,25.02,27.49,41.1
	l1.22,3.34c3.05,8.35,5.09,17.11,6.04,26.03l1.08,10.16c1.93,18.06-0.63,36.41-7.38,53.06l-11.7,28.83
	c-7.66,18.87-20.22,34.65-36.34,45.63l-14.58,9.93c-14.77,10.06-23.4,28.02-22.53,46.88l1.97,42.6c0.1,2.17-0.84,3.62-1.64,4.45
	c-0.8,0.83-2.17,1.77-4.18,1.57c-1.77-0.18-3.34-1.3-4.18-3L358.19,331c-6.2-12.46-16.98-21.78-29.58-25.59l-63.27-19.11
	c-16.63-5.02-34.44-3.53-50.16,4.2l-15.07,7.41c-31.7,15.59-49.02,53.55-41.19,90.25c3.1,14.53,9.89,27.8,19.64,38.34l41.11,44.48
	c2.32,2.5,4.54,5.18,6.61,7.94l28.18,37.61c12.45,16.61,30.9,26.12,50.65,26.12c0.07,0,0.13,0,0.2,0l76.78-0.25
	c0.02,0,0.04,0,0.07,0c7.86,0,15.2,4.56,19.16,11.91c9.22,17.1,24.77,29.29,42.66,33.44l28.77,6.67
	c6.33,1.47,11.73,5.83,14.83,11.98l13.89,27.56c5.57,11.05,14,19.9,24.37,25.61l65.3,35.9c5.37,2.96,8.47,9.28,7.73,15.75
	c-0.43,3.75-2.11,7.19-4.72,9.69l-24.8,23.74c-6.99,6.7-12.42,15.23-15.7,24.69l-5.41,15.6c-1.64,4.75-5.07,8.59-9.41,10.54
	l-26.42,11.85c-22.5,10.09-37.05,33.65-37.05,60.01c0,2.96-0.67,5.92-1.95,8.55L405.89,1015.23z M540,1033.45
	c-30.35,0-60.64-2.75-90.39-8.18l61.91-127.79c4.49-9.27,6.87-19.7,6.87-30.16c0-7.47,4.12-14.15,10.5-17.01l26.42-11.85
	c15.3-6.86,27.41-20.43,33.22-37.19l5.41-15.59c0.82-2.36,2.18-4.5,3.92-6.17l24.8-23.74c10.46-10.02,17.18-23.79,18.91-38.78
	c2.99-25.88-9.44-51.21-30.93-63.03l-65.3-35.9c-2.59-1.42-4.7-3.64-6.09-6.4l-13.89-27.56c-9.1-18.06-24.99-30.89-43.59-35.2
	l-28.77-6.67c-6.09-1.41-11.38-5.56-14.51-11.37c-11.65-21.6-33.22-35-56.33-35c-0.07,0-0.13,0-0.2,0l-76.78,0.25
	c-0.02,0-0.04,0-0.07,0c-6.72,0-13-3.24-17.23-8.88l-28.19-37.61c-3.01-4.01-6.24-7.9-9.61-11.54l-41.11-44.47
	c-4.04-4.37-6.85-9.86-8.14-15.89c-3.24-15.22,3.94-30.95,17.07-37.41l15.07-7.41c6.52-3.2,13.9-3.82,20.79-1.74l63.27,19.11
	c1.39,0.42,2.57,1.44,3.25,2.82l17.9,35.97c7.67,15.42,21.87,25.61,37.99,27.27c13.98,1.44,27.84-3.76,38-14.26
	c10.16-10.5,15.58-25.24,14.88-40.43l-1.97-42.6c-0.1-2.08,0.85-4.05,2.48-5.16l14.58-9.93c23.42-15.96,41.69-38.88,52.82-66.31
	l11.7-28.83c9.82-24.2,13.53-50.86,10.73-77.11l-1.08-10.16c-1.38-12.96-4.33-25.69-8.78-37.83l-1.22-3.34
	c-4.12-11.27-9.46-21.84-15.85-31.57h0.03c15.78-1.49,31.66-2.24,47.5-2.24c103.95,0,203.02,31.35,287.28,90.79l0.16,21.56
	c0.05,5.99-4.42,11-9.96,11.17l-37.27,1.12c-24.17,0.73-44.89,19.01-50.4,44.47l-9.9,45.72c-5.35,24.68,5.14,50.69,25.5,63.23
	l44,27.11c6.91,4.25,14.53,6.37,22.13,6.37c8.51,0,16.99-2.65,24.43-7.9l31.24-22.07c13.02-9.2,20.77-25.36,20.23-42.16
	c-0.01-0.24-0.03-0.89,0.61-1.46c0.64-0.57,1.22-0.42,1.43-0.37l48.25,11.99c1.2,0.3,2.42,0.55,3.66,0.73l34.11,5.3
	c14.84,26.71,27.1,54.68,36.67,83.59l-33.33-8.72c-1.32-0.35-2.69-0.65-4.04-0.88l-36.39-6.35c-39.51-6.89-79.7,7.62-107.45,38.86
	l-5.48,6.16c-16.23,18.27-27.22,41.06-31.77,65.92l-13.87,75.87c-4.84,26.45-2.15,53.5,7.77,78.23
	c17.32,43.18,54.93,73.32,98.15,78.65l6.74,0.84c18.49,2.29,37.52-0.1,55.03-6.89l22.95-8.9c4.08-1.59,8.68-0.2,11.42,3.47
	l3.02,4.02c1.4,1.88,2.21,4.25,2.28,6.66l1.09,40.46C905.88,923.62,730.57,1033.45,540,1033.45z M1017.85,676.09l-2.5-3.35
	c-10.31-13.78-25.68-21.37-41.46-21.37c-5.99,0-12.06,1.1-17.92,3.37l-22.95,8.89c-11.34,4.4-23.67,5.94-35.63,4.46l-6.74-0.83
	c-27.99-3.46-52.35-22.98-63.56-50.94c-6.43-16.02-8.17-33.54-5.04-50.66l13.88-75.87c2.94-16.1,10.06-30.86,20.57-42.69l5.48-6.16
	c17.98-20.22,43.99-29.63,69.59-25.16l36.39,6.35c0.26,0.05,0.51,0.1,0.78,0.17l57.42,15.01c7.19,33.66,10.82,68.14,10.82,102.69
	C1036.98,586.62,1030.56,632.15,1017.85,676.09z"/>
</svg>
