<svg width="45" height="45" viewBox="0 0 45 45" fill="none" xmlns="http://www.w3.org/2000/svg">
<ellipse cx="22.7654" cy="22.1408" rx="22.0528" ry="22.0528" fill="#1D9440"/>
<path d="M20.0302 35.3899C20.0302 35.8268 20.386 36.1813 20.8244 36.1813H27.5316C27.9705 36.1813 28.3258 35.8268 28.3258 35.3899V33.2231H20.0302V35.3899Z" fill="white"/>
<path d="M30.2736 13.0533C29.7117 13.0726 29.2741 13.5496 29.2741 14.1098V19.9573C29.2741 20.3756 28.9571 20.7378 28.5384 20.7677C28.2963 20.785 28.0743 20.6938 27.9182 20.5382C27.7747 20.3947 27.6857 20.1968 27.6857 19.9784V12.15C27.6857 11.576 27.2187 11.1106 26.6422 11.1106C26.3541 11.1106 26.0931 11.2272 25.9046 11.415C25.7161 11.6029 25.5991 11.863 25.5991 12.15V19.9784C25.5991 20.4152 25.2438 20.7698 24.8049 20.7698C24.5857 20.7698 24.3872 20.6811 24.2432 20.5382C24.0997 20.3947 24.0107 20.1968 24.0107 19.9784V10.2074C24.0107 9.63389 23.5443 9.16855 22.9682 9.16855C22.6802 9.16855 22.4197 9.28462 22.2307 9.47297C22.0417 9.66079 21.9252 9.9209 21.9252 10.2074V19.9784C21.9252 20.4152 21.5699 20.7698 21.131 20.7698C20.9118 20.7698 20.7132 20.6811 20.5698 20.5382C20.4257 20.3947 20.3368 20.1968 20.3368 19.9784V12.2786C20.3368 11.6492 19.8368 11.1186 19.2053 11.1107C18.8823 11.1067 18.5901 11.2356 18.3794 11.4456C18.1718 11.6525 18.0437 11.9379 18.0437 12.2534V20.6764C18.0357 20.6717 18.0283 20.6674 18.0204 20.6632L20.2907 23.2299H21.428C23.034 23.2299 24.3426 24.5272 24.3569 26.1279C24.3608 26.5629 24.018 26.9355 23.5816 26.9456C23.1341 26.9559 22.7687 26.5975 22.7687 26.1544C22.7687 25.4147 22.1672 24.8127 21.4281 24.8127H19.9318C19.7036 24.8127 19.4871 24.7151 19.3362 24.5447L16.9796 21.8802C16.1653 20.9595 14.7555 20.8731 13.8341 21.6873C13.6514 21.8488 13.634 22.127 13.7952 22.3098L20.0298 29.3811V31.6403H28.3254V29.3537L30.2383 26.8946C30.9536 25.9761 31.347 24.8291 31.347 23.6652V14.0857C31.347 13.5033 30.8632 13.0331 30.2736 13.0533Z" fill="white"/>
</svg>
