<?xml version="1.0" encoding="utf-8"?>
<!-- Generator: Adobe Illustrator 25.0.0, SVG Export Plug-In . SVG Version: 6.00 Build 0)  -->
<svg version="1.1" id="Layer_1" xmlns="http://www.w3.org/2000/svg" xmlns:xlink="http://www.w3.org/1999/xlink" x="0px" y="0px"
	 viewBox="0 0 1080 1080" style="enable-background:new 0 0 1080 1080;" xml:space="preserve">
<style type="text/css">
	.st0{fill:#FFFFFF;}
</style>
<path class="st0" d="M1008.67,490.43v272.16c0,24.04-4.51,48.02-14.57,69.93c-14.24,31.03-38.68,70.55-80.37,104.93
	c-77.01,64-165.98,70.81-211.27,69.4c-12.78-0.4-22.76-10.92-22.76-23.52V766.85c0-37.02-15.33-70.49-39.66-94.77
	c-23.49-23.16-55.44-37.96-90.91-39.3c-77.5-2.91-141.02,63.81-141.02,140.27v210.26c0,12.61-9.98,23.12-22.76,23.52
	c-45.24,1.41-134.03-5.42-211.27-69.4c-38.7-32.06-62.62-68.6-77.28-98.56c-11.74-23.98-17.66-50.19-17.66-76.81V490.43
	c0-20.67,8.86-40.39,24.4-54.28c124.04-110.9,248.1-221.79,372.16-332.69c38.76-34.65,97.64-34.65,136.39,0
	c124.34,110.9,248.41,221.79,372.22,332.69C999.84,450.06,1008.67,469.76,1008.67,490.43z"/>
</svg>
