<?xml version="1.0" encoding="utf-8"?>
<!-- Generator: Adobe Illustrator 25.0.0, SVG Export Plug-In . SVG Version: 6.00 Build 0)  -->
<svg version="1.1" id="Layer_1" xmlns="http://www.w3.org/2000/svg" xmlns:xlink="http://www.w3.org/1999/xlink" x="0px" y="0px"
	 viewBox="0 0 1080 1080" style="enable-background:new 0 0 1080 1080;" xml:space="preserve">
<style type="text/css">
	.st0{fill-rule:evenodd;clip-rule:evenodd;fill:#393939;}
</style>
<path class="st0" d="M0.23,540c0-298.03,241.92-540,540-540c298.62,0,540,241.97,540,540c0,298.13-241.38,540-540,540
	C242.15,1080,0.23,838.13,0.23,540z M492.71,335.34c0-25.87,21.6-47.52,47.52-47.52c25.92,0,46.98,21.65,46.98,47.52v238.68
	c0,25.97-21.06,46.98-46.98,46.98c-25.92,0-47.52-21.01-47.52-46.98V335.34z M540.76,792.77c-26.46,0-47.52-21.6-47.52-47.52
	s21.06-46.98,46.98-46.98c26.46,0,47.52,21.06,47.52,46.98S566.68,792.77,540.76,792.77z"/>
</svg>
