<svg width="71" height="60" viewBox="0 0 71 60" fill="none" xmlns="http://www.w3.org/2000/svg">
<path d="M14.9171 14.0625C16.0493 14.0625 16.9671 13.2755 16.9671 12.3047C16.9671 7.4584 21.5651 3.51562 27.2169 3.51562C32.8686 3.51562 37.4666 7.4584 37.4666 12.3047C37.4666 13.2755 38.3845 14.0625 39.5166 14.0625C40.6487 14.0625 41.5666 13.2755 41.5666 12.3047C41.5666 5.51988 35.1293 0 27.2169 0C19.3044 0 12.8672 5.51988 12.8672 12.3047C12.8672 13.2755 13.785 14.0625 14.9171 14.0625Z" fill="#1D9440"/>
<path d="M22.2002 59.8145C22.4849 59.9365 22.7987 60 23.117 60H51.8163C52.3601 60 52.8814 59.8148 53.2659 59.4851C56.297 56.886 57.9662 53.4304 57.9662 49.7548V33.6328C57.9662 30.725 55.2074 28.3594 51.8163 28.3594C51.0159 28.3594 50.2517 28.4926 49.5496 28.7321C48.8383 26.4943 46.4486 24.8438 43.6165 24.8438C42.8161 24.8438 42.0518 24.977 41.3498 25.2165C40.6385 22.9787 38.2488 21.3281 35.4167 21.3281C34.6981 21.3281 34.0084 21.4354 33.3667 21.6305V12.3047C33.3667 9.39691 30.6079 7.03125 27.2169 7.03125C23.8258 7.03125 21.067 9.39691 21.067 12.3047V31.875H19.017C15.626 31.875 12.8672 34.2407 12.8672 37.1484V46.8654C12.8672 49.556 13.7391 52.1879 15.3888 54.4766C17.0383 56.7654 19.3937 58.6111 22.2002 59.8145ZM16.9671 37.1484C16.9671 36.1792 17.8867 35.3906 19.017 35.3906H21.067V42.9476C21.067 43.9184 21.9848 44.7054 23.117 44.7054C24.2491 44.7054 25.1669 43.9184 25.1669 42.9476V12.3047C25.1669 11.3354 26.0865 10.5469 27.2169 10.5469C28.3472 10.5469 29.2668 11.3354 29.2668 12.3047V37.1484C29.2668 38.1192 30.1847 38.9062 31.3168 38.9062C32.4489 38.9062 33.3667 38.1192 33.3667 37.1484V26.6016C33.3667 25.6323 34.2863 24.8438 35.4167 24.8438C36.547 24.8438 37.4666 25.6323 37.4666 26.6016V37.1484C37.4666 38.1192 38.3845 38.9062 39.5166 38.9062C40.6487 38.9062 41.5666 38.1192 41.5666 37.1484V30.1172C41.5666 29.1479 42.4862 28.3594 43.6165 28.3594C44.7469 28.3594 45.6665 29.1479 45.6665 30.1172V37.1484C45.6665 38.1192 46.5843 38.9062 47.7164 38.9062C48.8485 38.9062 49.7664 38.1192 49.7664 37.1484V33.6328C49.7664 32.6636 50.686 31.875 51.8163 31.875C52.9467 31.875 53.8663 32.6636 53.8663 33.6328V49.7548C53.8663 52.2552 52.8286 54.619 50.9282 56.4844H23.6195C19.5038 54.5598 16.9671 50.9104 16.9671 46.8654V37.1484Z" fill="#1D9440"/>
</svg>
