<?xml version="1.0" encoding="utf-8"?>
<!-- Generator: Adobe Illustrator 25.0.0, SVG Export Plug-In . SVG Version: 6.00 Build 0)  -->
<svg version="1.1" id="Layer_1" xmlns="http://www.w3.org/2000/svg" xmlns:xlink="http://www.w3.org/1999/xlink" x="0px" y="0px"
	 viewBox="0 0 1080 1080" style="enable-background:new 0 0 1080 1080;" xml:space="preserve">
<style type="text/css">
	.st0{fill:#FFFFFF;}
</style>
<path class="st0" d="M797.09,273.2c-159.16-11.36-318.31-11.36-477.47,0c-20.69,1.62-38.2-14.61-39.79-34.09c0-1.62,0-3.25,0-4.87
	c3.18-40.58,6.37-82.78,9.55-123.36c3.18-37.33,31.83-68.17,68.44-73.04c133.69-16.23,268.98-16.23,402.67,0
	c36.61,4.87,65.25,35.71,68.44,73.04c3.18,40.58,6.36,82.78,9.55,123.36c1.59,21.1-14.32,38.95-35.02,40.58
	C800.27,273.2,798.68,273.2,797.09,273.2z M951.47,531.28c-39.79-60.05-77.99-120.11-116.18-180.16
	c-184.62-11.36-369.25-11.36-553.87,0c-38.2,60.05-77.99,120.11-116.18,180.16c-17.51,25.97-25.47,56.81-25.47,87.65
	c1.59,82.78,7.96,165.56,17.51,248.34c9.55,87.65,76.4,155.82,160.75,168.8c159.16,24.34,321.5,24.34,479.07,0
	c84.35-12.99,151.2-82.78,160.75-168.8c9.55-82.78,15.92-165.56,17.51-248.34C976.93,588.09,968.98,557.25,951.47,531.28z
	 M714.32,735.79H591.77v124.98c0,19.48-15.92,35.71-35.02,35.71c-19.1,0-35.01-16.23-35.01-35.71V735.79H399.19
	c-19.1,0-35.01-16.23-35.01-35.71c0-19.48,15.92-35.71,35.01-35.71h122.55V539.39c0-19.48,15.92-35.71,35.01-35.71
	c19.1,0,35.02,16.23,35.02,35.71v124.98h122.55c19.1,0,35.02,16.23,35.02,35.71C749.34,719.56,733.42,735.79,714.32,735.79z"/>
</svg>
