<?xml version="1.0" encoding="utf-8"?>
<!-- Generator: Adobe Illustrator 25.0.0, SVG Export Plug-In . SVG Version: 6.00 Build 0)  -->
<svg version="1.1" id="Layer_1" xmlns="http://www.w3.org/2000/svg" xmlns:xlink="http://www.w3.org/1999/xlink" x="0px" y="0px"
	 viewBox="0 0 1080 1080" style="enable-background:new 0 0 1080 1080;" xml:space="preserve">
<style type="text/css">
	.st0{fill-rule:evenodd;clip-rule:evenodd;fill:#393939;}
</style>
<path class="st0" d="M794.4,76.43c69.07,0,135.52,27.3,184.4,76.28c48.93,48.88,76.28,114.81,76.28,183.83v406.91
	c0,143.71-116.92,260.11-260.68,260.11H285.55c-143.76,0-260.63-116.41-260.63-260.11V336.54c0-143.71,116.36-260.11,260.63-260.11
	H794.4z M876.35,413.29l4.12-4.12c12.31-14.94,12.31-36.57-0.57-51.51c-7.16-7.67-17-12.36-27.25-13.39
	c-10.82-0.57-21.12,3.09-28.9,10.3L591.51,540c-29.87,24.78-72.68,24.78-103.02,0L256.71,354.57c-16.02-11.85-38.17-10.3-51.51,3.61
	c-13.91,13.91-15.45,36.06-3.66,51.51l6.75,6.7l234.36,182.85c28.84,22.66,63.82,35.03,100.44,35.03
	c36.52,0,72.11-12.36,100.9-35.03L876.35,413.29z"/>
</svg>
