<svg width="70" height="15" viewBox="0 0 70 15" fill="none" xmlns="http://www.w3.org/2000/svg">
<path d="M4.56058 1.44366H0V14.5184H2.82165V10.9093H4.54418C7.23459 10.9093 9.33443 8.8259 9.33443 6.1683C9.33443 3.51069 7.23459 1.44366 4.56058 1.44366ZM2.82165 4.08487H4.38013C5.6105 4.08487 6.49637 4.95433 6.49637 6.1683C6.49637 7.36586 5.59409 8.26813 4.38013 8.26813H2.82165V4.08487Z" fill="black"/>
<path d="M17.8978 4.80667C17.1104 4.11766 16.044 3.72394 14.8793 3.72394C12.3365 3.72394 9.6297 5.65972 9.6297 9.2196C9.6297 12.6482 12.2709 14.6989 14.8465 14.6989C16.0112 14.6989 17.1104 14.2723 17.8978 13.5505V14.502H20.7031V3.9208H17.8978V4.80667ZM15.2238 12.1069C13.6489 12.1069 12.4021 10.8273 12.4021 9.2032C12.4021 7.59551 13.6489 6.33233 15.2238 6.33233C16.8151 6.33233 18.0126 7.5627 18.0126 9.2032C18.0126 10.8601 16.8151 12.1069 15.2238 12.1069Z" fill="black"/>
<path d="M26.0675 0.590576L23.2458 2.50996V3.93719H21.5233V6.49636H23.2458V10.0562C23.2458 13.4193 24.2958 14.502 27.5603 14.502H28.1181V11.828H27.8884C26.2315 11.828 26.0675 11.6639 26.0675 10.0234V6.47996H28.1181V3.92079H26.0675V0.590576Z" fill="black"/>
<path d="M34.2372 3.93719C33.2201 3.93719 32.4326 4.24889 31.8913 4.87228V3.93719H29.1024V14.5184H31.9077V8.89149C31.9077 7.33302 32.449 6.66042 33.745 6.66042C34.3356 6.66042 34.6801 6.80806 35.0082 7.02133L35.2543 7.18538L36.3206 4.51137L36.1402 4.41294C35.5824 4.10125 34.959 3.93719 34.2372 3.93719Z" fill="black"/>
<path d="M38.2892 0C37.2721 0 36.5831 0.68901 36.5831 1.70612C36.5831 2.73963 37.2393 3.39583 38.2892 3.39583C39.3227 3.39583 39.9953 2.73963 39.9953 1.70612C39.9953 0.672605 39.3227 0 38.2892 0Z" fill="black"/>
<path d="M39.7 3.93719H36.8784V14.5184H39.7V3.93719Z" fill="black"/>
<path d="M46.0323 3.74036C42.9646 3.74036 40.5695 6.15189 40.5695 9.23602C40.5695 12.2545 43.0302 14.7153 46.0323 14.7153C49.0344 14.7153 51.4952 12.2545 51.4952 9.23602C51.5116 6.15189 49.1 3.74036 46.0323 3.74036ZM46.0323 12.0577C44.5231 12.0577 43.3255 10.8109 43.3255 9.23602C43.3255 7.64474 44.5067 6.39796 46.0323 6.39796C47.5416 6.39796 48.7391 7.64474 48.7391 9.23602C48.7391 10.8273 47.558 12.0577 46.0323 12.0577Z" fill="black"/>
<path d="M57.9423 3.74036C54.8746 3.74036 52.4795 6.15189 52.4795 9.23602C52.4795 12.2545 54.9402 14.7153 57.9423 14.7153C60.9609 14.7153 63.4052 12.2545 63.4052 9.23602C63.4052 6.15189 61.0101 3.74036 57.9423 3.74036ZM57.9423 12.0577C56.4331 12.0577 55.2355 10.8109 55.2355 9.23602C55.2355 7.64474 56.4167 6.39796 57.9423 6.39796C59.4516 6.39796 60.6492 7.64474 60.6492 9.23602C60.6328 10.8273 59.4516 12.0577 57.9423 12.0577Z" fill="black"/>
<path d="M70 6.51278V3.95361H67.9494V0.606995L65.1277 2.50997V3.9372H63.4052V6.49638H65.1277V10.0563C65.1277 13.4193 66.1777 14.502 69.4422 14.502H70V11.828H69.7703C68.1134 11.828 67.9494 11.6639 67.9494 10.0234V6.47997H70V6.51278Z" fill="black"/>
</svg>
