<?xml version="1.0" encoding="utf-8"?>
<!-- Generator: Adobe Illustrator 25.2.0, SVG Export Plug-In . SVG Version: 6.00 Build 0)  -->
<svg version="1.1" id="Layer_1" xmlns="http://www.w3.org/2000/svg" xmlns:xlink="http://www.w3.org/1999/xlink" x="0px" y="0px"
	 viewBox="0 0 22 21" style="enable-background:new 0 0 22 21;" xml:space="preserve">
<style type="text/css">
	.st0{fill:#FFFFFF;}
</style>
<g>
	<path class="st0" d="M7.2,18.7c-0.8-0.4-1.5-0.9-2.2-1.5l0,0v-3.5l0.1,0.1c0.5,0.9,1.3,1.7,2.2,2.3l0,0L7.2,18.7L7.2,18.7z"/>
	<path class="st0" d="M5.1,13.8v3.4c0.6,0.6,1.4,1.1,2.2,1.5v-2.5C6.4,15.6,5.6,14.8,5.1,13.8z"/>
	<path class="st0" d="M1.8,20.8V10.1c0-5.5,4.4-9.9,9.7-9.9h0c2.7,0,5.2,1.1,7.1,3.1c1.9,2,2.8,4.6,2.7,7.3
		c-0.1,2.3-1.1,4.5-2.7,6.1c-1.6,1.7-3.7,2.7-6,3c-0.4,0-0.8,0.1-1.1,0.1c-0.7,0-1.5-0.1-2.2-0.2l0,0v-2.3l0,0
		c0.7,0.2,1.4,0.3,2.2,0.3c0.2,0,0.4,0,0.6,0c3.7-0.3,6.6-3.3,6.9-6.9c0.2-2.1-0.5-4.2-2-5.7c-1.4-1.5-3.4-2.4-5.5-2.4
		c0,0-0.1,0-0.1,0C7.4,2.4,4,5.9,4,10.1v8.5C4,19.8,3.1,20.8,1.8,20.8L1.8,20.8L1.8,20.8z"/>
	<path class="st0" d="M9.4,19.5c-0.7-0.2-1.5-0.4-2.2-0.8l0,0v-2.6l0.1,0c0.7,0.5,1.4,0.8,2.2,1l0,0L9.4,19.5L9.4,19.5z"/>
	<path class="st0" d="M9.4,16.1c-0.8-0.3-1.5-0.7-2.2-1.3l0,0V9.9h0.1c0,1.5,0.8,3,2.1,3.7l0,0L9.4,16.1L9.4,16.1z"/>
	<path class="st0" d="M5.1,20.8V10.1c0-1.7,0.6-3.3,1.8-4.6c1.2-1.3,2.8-2,4.5-2.1c0.1,0,0.2,0,0.3,0c1.8,0,3.5,0.8,4.8,2.1
		c1.2,1.3,1.9,3.1,1.7,4.9c-0.1,1.6-0.8,3.1-2,4.2c-1.2,1.1-2.7,1.8-4.3,1.9c-0.1,0-0.2,0-0.3,0c-0.7,0-1.5-0.1-2.2-0.4l0,0v-2.5
		l0,0c0.7,0.4,1.4,0.6,2.1,0.6c0.2,0,0.4,0,0.6,0c1.9-0.2,3.4-1.8,3.7-3.7c0.2-1.2-0.2-2.5-1-3.4c-0.8-0.9-2-1.5-3.2-1.5
		c-0.1,0-0.2,0-0.4,0C9,5.8,7.3,7.8,7.3,10v8.6C7.3,19.8,6.3,20.8,5.1,20.8L5.1,20.8L5.1,20.8z"/>
	<path class="st0" d="M11.6,13.2c-1.8,0-3.3-1.5-3.3-3.3c0-1.8,1.5-3.3,3.3-3.3c1.8,0,3.3,1.5,3.3,3.3
		C14.9,11.8,13.4,13.2,11.6,13.2z M11.6,8.9c-0.6,0-1,0.5-1,1.1s0.5,1.1,1,1.1c0.6,0,1-0.5,1-1.1S12.2,8.9,11.6,8.9z"/>
</g>
</svg>
