<?xml version="1.0" encoding="utf-8"?>
<!-- Generator: Adobe Illustrator 25.2.0, SVG Export Plug-In . SVG Version: 6.00 Build 0)  -->
<svg version="1.1" id="Layer_1" xmlns="http://www.w3.org/2000/svg" xmlns:xlink="http://www.w3.org/1999/xlink" x="0px" y="0px"
	 viewBox="0 0 21 21" style="enable-background:new 0 0 21 21;" xml:space="preserve">
<style type="text/css">
	.st0{fill:#FFFFFF;}
</style>
<g>
	<path class="st0" d="M6.2,18.7c-0.8-0.4-1.5-0.9-2.2-1.5l0,0v-3.5L4,13.8c0.5,0.9,1.3,1.7,2.2,2.3l0,0L6.2,18.7L6.2,18.7z"/>
	<path class="st0" d="M4,13.9v3.4c0.6,0.6,1.4,1.1,2.2,1.5v-2.5C5.3,15.6,4.6,14.8,4,13.9z"/>
	<path class="st0" d="M0.7,20.8V10.1c0-5.5,4.4-9.9,9.7-9.9h0c2.7,0,5.2,1.1,7.1,3.1c1.9,2,2.8,4.6,2.7,7.3
		c-0.1,2.3-1.1,4.5-2.7,6.1c-1.6,1.7-3.7,2.7-6,3c-0.4,0-0.8,0.1-1.1,0.1c-0.7,0-1.5-0.1-2.2-0.2l0,0v-2.3l0,0
		c0.7,0.2,1.4,0.3,2.2,0.3c0.2,0,0.4,0,0.6,0c3.7-0.3,6.6-3.3,6.9-6.9c0.2-2.1-0.5-4.2-2-5.7c-1.4-1.5-3.4-2.4-5.5-2.4
		c0,0-0.1,0-0.1,0C6.3,2.5,3,5.9,3,10.1v8.5C3,19.8,2,20.8,0.7,20.8L0.7,20.8L0.7,20.8z"/>
	<path class="st0" d="M8.3,19.5c-0.7-0.2-1.5-0.4-2.2-0.8l0,0v-2.6l0.1,0c0.7,0.5,1.4,0.8,2.2,1l0,0L8.3,19.5L8.3,19.5z"/>
	<path class="st0" d="M8.3,16.1c-0.8-0.3-1.5-0.7-2.2-1.3l0,0V10h0.1c0,1.5,0.8,3,2.1,3.7l0,0L8.3,16.1L8.3,16.1z"/>
	<path class="st0" d="M4,20.8V10.1c0-1.7,0.6-3.3,1.8-4.6c1.2-1.3,2.8-2,4.5-2.1c0.1,0,0.2,0,0.3,0c1.8,0,3.5,0.8,4.8,2.1
		c1.2,1.3,1.9,3.1,1.7,4.9c-0.1,1.6-0.8,3.1-2,4.2c-1.2,1.1-2.7,1.8-4.3,1.9c-0.1,0-0.2,0-0.3,0c-0.7,0-1.5-0.1-2.2-0.4l0,0v-2.5
		l0,0c0.7,0.4,1.4,0.6,2.1,0.6c0.2,0,0.4,0,0.6,0c1.9-0.2,3.4-1.8,3.7-3.7c0.2-1.2-0.2-2.5-1-3.4c-0.8-0.9-2-1.5-3.2-1.5
		c-0.1,0-0.2,0-0.4,0C7.9,5.8,6.2,7.8,6.2,10v8.6C6.2,19.8,5.2,20.8,4,20.8L4,20.8L4,20.8z"/>
	<path class="st0" d="M10.5,13.2c-1.8,0-3.3-1.5-3.3-3.3c0-1.8,1.5-3.3,3.3-3.3c1.8,0,3.3,1.5,3.3,3.3
		C13.8,11.8,12.3,13.2,10.5,13.2z M10.5,8.9c-0.6,0-1,0.5-1,1.1s0.5,1.1,1,1.1c0.6,0,1-0.5,1-1.1S11.1,8.9,10.5,8.9z"/>
</g>
</svg>
