<svg width="23" height="25" viewBox="0 0 23 25" fill="none" xmlns="http://www.w3.org/2000/svg">
<path d="M22.3441 17.6659L17.3127 15.3221C17.0978 15.2225 16.8589 15.2015 16.6321 15.2623C16.4052 15.3231 16.2027 15.4623 16.0549 15.659L13.8267 18.618C10.3298 16.8259 7.51565 13.767 5.8669 9.96604L8.58921 7.54412C8.77055 7.38381 8.89891 7.16364 8.95483 6.91694C9.01076 6.67025 8.99123 6.41046 8.89918 6.17691L6.74289 0.708066C6.64187 0.456308 6.46319 0.250756 6.23767 0.126854C6.01215 0.00295179 5.75392 -0.031534 5.50752 0.0293429L0.835561 1.20124C0.597997 1.26087 0.386041 1.40626 0.234287 1.61369C0.0825342 1.82112 -5.47252e-05 2.07833 2.72061e-08 2.34335C2.72061e-08 14.868 9.33942 25 20.8441 25C21.088 25.0002 21.3247 24.9104 21.5157 24.7455C21.7066 24.5805 21.8404 24.3501 21.8953 24.0918L22.9734 19.0136C23.0291 18.7444 22.9967 18.4626 22.8818 18.2167C22.767 17.9707 22.5768 17.7759 22.3441 17.6659Z" fill="#06B160"/>
</svg>
