<svg width="21" height="21" viewBox="0 0 21 21" fill="none" xmlns="http://www.w3.org/2000/svg">
<path d="M10.6069 21C10.4539 21.001 10.3009 20.9701 10.1641 20.9094L5.7157 18.9531C4.45219 18.396 3.46475 17.7721 2.69371 17.0451C1.00612 15.4554 0.0684293 13.4146 0.0522622 11.2977L3.023e-05 4.33017C-0.00494425 3.52602 0.604429 2.80425 1.51725 2.53345L9.68534 0.11175C10.1704 -0.0344583 10.7113 -0.0375472 11.205 0.104543L19.4042 2.44285C20.322 2.70334 20.9426 3.41997 20.9476 4.22309L20.9998 11.1958C21.016 13.3096 20.1094 15.3596 18.4491 16.9659C17.6855 17.7031 16.7068 18.3363 15.457 18.9026L11.0496 20.9052C10.9115 20.967 10.7598 20.9989 10.6069 21Z" fill="#393939"/>
</svg>
