<svg width="22" height="24" viewBox="0 0 22 24" fill="none" xmlns="http://www.w3.org/2000/svg">
<path d="M11.1119 23.1C10.9517 23.1011 10.7915 23.0671 10.6481 23.0003L5.98788 20.8484C4.6642 20.2356 3.62974 19.5493 2.82198 18.7497C1.05403 17.0009 0.0716878 14.7561 0.0547509 12.4275L3.16696e-05 4.76319C-0.00517969 3.87862 0.633211 3.08467 1.5895 2.7868L10.1465 0.122925C10.6547 -0.0379042 11.2214 -0.041302 11.7386 0.114997L20.3282 2.68713C21.2897 2.97368 21.9398 3.76197 21.9451 4.6454L21.9998 12.3154C22.0167 14.6406 21.0669 16.8956 19.3277 18.6624C18.5277 19.4734 17.5024 20.1699 16.193 20.7929L11.5758 22.9958C11.4311 23.0637 11.2722 23.0988 11.1119 23.1Z" fill="#393939"/>
<path d="M11.056 17.6C10.9758 17.6006 10.8957 17.5828 10.8241 17.5478L8.49394 16.4206C7.8321 16.0996 7.31487 15.7401 6.91099 15.3212C6.02701 14.4052 5.53584 13.2294 5.52738 12.0096L5.50002 7.995C5.49741 7.53166 5.81661 7.11578 6.29475 6.95975L10.5733 5.56439C10.8273 5.48015 11.1107 5.47837 11.3693 5.56024L15.6641 6.90754C16.1449 7.05764 16.4699 7.47055 16.4725 7.9333L16.4999 11.9509C16.5084 13.1689 16.0335 14.3501 15.1638 15.2756C14.7639 15.7003 14.2512 16.0652 13.5965 16.3915L11.2879 17.5454C11.2156 17.581 11.1361 17.5994 11.056 17.6Z" fill="white"/>
</svg>
