<?xml version="1.0" encoding="utf-8"?>
<!-- Generator: Adobe Illustrator 25.2.0, SVG Export Plug-In . SVG Version: 6.00 Build 0)  -->
<svg version="1.1" id="Layer_1" xmlns="http://www.w3.org/2000/svg" xmlns:xlink="http://www.w3.org/1999/xlink" x="0px" y="0px"
	 viewBox="0 0 22 21" style="enable-background:new 0 0 22 21;" xml:space="preserve">
<style type="text/css">
	.st0{fill-rule:evenodd;clip-rule:evenodd;fill:#FFFFFF;}
</style>
<path class="st0" d="M19.3,7.5l0.8,0.8c0.6,0.6,0.9,1.4,0.9,2.2c0,0.8-0.3,1.6-0.9,2.2c0,0,0,0,0,0c0,0,0,0,0,0l-0.7,0.7
	c-0.3,0.3-0.5,0.7-0.5,1.1v1.1c0,1.7-1.4,3.2-3.2,3.2h-1.1c-0.4,0-0.8,0.2-1.1,0.5l-0.8,0.8c-0.6,0.6-1.4,0.9-2.2,0.9
	s-1.6-0.3-2.2-0.9l-0.8-0.8c-0.3-0.3-0.7-0.5-1.1-0.5H5.3c-1.7,0-3.2-1.4-3.2-3.2v-1.1c0-0.4-0.2-0.8-0.5-1.1l-0.8-0.7
	c-1.2-1.2-1.2-3.2,0-4.5l0.8-0.8C2,7.2,2.1,6.8,2.1,6.4V5.3c0-1.7,1.4-3.2,3.2-3.2h1.1c0.4,0,0.8-0.2,1.1-0.5l0.8-0.8
	c1.2-1.2,3.2-1.2,4.5,0l0.8,0.8c0.3,0.3,0.7,0.5,1.1,0.5h1.1c1.7,0,3.2,1.4,3.2,3.2v1.1C18.9,6.8,19,7.2,19.3,7.5z M7.8,14.1
	c0.3,0,0.5-0.1,0.7-0.3l5.4-5.4c0.4-0.4,0.4-0.9,0-1.3c-0.4-0.4-0.9-0.4-1.3,0l-5.4,5.4c-0.4,0.4-0.4,0.9,0,1.3
	C7.3,14,7.6,14.1,7.8,14.1z M12.3,13.2c0,0.5,0.4,0.9,0.9,0.9c0.5,0,0.9-0.4,0.9-0.9c0-0.5-0.4-0.9-0.9-0.9
	C12.7,12.3,12.3,12.7,12.3,13.2z M7.8,6.9c0.5,0,0.9,0.4,0.9,0.9c0,0.5-0.4,0.9-0.9,0.9S6.9,8.3,6.9,7.8C6.9,7.3,7.3,6.9,7.8,6.9z"
	/>
</svg>
