<svg width="22" height="21" viewBox="0 0 22 21" fill="none" xmlns="http://www.w3.org/2000/svg">
<path fill-rule="evenodd" clip-rule="evenodd" d="M19.3236 7.50438L20.0801 8.26056C20.6789 8.84869 21.0046 9.64688 21.0046 10.4871C21.0151 11.3273 20.6894 12.1265 20.1011 12.7241C20.0941 12.7318 20.0871 12.7385 20.0801 12.7453C20.0766 12.7487 20.0731 12.7521 20.0696 12.7556L19.3236 13.5013C19.0294 13.7953 18.8613 14.1944 18.8613 14.6156V15.6963C18.8613 17.4397 17.443 18.8586 15.699 18.8586H14.6168C14.1966 18.8586 13.7973 19.0255 13.5032 19.3196L12.7467 20.0758C12.1268 20.6965 11.3179 21 10.5089 21C9.6999 21 8.89092 20.6965 8.27105 20.0873L7.5041 19.3196C7.20992 19.0255 6.81068 18.8586 6.39043 18.8586H5.30829C3.56426 18.8586 2.14592 17.4397 2.14592 15.6963V14.6156C2.14592 14.1944 1.97782 13.7953 1.68364 13.4908L0.927192 12.7451C-0.302037 11.5174 -0.312544 9.51034 0.916686 8.27211L1.68364 7.50438C1.97782 7.21031 2.14592 6.81122 2.14592 6.38062V5.30937C2.14592 3.56597 3.56426 2.14919 5.30829 2.14919H6.39043C6.81068 2.14919 7.20992 1.9801 7.5041 1.68604L8.26054 0.929862C9.48977 -0.308374 11.4965 -0.308374 12.7362 0.92041L13.5032 1.68604C13.7973 1.9801 14.1966 2.14919 14.6168 2.14919H15.699C17.443 2.14919 18.8613 3.56597 18.8613 5.30937V6.39217C18.8613 6.81122 19.0294 7.21031 19.3236 7.50438ZM7.79826 14.1209C8.05041 14.1209 8.28155 14.0264 8.44965 13.8478L13.8498 8.45064C14.2071 8.09356 14.2071 7.50437 13.8498 7.14729C13.4926 6.79126 12.9148 6.79126 12.5576 7.14729L7.15738 12.5455C6.80017 12.9026 6.80017 13.4908 7.15738 13.8478C7.32548 14.0264 7.55662 14.1209 7.79826 14.1209ZM12.2844 13.1967C12.2844 13.7113 12.6942 14.1209 13.209 14.1209C13.7133 14.1209 14.123 13.7113 14.123 13.1967C14.123 12.6936 13.7133 12.283 13.209 12.283C12.6942 12.283 12.2844 12.6936 12.2844 13.1967ZM7.80877 6.88475C8.31307 6.88475 8.72281 7.29434 8.72281 7.79846C8.72281 8.31413 8.31307 8.72267 7.80877 8.72267C7.30447 8.72267 6.88422 8.31413 6.88422 7.79846C6.88422 7.29434 7.30447 6.88475 7.80877 6.88475Z" fill="white"/>
</svg>
