<?xml version="1.0" encoding="utf-8"?>
<!-- Generator: Adobe Illustrator 25.0.0, SVG Export Plug-In . SVG Version: 6.00 Build 0)  -->
<svg version="1.1" id="Layer_1" xmlns="http://www.w3.org/2000/svg" xmlns:xlink="http://www.w3.org/1999/xlink" x="0px" y="0px"
	 viewBox="0 0 1080 1080" style="enable-background:new 0 0 1080 1080;" xml:space="preserve">
<style type="text/css">
	.st0{fill:#FFFFFF;}
</style>
<path class="st0" d="M811.97,670.5c-48.04,0-92.19,15.94-127.04,42.61L467.17,582.5c6.45-27.99,6.45-57,0-84.99l217.76-130.61
	c34.85,26.67,79,42.61,127.04,42.61c112.65,0,203.98-87.64,203.98-195.75S924.62,17.99,811.97,17.99
	c-112.65,0-203.98,87.64-203.98,195.75c0,14.6,1.68,28.81,4.84,42.5L395.07,386.86c-34.85-26.67-79-42.61-127.04-42.61
	c-112.65,0-203.98,87.64-203.98,195.75s91.32,195.75,203.98,195.75c48.04,0,92.19-15.94,127.04-42.61l217.76,130.61
	c-3.22,13.96-4.84,28.2-4.84,42.5c0,108.11,91.32,195.75,203.98,195.75c112.65,0,203.98-87.64,203.98-195.75
	S924.62,670.5,811.97,670.5z"/>
</svg>
