<?xml version="1.0" encoding="utf-8"?>
<!-- Generator: Adobe Illustrator 25.0.0, SVG Export Plug-In . SVG Version: 6.00 Build 0)  -->
<svg version="1.1" id="Layer_1" xmlns="http://www.w3.org/2000/svg" xmlns:xlink="http://www.w3.org/1999/xlink" x="0px" y="0px"
	 viewBox="0 0 1080 1080" style="enable-background:new 0 0 1080 1080;" xml:space="preserve">
<style type="text/css">
	.st0{fill:#393939;}
</style>
<path class="st0" d="M545.5,1080c-7.87,0.05-15.74-1.54-22.77-4.66L293.95,974.73c-64.98-28.65-115.76-60.74-155.42-98.13
	C51.74,794.85,3.52,689.89,2.69,581.02L0,222.69c-0.26-41.36,31.08-78.48,78.03-92.4L498.1,5.75c24.95-7.52,52.76-7.68,78.15-0.37
	l421.67,120.26c47.2,13.4,79.12,50.25,79.37,91.56l2.68,358.6c0.83,108.71-45.79,214.14-131.18,296.75
	c-39.27,37.91-89.6,70.48-153.88,99.6l-226.67,102.99C561.16,1078.3,553.36,1079.94,545.5,1080z"/>
</svg>
