<svg width="23" height="22" viewBox="0 0 23 22" fill="none" xmlns="http://www.w3.org/2000/svg">
<path d="M18.1584 13.2975C17.867 13.5799 17.7331 13.9882 17.7995 14.3888L18.7996 19.9237C18.884 20.3929 18.686 20.8676 18.2934 21.1388C17.9086 21.42 17.3967 21.4538 16.9771 21.2288L11.9945 18.63C11.8212 18.5378 11.6289 18.4883 11.432 18.4826H11.1271C11.0214 18.4984 10.9179 18.5321 10.8234 18.5839L5.83962 21.195C5.59324 21.3188 5.31424 21.3626 5.04087 21.3188C4.37487 21.1928 3.93049 20.5583 4.03962 19.8889L5.04087 14.3539C5.10724 13.95 4.97337 13.5394 4.68199 13.2525L0.619619 9.315C0.279869 8.98537 0.161744 8.49038 0.316994 8.04375C0.467744 7.59825 0.852494 7.27313 1.31712 7.2L6.90837 6.38888C7.33362 6.345 7.70712 6.08625 7.89837 5.70375L10.3621 0.6525C10.4206 0.54 10.496 0.4365 10.5871 0.34875L10.6884 0.27C10.7412 0.2115 10.802 0.163125 10.8695 0.12375L10.9921 0.07875L11.1834 0H11.657C12.08 0.043875 12.4524 0.297 12.647 0.675L15.1434 5.70375C15.3234 6.07163 15.6732 6.327 16.0771 6.38888L21.6684 7.2C22.1409 7.2675 22.5357 7.59375 22.6921 8.04375C22.8395 8.49487 22.7124 8.98987 22.3659 9.315L18.1584 13.2975Z" fill="#393939"/>
</svg>
