<svg width="26" height="25" viewBox="0 0 26 25" fill="none" xmlns="http://www.w3.org/2000/svg">
<path d="M20.6655 15.1109C20.3293 15.4318 20.1748 15.8959 20.2514 16.351L21.4055 22.6408C21.5028 23.1739 21.2743 23.7134 20.8213 24.0215C20.3773 24.3411 19.7866 24.3795 19.3024 24.1238L13.5528 21.1707C13.3529 21.0658 13.1309 21.0096 12.9037 21.0032H12.5519C12.4299 21.0211 12.3104 21.0594 12.2014 21.1182L6.45048 24.0855C6.16617 24.2261 5.84423 24.2759 5.52877 24.2261C4.76025 24.0829 4.24747 23.3619 4.37339 22.6012L5.52877 16.3114C5.60536 15.8524 5.45088 15.3858 5.11465 15.0598L0.426939 10.5853C0.0348895 10.2108 -0.101419 9.64825 0.0777293 9.14071C0.251685 8.63446 0.695661 8.265 1.23181 8.1819L7.68374 7.26016C8.17445 7.2103 8.60545 6.91626 8.82614 6.4816L11.6691 0.741484C11.7366 0.613642 11.8236 0.496028 11.9288 0.396311L12.0456 0.306821C12.1066 0.240343 12.1767 0.185371 12.2546 0.140626L12.3961 0.0894895L12.6168 0H13.1633C13.6515 0.0498584 14.0812 0.337503 14.3057 0.767053L17.1864 6.4816C17.3941 6.89964 17.7978 7.18984 18.2639 7.26016L24.7158 8.1819C25.261 8.2586 25.7167 8.62934 25.8972 9.14071C26.0672 9.65336 25.9205 10.2159 25.5207 10.5853L20.6655 15.1109Z" fill="#F4F3F3"/>
</svg>
