<?xml version="1.0" encoding="utf-8"?>
<!-- Generator: Adobe Illustrator 25.0.0, SVG Export Plug-In . SVG Version: 6.00 Build 0)  -->
<svg version="1.1" id="Layer_1" xmlns="http://www.w3.org/2000/svg" xmlns:xlink="http://www.w3.org/1999/xlink" x="0px" y="0px"
	 viewBox="0 0 1080 1080" style="enable-background:new 0 0 1080 1080;" xml:space="preserve">
<style type="text/css">
	.st0{fill:#393939;}
</style>
<path class="st0" d="M822.93,629.14c-12.38,12-18.07,29.36-15.25,46.38l42.5,235.23c3.59,19.94-4.83,40.11-21.51,51.64
	c-16.35,11.95-38.11,13.39-55.94,3.82L560.97,855.76c-7.36-3.92-15.54-6.02-23.91-6.26h-12.96c-4.49,0.67-8.89,2.1-12.91,4.31
	L299.4,964.77c-10.47,5.26-22.33,7.12-33.95,5.26c-28.3-5.35-47.19-32.32-42.55-60.77l42.55-235.23
	c2.82-17.17-2.87-34.62-15.25-46.81L77.55,459.89c-14.44-14.01-19.46-35.04-12.86-54.02c6.41-18.93,22.76-32.75,42.5-35.86
	l237.62-34.47c18.07-1.86,33.95-12.86,42.07-29.12L491.59,91.75c2.49-4.78,5.69-9.18,9.56-12.91l4.31-3.35
	c2.24-2.49,4.83-4.54,7.7-6.22l5.21-1.91l8.13-3.35h20.13c17.98,1.86,33.8,12.62,42.07,28.69l106.09,213.71
	c7.65,15.63,22.52,26.49,39.68,29.12L972.1,370c20.08,2.87,36.86,16.74,43.51,35.86c6.26,19.17,0.86,40.21-13.86,54.02
	L822.93,629.14z"/>
</svg>
