<?xml version="1.0" encoding="utf-8"?>
<!-- Generator: Adobe Illustrator 25.2.0, SVG Export Plug-In . SVG Version: 6.00 Build 0)  -->
<svg version="1.1" id="Capa_1" xmlns="http://www.w3.org/2000/svg" xmlns:xlink="http://www.w3.org/1999/xlink" x="0px" y="0px"
	 viewBox="0 0 512 512" style="enable-background:new 0 0 512 512;" xml:space="preserve">
<style type="text/css">
	.st0{opacity:0.5;}
	.st1{fill:#1D9440;}
</style>
<g>
	<g class="st0">
		<path class="st1" d="M494.6,104l-43.3-43.3L408,17.4c-10.9-10.9-26.8-14.7-41.4-10l-93.9,30.4c-11.4,3.7-21.8,10.1-30.2,18.5
			L4.7,294c-6.4,6.4-6.3,16.6,0,22.9l190.3,190.3c6.3,6.3,16.6,6.4,22.9,0l237.7-237.7c8.4-8.4,14.8-18.9,18.5-30.2l30.4-93.9
			C509.3,130.8,505.5,114.9,494.6,104L494.6,104z M400.1,170c-16,16-42.1,16-58.1,0c-16-16.1-16-42.1,0-58.1
			c16.1-16.1,42.1-16.1,58.1,0C416.1,128,416.1,154,400.1,170z"/>
	</g>
	<path class="st1" d="M504.6,145.4l-30.4,93.9c-3.7,11.4-10.1,21.8-18.5,30.2L218,507.3c-6.4,6.4-16.6,6.3-22.9,0l-95.2-95.2
		l242-242c16.1,16,42.1,16,58.1,0c16.1-16.1,16.1-42.1,0-58.1l51.2-51.2l43.3,43.3C505.5,114.9,509.3,130.8,504.6,145.4L504.6,145.4
		z"/>
</g>
</svg>
