<svg width="21" height="23" viewBox="0 0 21 23" fill="none" xmlns="http://www.w3.org/2000/svg">
<path fill-rule="evenodd" clip-rule="evenodd" d="M5.78625 0H15.2149C18.69 0 20.625 2.0025 20.625 5.43375V17.055C20.625 20.5425 18.69 22.5 15.2149 22.5H5.78625C2.36625 22.5 0.375 20.5425 0.375 17.055V5.43375C0.375 2.0025 2.36625 0 5.78625 0ZM6.09 5.2425V5.23125H9.45263C9.9375 5.23125 10.3313 5.625 10.3313 6.10763C10.3313 6.60375 9.9375 6.9975 9.45263 6.9975H6.09C5.60513 6.9975 5.2125 6.60375 5.2125 6.12C5.2125 5.63625 5.60513 5.2425 6.09 5.2425ZM6.09 12.0825H14.91C15.3937 12.0825 15.7875 11.6888 15.7875 11.205C15.7875 10.7213 15.3937 10.3264 14.91 10.3264H6.09C5.60513 10.3264 5.2125 10.7213 5.2125 11.205C5.2125 11.6888 5.60513 12.0825 6.09 12.0825ZM6.09 17.2238H14.91C15.3589 17.1788 15.6975 16.7951 15.6975 16.3463C15.6975 15.885 15.3589 15.5025 14.91 15.4575H6.09C5.7525 15.4238 5.42625 15.5813 5.24625 15.8738C5.06625 16.155 5.06625 16.5263 5.24625 16.8188C5.42625 17.1 5.7525 17.2688 6.09 17.2238Z" fill="#393939"/>
</svg>
