<svg width="52" height="56" viewBox="0 0 52 56" fill="none" xmlns="http://www.w3.org/2000/svg">
<path d="M10.5625 24.5H2.4375C1.09129 24.5 0 25.6752 0 27.125V53.375C0 54.8248 1.09129 56 2.4375 56H10.5625C11.9087 56 13 54.8248 13 53.375V27.125C13 25.6752 11.9087 24.5 10.5625 24.5ZM6.5 51.625C5.15379 51.625 4.0625 50.4498 4.0625 49C4.0625 47.5502 5.15379 46.375 6.5 46.375C7.84622 46.375 8.93751 47.5502 8.93751 49C8.93751 50.4498 7.84622 51.625 6.5 51.625ZM39 8.90881C39 13.5481 36.3624 16.1503 35.6203 19.25H45.9516C49.3435 19.25 51.9841 22.2847 51.9999 25.6045C52.0085 27.5664 51.2335 29.6786 50.0257 30.9854L50.0145 30.9974C51.0135 33.5499 50.8511 37.1265 49.0691 39.6893C49.9508 42.5216 49.0621 46.0007 47.4053 47.8659C47.8419 49.7907 47.6333 51.4288 46.7809 52.7475C44.708 55.9548 39.5704 56 35.2259 56L34.9369 55.9999C30.0328 55.998 26.0191 54.0751 22.7941 52.53C21.1735 51.7535 19.0545 50.7923 17.4467 50.7605C16.7825 50.7474 16.25 50.1636 16.25 49.4482V26.0671C16.25 25.7171 16.3802 25.3812 16.6114 25.1351C20.6347 20.8538 22.3647 16.3209 25.6623 12.7636C27.1659 11.1414 27.7127 8.69094 28.2413 6.32122C28.6929 4.29767 29.6377 0 31.6875 0C34.125 0 39 0.875 39 8.90881Z" fill="white"/>
</svg>
