<svg width="54" height="59" viewBox="0 0 54 59" fill="none" xmlns="http://www.w3.org/2000/svg">
<path d="M0 6.45312V34.1094C0 35.6368 1.13326 36.875 2.53125 36.875H10.9687C12.3667 36.875 13.5 35.6368 13.5 34.1094V6.45312C13.5 4.92569 12.3667 3.6875 10.9687 3.6875H2.53125C1.13326 3.6875 0 4.92569 0 6.45312ZM4.21874 29.5C4.21874 27.9726 5.352 26.7344 6.74999 26.7344C8.14798 26.7344 9.28124 27.9726 9.28124 29.5C9.28124 31.0274 8.14798 32.2656 6.74999 32.2656C5.352 32.2656 4.21874 31.0274 4.21874 29.5ZM32.9062 59C30.7775 59 29.7965 54.4721 29.3276 52.34C28.7785 49.8434 28.2107 47.2617 26.6494 45.5525C23.2249 41.8046 21.4284 37.0289 17.2503 32.5182C17.1314 32.3898 17.0371 32.2369 16.9726 32.0684C16.9082 31.8998 16.8751 31.719 16.8751 31.5363V6.90265C16.8751 6.14891 17.4281 5.5339 18.1178 5.52007C19.7875 5.48665 21.9879 4.47386 23.6708 3.65581C27.0199 2.02789 31.188 0.00195898 36.2807 0H36.5806C41.0923 0 46.4275 0.0475918 48.5802 3.42672C49.4653 4.81611 49.6819 6.54197 49.2286 8.56987C50.949 10.535 51.872 14.2006 50.9564 17.1844C52.8068 19.8846 52.9754 23.6528 51.9381 26.342L51.9497 26.3547C53.2041 27.7316 54.0088 29.9568 53.9999 32.0239C53.9835 35.5215 51.2412 38.7188 47.719 38.7188H36.9903C37.7609 41.9845 40.4999 44.7262 40.4999 49.6139C40.4999 58.0781 35.4375 59 32.9062 59Z" fill="white"/>
</svg>
