<svg width="23" height="19" viewBox="0 0 23 19" fill="none" xmlns="http://www.w3.org/2000/svg">
<path d="M10.2863 5.37217C10.2863 8.08608 5.37223 14.5023 5.37223 14.5023C5.37223 14.5023 0.458252 8.08613 0.458252 5.37217C0.458252 2.65822 2.65833 0.458191 5.37223 0.458191C8.08614 0.458191 10.2863 2.65826 10.2863 5.37217Z" fill="#06B160"/>
<path d="M5.37215 8.13451C6.89773 8.13451 8.13445 6.89779 8.13445 5.37222C8.13445 3.84664 6.89773 2.60992 5.37215 2.60992C3.84658 2.60992 2.60986 3.84664 2.60986 5.37222C2.60986 6.89779 3.84658 8.13451 5.37215 8.13451Z" fill="white"/>
<path d="M22.5419 5.37217C22.5419 8.08608 17.6278 14.5023 17.6278 14.5023C17.6278 14.5023 12.7139 8.08613 12.7139 5.37217C12.7139 2.65822 14.9139 0.458191 17.6278 0.458191C20.3418 0.458191 22.5419 2.65826 22.5419 5.37217Z" fill="#06B160"/>
<path d="M17.6278 8.13451C19.1533 8.13451 20.3901 6.89779 20.3901 5.37222C20.3901 3.84664 19.1533 2.60992 17.6278 2.60992C16.1022 2.60992 14.8655 3.84664 14.8655 5.37222C14.8655 6.89779 16.1022 8.13451 17.6278 8.13451Z" fill="white"/>
<path d="M5.36742 18.4055C5.97472 18.4055 6.46703 17.9132 6.46703 17.3059C6.46703 16.6986 5.97472 16.2063 5.36742 16.2063C4.76013 16.2063 4.26782 16.6986 4.26782 17.3059C4.26782 17.9132 4.76013 18.4055 5.36742 18.4055Z" fill="#06B160"/>
<path d="M17.6006 18.4055C18.2079 18.4055 18.7002 17.9132 18.7002 17.3059C18.7002 16.6986 18.2079 16.2063 17.6006 16.2063C16.9933 16.2063 16.501 16.6986 16.501 17.3059C16.501 17.9132 16.9933 18.4055 17.6006 18.4055Z" fill="#06B160"/>
<path d="M5.37215 14.9614C5.51473 14.9614 5.6492 14.895 5.73589 14.7819C5.7483 14.7656 6.99108 13.139 8.21641 11.2007C9.8938 8.54736 10.7443 6.58667 10.7443 5.37313C10.7443 2.41089 8.33434 0.000976562 5.37215 0.000976562C2.40996 0.000976562 0 2.41089 0 5.37308C0 6.58663 0.850496 8.54736 2.52789 11.2007C3.75322 13.139 4.99599 14.7656 5.00841 14.7818C5.09514 14.895 5.22957 14.9614 5.37215 14.9614ZM0.916335 5.37308C0.916335 2.91616 2.91523 0.917265 5.37215 0.917265C7.82907 0.917265 9.82796 2.91616 9.82796 5.37308C9.82796 7.3016 6.88818 11.6848 5.3721 13.74C3.85594 11.685 0.916335 7.30247 0.916335 5.37308Z" fill="#06B160"/>
<path d="M8.59262 5.37218C8.59262 3.59641 7.14793 2.15167 5.37212 2.15167C3.5963 2.15167 2.15161 3.59637 2.15161 5.37218C2.15161 7.14799 3.5963 8.59268 5.37212 8.59268C7.14793 8.59268 8.59262 7.14799 8.59262 5.37218ZM3.06799 5.37218C3.06799 4.10168 4.10162 3.06801 5.37216 3.06801C6.6427 3.06801 7.67633 4.10163 7.67633 5.37218C7.67633 6.64272 6.6427 7.67635 5.37216 7.67635C4.10162 7.67635 3.06799 6.64272 3.06799 5.37218Z" fill="#06B160"/>
<path d="M5.83029 3.98435C5.83029 3.73131 5.62517 3.52618 5.37213 3.52618C4.35426 3.52618 3.52612 4.35428 3.52612 5.37219C3.52612 5.62523 3.73124 5.83035 3.98429 5.83035C4.23734 5.83035 4.44246 5.62523 4.44246 5.37219C4.44246 4.85959 4.85948 4.44252 5.37213 4.44252C5.62517 4.44252 5.83029 4.2374 5.83029 3.98435Z" fill="#06B160"/>
<path d="M17.6278 0C14.6655 0 12.2556 2.40996 12.2556 5.37215C12.2556 6.5857 13.1061 8.54642 14.7835 11.1998C16.0088 13.138 17.2516 14.7647 17.264 14.7809C17.3507 14.8941 17.4852 14.9604 17.6278 14.9604C17.7703 14.9604 17.9048 14.8941 17.9915 14.7809C18.0039 14.7647 19.2467 13.138 20.4721 11.1998C22.1495 8.54642 23 6.58574 23 5.37215C23 2.40996 20.59 0 17.6278 0ZM17.6278 13.7392C16.1116 11.6841 13.1719 7.30154 13.1719 5.37215C13.1719 2.91523 15.1708 0.916335 17.6278 0.916335C20.0847 0.916335 22.0836 2.91523 22.0836 5.37215C22.0836 7.30067 19.1438 11.6839 17.6278 13.7392Z" fill="#06B160"/>
<path d="M17.6279 2.15167C15.8522 2.15167 14.4075 3.59637 14.4075 5.37218C14.4075 7.14799 15.8522 8.59268 17.6279 8.59268C19.4037 8.59268 20.8484 7.14799 20.8484 5.37218C20.8484 3.59637 19.4037 2.15167 17.6279 2.15167ZM17.6279 7.6763C16.3574 7.6763 15.3238 6.64267 15.3238 5.37213C15.3238 4.10159 16.3574 3.06796 17.6279 3.06796C18.8984 3.06796 19.9321 4.10159 19.9321 5.37213C19.9321 6.64267 18.8985 7.6763 17.6279 7.6763Z" fill="#06B160"/>
<path d="M17.6005 15.7482C16.7415 15.7482 16.0427 16.447 16.0427 17.3059C16.0427 18.1649 16.7415 18.8637 17.6005 18.8637C18.4595 18.8637 19.1583 18.1649 19.1583 17.3059C19.1583 16.447 18.4594 15.7482 17.6005 15.7482ZM17.6005 17.9474C17.2468 17.9474 16.9591 17.6596 16.9591 17.3059C16.9591 16.9522 17.2468 16.6645 17.6005 16.6645C17.9542 16.6645 18.2419 16.9522 18.2419 17.3059C18.2419 17.6596 17.9542 17.9474 17.6005 17.9474Z" fill="#06B160"/>
<path d="M14.8056 16.8477H13.5685C13.3155 16.8477 13.1104 17.0528 13.1104 17.3058C13.1104 17.5589 13.3155 17.764 13.5685 17.764H14.8056C15.0586 17.764 15.2637 17.5589 15.2637 17.3058C15.2637 17.0528 15.0586 16.8477 14.8056 16.8477Z" fill="#06B160"/>
<path d="M11.9649 16.8478H6.85625C6.6601 16.2117 6.06687 15.7482 5.36734 15.7482C4.50837 15.7482 3.80957 16.447 3.80957 17.3059C3.80957 18.1649 4.50837 18.8637 5.36734 18.8637C6.06687 18.8637 6.66015 18.4001 6.85625 17.7641H11.9649C12.218 17.7641 12.4231 17.559 12.4231 17.3059C12.4231 17.0529 12.218 16.8478 11.9649 16.8478ZM5.36734 17.9474C5.01363 17.9474 4.7259 17.6596 4.7259 17.3059C4.7259 16.9522 5.01363 16.6645 5.36734 16.6645C5.72104 16.6645 6.00877 16.9522 6.00877 17.3059C6.00877 17.6596 5.72104 17.9474 5.36734 17.9474Z" fill="#06B160"/>
</svg>
