<?xml version="1.0" encoding="utf-8"?>
<!-- Generator: Adobe Illustrator 25.0.0, SVG Export Plug-In . SVG Version: 6.00 Build 0)  -->
<svg version="1.1" id="Layer_1" xmlns="http://www.w3.org/2000/svg" xmlns:xlink="http://www.w3.org/1999/xlink" x="0px" y="0px"
	 viewBox="0 0 1080 1080" style="enable-background:new 0 0 1080 1080;" xml:space="preserve">
<path d="M499.65,1.62c-10.9,1.38-31.91,4.95-46.71,7.97c-14.4,3.02-38.53,6.87-53.71,8.52c-56.05,6.59-110.54,22.8-154.13,46.15
	c-13.63,7.42-33.08,16.76-43.2,20.88C158.31,103,120.56,134.87,97.98,173.6c-7.01,11.81-19.84,27.47-28.81,35.44
	c-31.13,26.92-53.32,72.8-53.32,110.72c0,8.79-3.5,27.75-7.79,42.03c-35.03,118.68,43.2,192.58,250.27,235.99
	c59.94,12.64,74.74,14.01,96.92,9.88c54.49-9.88,115.99-61.26,139.73-116.76c12.07-27.75,12.46-64.29,0.78-83.52l-7.79-13.73
	l12.85-12.09c7.4-6.59,14.4-16.76,15.57-23.08c2.34-9.35,3.89-10.71,10.9-9.35c4.67,0.83,15.57,1.65,24.53,1.65h15.96l4.67,14.28
	c2.34,7.97,12.85,26.92,23.36,42.03c17.91,26.65,18.67,28.58,21.8,60.45c4.28,50.27,3.89,54.95-7.79,67.59l-10.51,11.26l6.62,19.51
	l6.62,19.78l-14.79,32.97c-15.96,35.99-27.24,53.85-42.81,66.76c-8.95,7.7-10.12,10.71-9.34,26.93l0.78,18.12l-54.1,20.61
	C359.18,801.65,233.47,858.51,96.84,929.67c-45.93,23.9-50.6,27.2-61.89,43.41c-10.9,15.66-12.07,19.78-10.51,34.61
	c1.56,15.66,3.11,17.85,17.52,27.47c8.56,5.5,22.19,11.54,29.98,13.2c8.18,1.38,17.91,5.76,22.19,9.62
	c4.28,3.57,17.52,10.16,29.96,14.56c19.45,6.86,26.07,7.69,57.22,7.41c42.81-0.27,81.73-8.52,142.06-29.94
	c33.08-11.81,47.1-15.11,73.18-17.58c108.98-10.17,245.99-65.39,397.78-159.62c24.53-15.11,56.44-32.14,70.44-37.35
	c48.65-18.14,82.13-43.69,126.49-96.43c31.91-37.91,57.61-80.77,72.39-121.43c14.4-39.56,19.06-98.91,9.73-131.59
	c-5.06-17.85-4.66-22.25,0.39-38.46c4.28-13.19,6.23-32.97,6.23-69.23c0-66.21-7.01-85.72-52.54-149.18
	c-39.7-55.77-59.55-76.92-98.86-106.05C859.33,71.69,751.12,27.73,647.2,8.49C605.91,1.07,535.46-2.23,499.65,1.62z M622.64,51.62
	l20.62,3.57l-1.95,52.48c-2.73,68.96-15.57,112.09-52.16,173.09c-15.18,26.1-21.4,29.13-48.26,23.63c-14-3.02-16.35-5.22-36.97-33.8
	c-50.21-68.68-117.94-115.38-209.4-143.13c-19.45-5.77-35.81-10.99-36.21-11.26c-0.78-0.28,10.9-7.14,25.29-14.83
	c31.91-17.04,66.95-28.58,105.87-34.61c28.41-4.67,103.14-16.49,118.72-19.23C522.61,45.03,601.24,47.77,622.64,51.62z
	 M801.3,107.94c61.5,28.3,135.44,87.37,152.96,122.26c4.28,9.34,3.89,10.99-6.23,23.35c-29.19,35.72-82.9,77.47-133.11,103.31
	c-38.53,19.78-123.38,48.91-143.23,48.91c-8.18,0-32.3-38.46-37.36-59.35c-4.28-18.4-3.89-20.06,5.45-32.97
	c39.7-56.05,68.9-145.34,68.9-212.65V73.6l29.19,9.35C754.2,88.16,782.61,99.42,801.3,107.94z M232.27,159.86
	c81.73,19.23,145.96,54.12,191.11,103.58c33.47,36.54,41.64,56.33,32.3,79.13c-7.79,18.68-7.4,18.68-49.43,4.95
	c-43.2-14.56-84.85-24.73-126.49-31.6c-39.31-6.31-131.55-6.31-167.76,0c-14.79,2.47-27.24,4.67-28.41,4.67
	c-3.5,0-1.17-20.88,4.67-36.54c7.79-21.71,16.74-33.51,37.36-50.83c9.73-7.97,20.23-21.16,25.68-31.32
	c12.07-24.45,34.25-48.9,44.37-48.9C199.57,153,216.31,156.01,232.27,159.86z M1010.7,328.27c7.4,26.92,7.01,71.16-0.78,106.33
	l-6.23,28.3l-29.98,15.11c-90.29,45.6-175.53,67.59-247.14,64.28c-17.52-0.83-34.26-2.19-37.36-3.02
	c-4.67-1.38-5.84-7.69-5.84-31.32c0-16.21-0.78-34.89-1.95-41.76l-1.95-12.36l34.64-8.79c110.15-27.75,201.99-76.92,266.62-142.59
	l13.22-13.46l5.84,9.62C1002.53,303.83,1007.59,317.01,1010.7,328.27z M260.29,360.7c42.42,6.04,70.83,13.19,117.94,29.13
	c47.1,15.66,56.83,23.63,60.72,49.72c5.45,38.19-38.92,99.18-86.79,118.97l-16.74,7.14l-35.42-7.42
	C172.33,532.42,110.05,505.76,81.25,464c-10.9-15.66-12.85-21.43-14-44.79c-2.34-40.94-0.78-44.24,23.75-50.55
	C139.62,356.02,207.35,353,260.29,360.7z M1011.09,549.17c-3.11,52.2-25.7,103.85-68.9,157.15l-16.34,20.33l-29.98,3.57
	c-40.1,5.22-126.1,4.39-169.7-1.38c-30.35-3.85-110.93-20.05-110.93-22.25c0-0.28,5.84-7.69,13.24-16.21
	c7.4-8.52,19.86-30.22,27.63-47.81c7.79-17.59,16.74-37.09,19.84-43.41l5.85-10.99h53.33c45.15-0.28,59.16-1.38,92.24-7.42
	c43.59-8.24,117.94-32.97,157.63-52.48c14-6.87,26.07-12.36,26.85-12.36C1012.65,515.64,1012.26,530.75,1011.09,549.17z
	 M696.6,773.07c0,1.38-81.73,51.65-181.76,112.09c-163.09,98.63-185.27,111.26-217.97,122.81c-42.05,14.83-76.28,23.35-103.92,25.82
	c-19.45,1.65-19.45,1.65-11.68-3.57c4.28-3.02,84.07-44.77,177.09-93.13c93.02-48.07,203.17-105.23,244.82-126.65
	c45.93-23.9,79.4-39.29,84.86-39.29C693.09,771.16,696.99,771.98,696.6,773.07z M852.29,786.54c-7.4,3.85-21.8,10.16-32.3,14.01
	c-10.51,3.85-36.58,17.85-58.38,31.32c-59.93,37.1-108.58,64.02-159.57,87.91c-48.65,23.08-131.16,54.12-117.16,43.96
	c4.28-3.02,74.33-45.6,155.69-94.77l147.9-89.01l38.53-0.28h38.52L852.29,786.54z M531.58,790.11
	c-17.52,11.54-420.35,217.31-425.41,217.31c-3.5,0-9.34-1.1-12.46-2.74c-12.46-5.5,4.67-18.13,73.57-53.57
	c109.76-56.32,192.66-94.23,302.42-138.75C528.06,788.73,539.74,784.62,531.58,790.11z"/>
</svg>
