<?xml version="1.0" encoding="utf-8"?>
<!-- Generator: Adobe Illustrator 25.0.0, SVG Export Plug-In . SVG Version: 6.00 Build 0)  -->
<svg version="1.1" id="Layer_1" xmlns="http://www.w3.org/2000/svg" xmlns:xlink="http://www.w3.org/1999/xlink" x="0px" y="0px"
	 viewBox="0 0 1080 1080" style="enable-background:new 0 0 1080 1080;" xml:space="preserve">
<path d="M1022.68,403.87c0-99.52-38.76-193.08-109.13-263.45l-82.49-82.49c-26.75-26.75-65.84-36.5-102.02-25.45
	c-23.39,7.14-40.87,25.57-46.79,49.29c-5.92,23.72,0.87,48.21,18.16,65.5l25.92,25.93c-90.85-33-195.71-16.65-272.67,49.01
	c-110.85-10.23-219.13,28.75-297.9,107.52c-131.23,131.23-131.23,344.78,0,476.03c27.9,27.89,60.21,49.7,96.16,64.92v15.47
	c0,46.62,25.57,89.2,66.73,111.1c8.97,4.77,18.71,7.15,28.41,7.15c10.74,0,21.45-2.91,31.09-8.7c18.36-11.03,29.31-30.39,29.31-51.8
	v-50.75C452.58,989.99,549.36,1052,656.85,1052c167.75,0,304.24-136.48,304.24-304.24c0-38.55-6.45-76.27-19.17-112.22
	C994.25,569.88,1022.68,489.07,1022.68,403.87z M632.03,182.32c63.86,0,127.73,24.31,176.36,72.93
	c42.15,42.15,65.36,98.2,65.36,157.81s-23.21,115.66-65.36,157.81c-77.82,77.81-204.43,77.81-282.24,0
	c-33.16-33.16-51.7-77.24-52.22-124.13c-0.51-46.81,16.98-91.21,49.25-125.03c59.96-62.83,160.51-65.92,224.14-6.88
	c25.83,23.96,39.79,53.87,40.41,86.48c0.7,37.76-16.15,75.81-47.48,107.13c-28.36,28.37-59.92,32.5-81.4,30.97
	c-27.38-1.95-54.06-14.04-73.2-33.18c-38.94-38.95-28.49-95.95,4.12-128.56c25.79-25.79,67.36-39.33,106.69,0.01
	c24.05,24.05,17.3,59.53-3.1,79.94c-9.96,9.96-40.03,11.61-56.87-5.23c-5.01-5.02-13.15-5.02-18.17,0c-5.02,5.02-5.02,13.15,0,18.17
	c24.84,24.84,71,27.44,93.2,5.23c33.47-33.47,34.83-84.54,3.1-116.27c-49.4-49.4-107.43-35.6-143.03-0.01
	c-52.9,52.9-43.64,125.38-4.12,164.89c23.45,23.45,56.09,38.27,89.55,40.64c37.89,2.71,73.92-10.95,101.39-38.43
	c36.31-36.3,55.84-80.97,55-125.77c-0.74-39.76-17.56-76.01-48.62-104.83c-73.86-68.54-190.59-64.97-260.2,7.97
	c-36.93,38.7-56.95,89.5-56.36,143.06c0.59,53.64,21.81,104.07,59.75,142.01c87.83,87.83,230.74,87.83,318.57,0
	c47.01-47,72.9-109.5,72.9-175.98c0-66.48-25.89-128.97-72.9-175.97L718.56,129.09c-10.85-10.85-15.11-26.22-11.4-41.11
	c3.72-14.89,14.7-26.45,29.38-30.94c27.07-8.28,56.33-0.97,76.35,19.04l82.5,82.49c65.52,65.52,101.6,152.63,101.6,245.29
	c0,92.66-36.08,179.77-101.6,245.29c-121.23,121.22-318.47,121.22-439.7,0c-108.6-108.6-108.6-285.31,0-393.91
	C504.3,206.63,568.17,182.32,632.03,182.32z M830.2,753.28c0,46.9-18.05,91.19-50.85,124.71c-32.73,33.47-76.49,52.5-123.22,53.57
	c-55.57,1.37-108.61-27.54-138.54-74.38c15.91-8.77,31-18.96,45.12-30.45c17.4,27.41,48.85,43.88,85.9,43.88
	c74.8,0,119.5-57.8,119.5-113.68c0-1.33-0.08-2.69-0.12-4.05c20.79-5.91,41.13-13.85,60.68-23.82
	C829.65,737.07,830.2,745.17,830.2,753.28z M675.53,765.76c22.4,0,44.79-2.24,66.83-6.67c-1.29,59.16-55.26,85.82-93.74,85.82
	c-30.03,0-54.19-13.14-66.34-35.52c1.26-1.22,2.52-2.44,3.74-3.65c13.53-13.53,25.59-28.39,35.96-44.26
	C639.7,764.32,657.61,765.76,675.53,765.76z M349.47,475.82c1.24,16,3.72,31.92,7.47,47.6c-3.39,2.54-6.62,5.3-9.62,8.3
	c-10.15,10.15-15.72,27.03-14.91,45.16c0.83,18.57,8.17,36.09,20.14,48.05c2.51,2.51,5.8,3.76,9.08,3.76c3.29,0,6.58-1.25,9.09-3.76
	c5.02-5.02,5.02-13.15,0-18.17c-7.48-7.48-12.09-18.79-12.64-31.03c-0.46-10.22,2.19-19.86,6.74-25.06
	c13.97,41.05,36.95,79.68,68.92,112.8c-33.12,24.2-82.42,28.63-116.9-5.87c-19.14-19.14-31.23-45.82-33.18-73.2
	c-1.53-21.48,2.61-53.03,30.99-81.4C325.45,492.19,337.12,483.12,349.47,475.82z M348.61,447.05
	c-18.81,9.28-36.32,21.96-52.12,37.78c-27.48,27.47-41.14,63.48-38.45,101.39c2.38,33.46,17.19,66.1,40.64,89.55
	c19.37,19.37,46.72,31.21,75.03,32.48c1.66,0.07,3.37,0.12,5.15,0.12c20.12,0,47.18-5.32,73.74-26.87
	c15.89,14.06,32.79,26.37,50.47,36.91c-0.57,0.56-1.12,1.12-1.69,1.67c-33.81,32.27-78.16,49.84-125.02,49.25
	c-46.89-0.51-90.97-19.07-124.13-52.22c-77.8-77.82-77.8-204.43,0-282.23c29.56-29.58,65.93-49.83,106.08-59.3
	C352.25,398.99,349.01,423,348.61,447.05z M173.92,347.88c67.95-67.95,159.51-104.13,254.69-101.48
	c-27.75,30.18-48.28,64.64-61.6,101.17c-50.59,8.81-96.43,32.58-132.95,69.13c-87.82,87.82-87.82,230.72,0,318.57
	c37.94,37.94,88.38,59.15,142.01,59.75c0.77,0.01,1.53,0.01,2.3,0.01c52.71,0,102.62-19.97,140.77-56.39
	c2.55-2.44,5.01-4.94,7.39-7.48c21.9,10.79,44.74,19.05,68.08,24.79c-8.01,11.2-16.95,21.8-26.77,31.62
	c-3.05,3.05-6.26,6.11-9.78,9.32c-19.23,17.47-40.77,32.16-64.01,43.63c-25.5,12.56-52.72,21.1-80.98,25.38
	c-6.5,1.02-13.06,1.79-19.52,2.3c-42.02,3.43-84.95-2.85-124.14-18.16c-35.91-14-68.04-35.02-95.5-62.48
	C52.7,666.34,52.7,469.09,173.92,347.88z M364.91,973.66c-10.55,6.34-23.34,6.67-34.2,0.89c-32.76-17.43-53.11-51.31-53.11-88.42
	v-5.93c30.11,9.66,61.83,14.63,93.51,14.63c3.55,0,7.1-0.09,10.65-0.22v49.26C381.76,956.2,375.46,967.33,364.91,973.66z
	 M935.4,747.76c0,153.59-124.95,278.55-278.54,278.55c-95.22,0-181.13-53.69-223.2-138.04c20.93-4.38,41.3-10.89,60.82-19.56
	c33.69,54.48,94.16,88.61,158.04,88.6c1.4,0,2.81-0.01,4.21-0.04c53.47-1.24,103.54-23.01,141-61.3
	c37.51-38.35,58.17-89.02,58.17-142.67c0-12.67-1.08-25.32-3.17-37.75c21.63-13.4,42.07-29.45,60.83-48.21
	c2.99-2.99,5.9-6.03,8.77-9.1C931,687.12,935.4,717.14,935.4,747.76z"/>
</svg>
