<?xml version="1.0" encoding="utf-8"?>
<!-- Generator: Adobe Illustrator 25.0.0, SVG Export Plug-In . SVG Version: 6.00 Build 0)  -->
<svg version="1.1" id="Layer_1" xmlns="http://www.w3.org/2000/svg" xmlns:xlink="http://www.w3.org/1999/xlink" x="0px" y="0px"
	 viewBox="0 0 1080 1080" style="enable-background:new 0 0 1080 1080;" xml:space="preserve">
<path d="M1061.57,0.01l-755.89,18c-9.77,0.23-17.57,8.23-17.57,18v108c0,9.77,7.79,17.76,17.57,18l58.46,1.36
	c-2.86,13.76-4.21,27.78-4.03,41.84c-0.4,21.41,2.92,42.72,9.81,63c5.86,16.76,8.64,34.44,8.19,52.2
	c0.44,17.75-2.34,35.44-8.19,52.2c-0.41,1.35-0.84,2.74-1.26,4.12c-36.48-19.38-79.63-21.79-118.03-6.58
	c-13.98,5.77-26.87,13.92-38.1,24.06c-62.27-27.34-130.21-18.81-172.56,23.56C6.9,452.57-6.84,501.46,3.25,548.39
	c-1.95,2.83-3.02,6.18-3.09,9.61v63.14c-0.12,177.44,117.4,333.45,287.96,382.28V1062c0,9.94,8.06,18,18,18h467.93
	c9.94,0,18-8.06,18-18v-58.58C962.6,954.6,1080.12,798.59,1080,621.15V558c0-9.94-8.06-18-18-18h-17.42l31.1-36.36
	c6.47-7.56,5.58-18.92-1.98-25.38L936.91,361.11c-3.64-3.08-8.33-4.61-13.08-4.29c-4.77,0.37-9.19,2.62-12.29,6.25l-42.88,50.11
	c-51.84-39.8-121.9-46.37-180.24-16.9c1.15-4.46,2.44-8.67,3.81-13.03c6.89-20.28,10.21-41.59,9.81-63
	c0.41-21.41-2.91-42.73-9.81-63c-5.85-16.72-8.62-34.35-8.19-52.04c-0.2-11.41,0.86-22.81,3.17-33.99l374.35,8.84h0.43
	c9.94,0,18-8.06,18-18V18.01c0.01-4.85-1.94-9.5-5.4-12.89C1071.15,1.69,1066.43-0.16,1061.57,0.01z M324.11,53.6L1044,36.44v35.57
	H324.11V53.6z M1044,612H36.15v-36H1044V612z M111.99,540.01c4.24-22.95,20.84-41.66,43.13-48.58c22.29-6.93,46.57-0.91,63.05,15.6
	c5.2,5.14,9.42,11.2,12.43,17.87c2.34,4.79,4.02,9.87,5,15.11H111.99z M310.05,483.05c23.3-4.81,47.31,3.94,62.06,22.61
	c3.37,11.15,5.3,22.7,5.72,34.35h-46.97C327.03,520.02,320,500.79,310.05,483.05z M585.88,268.1c5.86,16.76,8.64,34.44,8.19,52.2
	c0.44,17.75-2.34,35.44-8.19,52.2c-6.9,20.28-10.21,41.59-9.81,63c-0.4,21.41,2.92,42.72,9.81,63c4.66,13.38,7.33,27.36,7.92,41.51
	H557.8c-0.62-17.78-3.85-35.37-9.59-52.21c-5.85-16.81-8.6-34.56-8.14-52.36c-0.45-17.75,2.33-35.44,8.19-52.2
	c6.89-20.28,10.21-41.59,9.81-63c0.4-21.41-2.91-42.73-9.81-63c-5.84-16.72-8.62-34.35-8.19-52.04c-0.45-17.75,2.33-35.44,8.19-52.2
	c4.92-14.55,7.99-29.68,9.12-45h35.99c-1.1,11.65-3.59,23.13-7.43,34.2c-6.92,20.27-10.26,41.58-9.88,63
	C575.68,226.58,579,247.86,585.88,268.1z M513.89,268.1c5.86,16.76,8.64,34.44,8.19,52.2c0.44,17.75-2.34,35.44-8.19,52.2
	c-6.9,20.28-10.21,41.59-9.81,63c-0.4,21.41,2.92,42.72,9.81,63c4.66,13.38,7.33,27.36,7.92,41.51h-36v-0.22
	c-0.23-5.6-0.69-10.56-1.22-15.22c0-0.72-0.16-1.49-0.26-2.21c-0.57-4.36-1.26-8.32-2.01-12.01l-0.43-2.02
	c-0.79-3.59-1.63-6.96-2.5-10.1c-0.14-0.52-0.31-1.02-0.45-1.55c-0.91-3.09-1.8-6.08-2.7-9c-5.84-16.78-8.6-34.47-8.16-52.23
	c-0.45-17.75,2.33-35.44,8.19-52.2c6.89-20.28,10.21-41.59,9.81-63c0.4-21.41-2.91-42.73-9.81-63c-5.84-16.72-8.62-34.35-8.19-52.04
	c-0.45-17.75,2.33-35.44,8.19-52.2c0.74-2.38,1.49-4.84,2.23-7.38c0.25-0.83,0.48-1.63,0.72-2.49c0.79-2.77,1.56-5.67,2.28-8.78
	c0.12-0.52,0.23-1.12,0.36-1.65c0.61-2.84,1.21-5.87,1.8-9.11c0.11-0.77,0.25-1.51,0.38-2.3c0.54-3.74,0.98-7.77,1.34-12.11
	c0-0.41,0.09-0.72,0.12-1.13h35.87c-1.1,11.65-3.59,23.13-7.43,34.2c-6.92,20.26-10.26,41.56-9.88,62.96
	C503.69,226.58,507.01,247.86,513.89,268.1z M760.16,540.01h-57.2c4.42-30.92,30.85-53.91,62.08-54
	c11.71,0.01,23.19,3.35,33.08,9.64L760.16,540.01z M660.21,506.11c0.15,0.54,0.31,1.08,0.47,1.63c0.74,2.59,1.4,5.26,2.03,8.04
	c0.12,0.56,0.24,1.13,0.36,1.71c0.61,2.93,1.17,5.99,1.6,9.4c0,0.36,0,0.76,0.13,1.12c0.4,3.27,0.69,6.87,0.91,10.79v1.21h-35.99
	c-0.62-17.78-3.85-35.37-9.6-52.21c-5.82-16.82-8.55-34.56-8.06-52.36c-0.45-17.75,2.33-35.44,8.19-52.2
	c6.89-20.28,10.21-41.59,9.81-63c0.4-21.41-2.91-42.73-9.81-63c-5.84-16.72-8.62-34.35-8.19-52.04c-0.45-17.75,2.33-35.44,8.19-52.2
	c4.92-14.55,7.99-29.68,9.12-45h36c0,0.41,0,0.77-0.12,1.19c-0.27,2.72-0.6,5.26-0.96,7.65c-0.12,0.74-0.23,1.48-0.36,2.18
	c-0.45,2.66-0.95,5.2-1.51,7.59l-0.14,0.53c-0.56,2.34-1.17,4.57-1.8,6.79l-0.48,1.69c-0.67,2.2-1.34,4.38-2.04,6.61
	c-6.92,20.26-10.27,41.57-9.9,62.98c-0.4,21.41,2.92,42.72,9.81,63c5.86,16.76,8.64,34.44,8.19,52.2
	c0.44,17.75-2.34,35.44-8.19,52.2c-6.9,20.28-10.21,41.59-9.81,63c-0.4,21.41,2.92,42.73,9.81,63
	C658.68,501.03,659.45,503.55,660.21,506.11z M324.11,108.01h125.23c-0.59,7.18-1.79,14.3-3.6,21.27l-121.62-2.84V108.01z
	 M435.69,165.07c-2.57,13.22-3.79,26.67-3.6,40.14c-0.4,21.41,2.92,42.72,9.81,63c5.86,16.76,8.64,34.44,8.19,52.2
	c0.44,17.75-2.34,35.44-8.19,52.2c-6.9,20.28-10.21,41.59-9.81,63c-0.4,21.41,2.92,42.73,9.81,63c4.65,13.34,7.32,27.29,7.92,41.41
	h-36c-0.61-17.78-3.85-35.37-9.59-52.21c-5.85-16.81-8.6-34.56-8.14-52.36c-0.45-17.75,2.33-35.44,8.19-52.2
	c6.89-20.28,10.21-41.59,9.81-63c0.4-21.41-2.91-42.73-9.81-63c-5.84-16.72-8.62-34.35-8.19-52.04c-0.33-13.79,1.3-27.56,4.82-40.89
	L435.69,165.07z M264.36,403.29c32.01-12.21,67.94-8.45,96.74,10.13c-0.61,6.48-0.99,13.72-0.99,22.02c0,6.68,0.27,12.59,0.69,18
	c-22.89-9.56-48.55-10.13-71.85-1.58c-4.26-5.26-8.79-10.28-13.57-15.07c-8.89-8.75-18.53-16.73-28.8-23.83
	C252.14,409.12,258.1,405.88,264.36,403.29z M65.43,443.29c33.95-33.95,91.28-38.65,142.81-11.66c15.4,8.09,29.48,18.46,41.77,30.76
	c6.89,6.81,13.12,14.25,18.61,22.23c12.07,16.63,20.83,35.44,25.77,55.39h-22.65c-1.1-10.63-4.03-20.98-8.66-30.6
	c-4.76-10.41-11.36-19.87-19.49-27.93c-14.74-14.85-33.85-24.57-54.53-27.72c-26.6-4.24-53.77,2.58-75.22,18.87
	c-21.46,16.28-35.34,40.62-38.41,67.39H38.18C31.03,505.25,41.19,469.19,65.43,443.29z M756.05,1044H324.11v-36h431.94V1044z
	 M771.79,972H308.36C157.75,933.53,48.58,803.06,37.28,648h1005.59C1031.57,803.06,922.41,933.53,771.79,972z M927.18,400.15
	l109.44,93.76l-39.41,46.1H807.55L927.18,400.15z M845.21,440.61l-23.56,27.54c-41.05-29.26-97.63-22.48-130.62,15.64
	c-4.48-13.81-6.78-28.22-6.86-42.73C731.78,405.16,797.38,404.97,845.21,440.61z M1044,143.6l-346.77-8.21
	c2.12-9,3.5-18.16,4.14-27.38H1044V143.6z"/>
</svg>
