<svg width="21" height="21" viewBox="0 0 21 21" fill="none" xmlns="http://www.w3.org/2000/svg">
<path d="M21 9.32963V15.4782C21 16.0214 20.898 16.5631 20.6709 17.058C20.3491 17.7591 19.797 18.6518 18.8552 19.4285C17.1154 20.8743 15.1053 21.0283 14.0822 20.9964C13.7934 20.9874 13.568 20.7498 13.568 20.465V15.5746C13.568 14.7382 13.2217 13.9821 12.6719 13.4336C12.1413 12.9104 11.4195 12.576 10.618 12.5458C8.86719 12.4801 7.43203 13.9875 7.43203 15.7149V20.465C7.43203 20.7498 7.20661 20.9874 6.91785 20.9964C5.89577 21.0283 3.8898 20.8739 2.14482 19.4285C1.27049 18.7042 0.730056 17.8786 0.398981 17.2019C0.133862 16.6602 0 16.068 0 15.4666V9.32963C0 8.86254 0.20025 8.41705 0.551284 8.1033C3.3537 5.59782 6.15633 3.09255 8.95918 0.587072C9.83481 -0.195691 11.165 -0.195691 12.0406 0.587072C14.8497 3.09255 17.6528 5.59782 20.4498 8.1033C20.8006 8.41747 21 8.86254 21 9.32963Z" fill="white"/>
</svg>
