<?xml version="1.0" encoding="utf-8"?>
<!-- Generator: Adobe Illustrator 25.0.0, SVG Export Plug-In . SVG Version: 6.00 Build 0)  -->
<svg version="1.1" id="Layer_1" xmlns="http://www.w3.org/2000/svg" xmlns:xlink="http://www.w3.org/1999/xlink" x="0px" y="0px"
	 viewBox="0 0 1080 1080" style="enable-background:new 0 0 1080 1080;" xml:space="preserve">
<path d="M1065.26,685.32h-38.06c7.8-14.1,12.39-31.23,12.39-49.7v-4.46c1.57,0.69,3.19,1.34,4.89,1.92
	c8.56,2.9,17.5,0.67,24.52-6.13c6.99-6.77,11-17.04,11-28.16c0-41.14-15.98-77.62-40.51-100.13
	c-1.01-80.8-14.28-154.01-39.56-217.68c-24.89-62.69-61.38-116.29-108.45-159.32C804.42,42.07,682.88,0,540,0
	C397.12,0,275.57,42.07,188.52,121.65c-47.07,43.03-83.56,96.63-108.44,159.32C54.79,344.65,41.52,417.85,40.5,498.65
	C15.99,521.16,0,557.64,0,598.78c0,11.13,4.01,21.39,11,28.16c7.03,6.8,15.96,9.04,24.52,6.14c2.96-1,5.69-2.21,8.26-3.54v6.08
	c0,18.47,4.59,35.6,12.4,49.7H14.74C6.6,685.32,0,693.66,0,703.95V785c0,10.29,6.6,18.64,14.74,18.64h25.66v89.44v100.73
	c0,47.53,30.6,86.19,68.21,86.19h862.77c37.61,0,68.21-38.66,68.21-86.19V893.08v-89.44h25.66c8.14,0,14.74-8.34,14.74-18.64v-81.05
	C1080,693.66,1073.4,685.32,1065.26,685.32z M29.51,596.48c0.97-46.61,31.27-84.14,68.38-84.14h765.35
	c8.14,0,14.74-8.34,14.74-18.63c0-10.29-6.6-18.63-14.74-18.63H97.89c-9.52,0-18.72,1.76-27.42,4.98
	C81.54,202.14,255.27,37.26,540,37.26c284.73,0,458.47,164.88,469.53,442.79c-8.71-3.22-17.9-4.98-27.42-4.98
	c-8.15,0-14.74,8.34-14.74,18.63c0,10.29,6.59,18.63,14.74,18.63c37.11,0,67.41,37.54,68.38,84.14
	c-7.67-3.08-13.34-8.76-19.85-15.27c-11.54-11.54-25.91-25.9-52.92-25.9c-27.01,0-41.37,14.36-52.91,25.9
	c-10.37,10.37-17.86,17.86-34.61,17.86c-16.76,0-24.25-7.49-34.63-17.86c-11.54-11.54-25.91-25.9-52.91-25.9
	c-27.01,0-41.37,14.36-52.91,25.9c-10.37,10.37-17.86,17.86-34.61,17.86c-16.75,0-24.25-7.49-34.61-17.86
	c-11.54-11.54-25.91-25.9-52.92-25.9c-27.01,0-41.37,14.36-52.92,25.9c-10.37,10.37-17.86,17.86-34.62,17.86
	c-16.76,0-24.25-7.49-34.63-17.86c-11.54-11.54-25.91-25.9-52.92-25.9c-27.01,0-41.38,14.36-52.92,25.9
	c-10.37,10.37-17.87,17.86-34.63,17.86c-16.76,0-24.25-7.49-34.62-17.86c-11.54-11.54-25.91-25.9-52.92-25.9
	c-27.01,0-41.38,14.36-52.92,25.9c-10.37,10.37-17.87,17.86-34.63,17.86c-16.76,0-24.26-7.49-34.63-17.86
	c-11.54-11.54-25.91-25.9-52.93-25.9c-27.02,0-41.38,14.36-52.93,25.9C42.87,587.72,37.19,593.4,29.51,596.48z M73.27,635.62v-30.66
	c7.9-7.43,15.41-12.38,29.04-12.38c16.76,0,24.26,7.49,34.63,17.86c11.55,11.54,25.91,25.9,52.93,25.9
	c27.01,0,41.38-14.36,52.92-25.9c10.37-10.37,17.87-17.86,34.63-17.86c16.76,0,24.25,7.49,34.63,17.86
	c11.54,11.54,25.91,25.9,52.92,25.9c27.01,0,41.38-14.36,52.92-25.9c10.37-10.37,17.87-17.86,34.63-17.86
	c16.76,0,24.26,7.49,34.63,17.86c11.54,11.54,25.91,25.9,52.92,25.9c27.01,0,41.37-14.36,52.92-25.9
	c10.37-10.37,17.86-17.86,34.62-17.86c16.75,0,24.25,7.49,34.62,17.86c11.54,11.54,25.9,25.9,52.92,25.9
	c27.01,0,41.37-14.36,52.91-25.9c10.37-10.37,17.86-17.86,34.61-17.86c16.76,0,24.25,7.49,34.62,17.86
	c11.54,11.54,25.91,25.9,52.92,25.9c27.01,0,41.37-14.36,52.91-25.9c10.37-10.37,17.86-17.86,34.61-17.86
	c15.52,0,23.11,6.44,32.39,15.64v27.4c0,27.4-17.64,49.7-39.33,49.7H112.6C90.91,685.32,73.27,663.02,73.27,635.62z M525.26,874.44
	H69.89v-70.81h455.37V874.44z M1010.1,993.8c0,26.98-17.37,48.93-38.72,48.93H108.61c-21.35,0-38.72-21.95-38.72-48.93v-82.1H540
	h470.1V993.8z M1010.1,874.44H554.74v-70.81h455.36V874.44z M1050.51,766.37h-25.66H540H55.15H29.49v-43.79h83.11h858.18h79.73
	V766.37z M282.08,244c0,10.29-6.6,18.63-14.74,18.63h-51.58c-8.14,0-14.74-8.34-14.74-18.63c0-10.29,6.6-18.63,14.74-18.63h51.58
	C275.48,225.37,282.08,233.71,282.08,244z M401.46,244c0,10.29-6.6,18.63-14.74,18.63h-51.58c-8.14,0-14.74-8.34-14.74-18.63
	c0-10.29,6.6-18.63,14.74-18.63h51.58C394.86,225.37,401.46,233.71,401.46,244z M520.84,244c0,10.29-6.6,18.63-14.74,18.63h-51.58
	c-8.14,0-14.74-8.34-14.74-18.63c0-10.29,6.6-18.63,14.74-18.63h51.58C514.24,225.37,520.84,233.71,520.84,244z M640.22,244
	c0,10.29-6.6,18.63-14.74,18.63H573.9c-8.14,0-14.74-8.34-14.74-18.63c0-10.29,6.6-18.63,14.74-18.63h51.58
	C633.63,225.37,640.22,233.71,640.22,244z M759.6,244c0,10.29-6.59,18.63-14.74,18.63h-51.58c-8.14,0-14.74-8.34-14.74-18.63
	c0-10.29,6.6-18.63,14.74-18.63h51.58C753,225.37,759.6,233.71,759.6,244z M454.52,160.51h-51.58c-8.14,0-14.74-8.34-14.74-18.63
	c0-10.29,6.6-18.63,14.74-18.63h51.58c8.14,0,14.74,8.34,14.74,18.63C469.26,152.17,462.66,160.51,454.52,160.51z M573.9,160.51
	h-51.58c-8.14,0-14.74-8.34-14.74-18.63c0-10.29,6.6-18.63,14.74-18.63h51.58c8.14,0,14.74,8.34,14.74,18.63
	C588.64,152.17,582.04,160.51,573.9,160.51z M693.28,160.51H641.7c-8.14,0-14.74-8.34-14.74-18.63c0-10.29,6.6-18.63,14.74-18.63
	h51.58c8.15,0,14.74,8.34,14.74,18.63C708.02,152.17,701.43,160.51,693.28,160.51z M878.99,244c0,10.29-6.6,18.63-14.75,18.63
	h-51.58c-8.14,0-14.74-8.34-14.74-18.63c0-10.29,6.6-18.63,14.74-18.63h51.58C872.39,225.37,878.99,233.71,878.99,244z"/>
</svg>
