<?xml version="1.0" encoding="utf-8"?>
<!-- Generator: Adobe Illustrator 25.0.0, SVG Export Plug-In . SVG Version: 6.00 Build 0)  -->
<svg version="1.1" id="Layer_1" xmlns="http://www.w3.org/2000/svg" xmlns:xlink="http://www.w3.org/1999/xlink" x="0px" y="0px"
	 viewBox="0 0 1080 1080" style="enable-background:new 0 0 1080 1080;" xml:space="preserve">
<path d="M1079.97,350.73c-0.01-0.52-0.03-1.03-0.07-1.54c-0.03-0.4-0.08-0.79-0.13-1.18c-0.05-0.41-0.1-0.82-0.17-1.22
	c-0.07-0.46-0.17-0.91-0.26-1.35c-0.07-0.34-0.15-0.67-0.23-1c-0.12-0.47-0.26-0.93-0.41-1.39c-0.09-0.31-0.2-0.63-0.3-0.94
	c-0.16-0.44-0.32-0.86-0.5-1.29c-0.14-0.33-0.28-0.66-0.43-0.98c-0.18-0.38-0.36-0.74-0.55-1.11c-0.19-0.36-0.38-0.72-0.58-1.07
	c-0.18-0.31-0.36-0.61-0.56-0.9c-0.24-0.38-0.49-0.76-0.75-1.12c-0.18-0.26-0.38-0.52-0.58-0.77c-0.28-0.36-0.57-0.72-0.87-1.07
	c-0.22-0.25-0.44-0.49-0.67-0.73c-0.3-0.32-0.59-0.63-0.91-0.93c-0.28-0.27-0.57-0.52-0.86-0.77c-0.28-0.24-0.55-0.48-0.85-0.71
	c-0.38-0.3-0.77-0.57-1.17-0.84c-0.18-0.12-0.34-0.26-0.53-0.38L638.92,54.24c-7.67-4.91-17.19-4.38-24.39,1.36l-74.79,59.69
	C529.07,49.81,477.78,0,416.26,0H392.8c-12.51,0-22.64,11.35-22.64,25.35c0,14,10.14,25.35,22.64,25.35h23.47
	c37.31,0,68.75,28.65,77.71,67.33c-50.54,11.4-90.33,56.39-99.96,113.2L9.52,537.48c-0.26,0.21-0.5,0.44-0.75,0.65
	c-0.22,0.19-0.44,0.37-0.65,0.57c-0.43,0.4-0.84,0.82-1.23,1.25c-0.09,0.1-0.19,0.19-0.28,0.29c-0.5,0.55-0.96,1.13-1.41,1.73
	c-0.08,0.1-0.14,0.22-0.22,0.32c-0.35,0.49-0.69,0.99-1,1.5c-0.15,0.24-0.28,0.49-0.42,0.73c-0.22,0.39-0.44,0.78-0.64,1.18
	c-0.15,0.3-0.3,0.62-0.44,0.93c-0.16,0.36-0.32,0.72-0.47,1.08c-0.14,0.34-0.27,0.69-0.4,1.05c-0.13,0.36-0.24,0.72-0.35,1.08
	c-0.11,0.36-0.22,0.72-0.32,1.08c-0.11,0.43-0.21,0.87-0.3,1.31c-0.07,0.3-0.14,0.6-0.2,0.91c-0.13,0.74-0.23,1.5-0.31,2.25
	c-0.02,0.21-0.02,0.43-0.04,0.64c-0.05,0.6-0.07,1.19-0.08,1.79c0,0.1-0.01,0.2-0.01,0.3v496.51c0,7.42,2.9,14.47,7.95,19.28
	c4.13,3.94,9.35,6.07,14.7,6.07c1.18,0,2.38-0.1,3.56-0.32l1034.71-184.46c10.99-1.96,19.08-12.58,19.08-25.04V351.44
	C1080,351.19,1079.97,350.96,1079.97,350.73z M519.17,165.93c45.29,0,82.13,41.25,82.13,91.96c0,50.71-36.85,91.96-82.13,91.96
	s-82.13-41.25-82.13-91.96C437.04,207.18,473.88,165.93,519.17,165.93z M45.29,951.24l842.65-166.6
	c12.31-2.44,20.53-15.59,18.36-29.38c-2.17-13.79-13.92-22.99-26.24-20.55L45.29,899.75v-85.89l842.65-166.6
	c12.31-2.43,20.53-15.59,18.36-29.37c-2.17-13.79-13.92-23-26.24-20.56L45.29,762.37v-81.53L946.53,500.8v363.47L45.29,1024.94
	V951.24z M991.82,856.2V470.52c0-7.5-2.97-14.62-8.11-19.44c-5.14-4.82-11.93-6.84-18.52-5.52L45.29,629.34v-49.83l859.3-165.3
	c12.33-2.37,20.6-15.48,18.48-29.28c-2.12-13.8-13.82-23.07-26.15-20.69l-780.2,150.08l278.79-222.05
	c13.78,62.11,63.98,108.29,123.66,108.29c70.26,0,127.42-64,127.42-142.67c0-49.94-23.06-93.94-57.85-119.44l40.28-32.14
	l405.7,259.83v482.41L991.82,856.2z"/>
</svg>
