<svg width="372" height="291" viewBox="0 0 372 291" fill="none" xmlns="http://www.w3.org/2000/svg">
<path fill-rule="evenodd" clip-rule="evenodd" d="M129.708 0.340749C129.49 0.466475 129.106 0.523587 129.082 0.282647C129.204 0.175858 129.342 0.0626004 129.506 0.0604774C129.669 0.0583546 129.825 0.243321 129.728 0.371446L129.708 0.340749Z" fill="#00160A"/>
<path fill-rule="evenodd" clip-rule="evenodd" d="M149.009 106.778C147.915 105.917 145.614 105.438 143.862 105.998C142.11 106.557 140.627 107.707 139.234 108.88C140.677 109.402 142.22 109.688 143.777 109.721C144.269 109.732 145.408 109.847 147.402 108.368" fill="#E7EAEE"/>
<path fill-rule="evenodd" clip-rule="evenodd" d="M56.1062 257.129C-5.56052 210.019 112.738 161.207 173.337 96.1176C206.358 60.6493 217.225 28.6173 251.715 20.1665C322.225 2.88988 359.027 128.763 350.236 155.502C317.085 256.327 81.6303 276.629 56.1062 257.129Z" fill="#1D9440"/>
<path fill-rule="evenodd" clip-rule="evenodd" d="M179.636 137.842C194.927 133.745 210.856 130.958 226.337 133.84C228.162 134.179 230.413 135.116 230.273 136.927C230.221 137.607 229.809 138.211 229.386 138.76C224.44 145.177 216.498 148.598 208.859 151.56C205.89 152.711 202.91 153.834 199.91 154.901C176.104 163.369 151.01 168.259 125.799 169.346C124.315 169.41 122.541 169.317 121.792 168.079C120.883 166.575 122.22 164.724 123.508 163.473C133.478 153.799 145.884 146.524 159.287 142.493C156.979 143.495 191.499 134.754 179.636 137.842Z" fill="white"/>
<path fill-rule="evenodd" clip-rule="evenodd" d="M254.929 67.9141C253.401 74.8358 252.488 81.9812 253.572 88.9342C253.619 89.2339 253.678 89.551 253.889 89.7724C254.315 90.2201 255.077 90.0439 255.68 89.8409C269.651 85.1379 285.055 83.8766 299.069 87.9482C303.858 89.3398 308.45 91.3336 313.325 92.4329C313.54 92.4814 313.782 92.5244 313.972 92.4114C314.164 92.2975 314.237 92.0659 314.293 91.8554C315.68 86.6442 316.728 81.3542 317.429 76.0275C317.678 74.1392 317.882 72.2188 317.568 70.3498C316.778 65.6446 312.367 61.8091 307.442 61.544C294.819 60.8647 282.196 60.1854 269.573 59.5061C267.266 59.3819 264.928 59.2596 262.652 59.7037C260.377 60.1478 258.131 61.2289 256.777 63.0699C255.736 64.4868 255.303 66.2219 254.929 67.9141Z" fill="white"/>
<path d="M250.911 223.608C251.195 224.759 254.293 224.84 254.961 223.823C255.628 222.806 255.392 221.508 255.131 220.351C251.626 204.766 247.744 189.783 243.279 174.445L288.453 173.577L297.534 215.043C297.787 216.219 299.784 216.147 300.495 215.136C301.207 214.125 301.013 212.8 300.787 211.619C298.463 199.454 295.406 187.427 292.898 175.32C291.569 168.906 300.068 166.629 306.241 156.626C309.314 151.645 311.39 145.354 311.39 145.354C315.924 159.665 321.075 173.85 323.814 188.613C324.022 189.735 325.922 189.704 326.61 188.753C327.27 187.841 327.137 186.643 326.94 185.556L326.915 185.421C324.03 169.972 316.703 137.22 312.705 115.552C311.191 107.348 310.937 99.167 310.773 94.3171C310.7 92.1765 309.246 92.6031 305.982 92.1302C304.645 91.9367 302.978 96.429 304.633 107.468L304.724 108.048C305.427 112.428 307.2 120.575 310.042 132.489C310.238 135.341 307.212 136.824 300.965 136.936L300.72 136.939C294.306 137.017 284.349 136.689 270.848 135.955L270.463 134.859C264.292 117.242 261.386 104.553 261.744 96.793L261.756 96.5546C262.414 84.7117 257.653 90.811 257.207 91.8622C254.227 98.9003 255.243 106.602 257.069 113.301L262.559 133.443C263.123 135.548 263.606 137.774 262.868 139.843C262.234 141.618 260.79 143.008 259.363 144.312L241.711 160.4C240.086 161.889 238.485 163.435 237.394 165.31C236.194 167.372 235.688 169.933 236.661 172.054C237.31 173.468 238.252 174.452 239.488 175.005L241.896 185.476C245.659 201.781 248.664 214.491 250.911 223.608Z" fill="white"/>
<path d="M151.032 251.397C151.362 252.536 149.592 253.408 148.505 252.861C147.419 252.314 146.975 251.071 146.622 249.94C141.865 234.689 137.106 219.428 133.304 203.913C120.241 211.753 107.178 219.593 94.1146 227.434C98.2818 240.355 102.449 253.277 106.616 266.199C106.985 267.344 105.22 268.28 104.099 267.76C102.977 267.241 102.483 265.997 102.087 264.86C98.0179 253.163 94.244 241.365 90.7702 229.48C90.3375 228 88.7882 227.149 87.3698 226.446C78.1708 221.889 68.9718 217.332 59.7728 212.774C63.0014 227.435 67.1352 241.893 72.1455 256.047C72.5263 257.123 70.8648 258.046 69.7939 257.567C68.723 257.088 68.243 255.91 67.8635 254.833C59.6879 231.645 54.5461 207.489 46.3542 184.306C44.3851 178.734 42.198 173.143 38.5868 168.417C42.2709 166.497 85.6187 145.231 80.2167 140.578C86.6443 143.666 89.0211 151.141 90.7893 157.856C92.5243 164.445 94.2593 171.035 95.9944 177.624C96.5822 179.856 97.2528 182.224 99.0383 183.741C100.533 185.01 102.577 185.48 104.535 185.908C112.021 187.547 119.508 189.185 126.994 190.823C129.357 191.34 131.762 191.874 133.833 193.059C135.903 194.245 137.622 196.209 137.84 198.533C138.058 200.857 136.377 203.419 133.957 203.746C136.571 203.587 136.188 203.116 136.867 202.503C141.589 218.801 146.31 235.099 151.032 251.397Z" fill="white"/>
<path d="M42.7542 171.789C41.5452 170.002 40.3363 168.215 39.1273 166.427C40.1367 166.399 70.8735 145.927 76.6268 142.536C77.1892 142.204 77.5129 142.036 77.5467 142.066C83.2803 147.143 85.4514 154.868 87.3733 162.176C89.1582 168.964 90.9431 175.751 92.7279 182.538C93.1211 184.033 93.3141 186.012 91.8965 186.783C83.5085 191.342 75.3771 196.351 67.5537 201.777C65.2466 203.377 62.8388 205.066 60.0465 205.467C58.5787 205.678 57.0926 205.516 55.6269 205.353C54.6759 205.248 53.5259 204.986 53.2902 204.096C51.3639 196.827 49.4375 189.557 47.5112 182.287C47.0006 180.36 46.4862 178.422 45.6493 176.61C44.8642 174.91 43.8069 173.346 42.7542 171.789Z" fill="white"/>
<path fill-rule="evenodd" clip-rule="evenodd" d="M20.7605 155.972L28.372 166.075C29.1044 167.047 29.9033 168.069 31.0833 168.481C33.0543 169.168 35.1876 167.914 36.9008 166.686C40.3863 164.187 43.7518 161.539 47.1172 158.89L47.1174 158.889C50.7739 156.011 54.4302 153.134 58.2401 150.449C65.5567 145.294 73.5815 140.807 82.3713 138.854C83.7747 138.542 84.5799 136.985 84.4772 135.618C84.3746 134.251 83.6034 133.04 82.8531 131.887L77.1951 123.199C75.2675 120.239 73.2615 117.199 70.2685 115.215C67.2756 113.231 63.0112 112.555 59.9175 114.54L22.4774 138.561C18.0698 141.388 16.1551 147.331 18.172 151.922C18.8156 153.388 19.7921 154.687 20.7605 155.972ZM67.6531 114.854C71.7362 116.731 74.4397 120.486 76.8942 124.125C78.9971 127.243 81.0543 130.395 82.858 133.685C83.2561 134.411 83.6507 135.177 83.6568 136.006C83.6628 136.834 83.1592 137.738 82.3168 137.946C74.0329 139.988 66.3586 144.006 59.2902 148.705C54.1136 152.146 49.2226 155.961 44.3317 159.776L44.3314 159.776C42.5441 161.17 40.7568 162.564 38.9555 163.94C37.5048 165.049 36.0256 166.156 34.3409 166.889C32.9812 167.48 31.0682 167.658 30.3368 166.443C29.0622 164.325 27.4937 162.399 25.924 160.471C24.8912 159.203 23.8578 157.934 22.9075 156.609C20.5129 153.272 18.6019 149.357 18.9337 145.265C19.0366 143.997 19.3712 142.707 20.1514 141.663C20.8431 140.738 21.8356 140.065 22.8088 139.412C34.8204 131.361 46.9892 123.528 59.3062 115.921C60.6525 115.09 62.0633 114.239 63.6404 114.059C65.0256 113.901 66.4108 114.283 67.6531 114.854ZM39.1273 166.427L42.7542 171.789C43.8069 173.346 44.8642 174.91 45.6493 176.61C46.4862 178.422 47.0005 180.36 47.5112 182.287L53.2902 204.096C53.5259 204.986 54.6758 205.248 55.6269 205.353C57.0926 205.516 58.5787 205.677 60.0465 205.467C62.8054 205.07 65.1889 203.417 67.4709 201.834L67.5537 201.777C75.377 196.351 83.5084 191.342 91.8964 186.783C93.3141 186.012 93.1211 184.033 92.7279 182.538L87.3733 162.176C85.4514 154.868 83.2803 147.143 77.5467 142.066C77.1668 141.729 76.5868 141.397 76.1689 141.708C79.4459 144.877 81.9983 148.735 83.6041 152.948C84.3428 154.886 84.8819 156.891 85.4198 158.893L91.8465 182.812C92.1703 184.017 92.3359 185.612 91.1964 186.243C83.9605 190.249 76.705 194.268 69.9931 199.058C69.73 199.246 69.4661 199.436 69.2013 199.626L69.1975 199.629C65.8626 202.025 62.3824 204.526 58.3081 204.883C56.3901 205.051 54.0688 204.399 53.6285 202.61L50.2502 188.884C48.4489 181.565 46.5335 174.01 41.7787 168.093C41.1087 167.259 40.2354 166.396 39.1273 166.427ZM96.1053 188.738C86.8331 192.887 77.993 197.941 69.78 203.788C68.4372 204.744 67.1114 205.721 65.7856 206.698L65.7852 206.698L65.7848 206.699L65.7844 206.699L65.784 206.699L65.7836 206.7L65.7831 206.7L65.7827 206.7L65.7823 206.701L65.7819 206.701L65.7815 206.701L65.7811 206.701L65.7806 206.702L65.7802 206.702L65.7798 206.702L65.7794 206.703L65.779 206.703L65.7786 206.703L65.7781 206.704L65.7777 206.704L65.7764 206.705L63.8826 208.101C63.2814 207.778 63.8184 206.903 64.3683 206.472C73.4688 199.34 83.5641 193.346 94.284 188.707C94.894 188.443 95.7382 188.233 96.1053 188.738ZM64.8824 128.192C64.9069 128.719 65.249 129.192 65.6882 129.491C66.1668 129.817 66.8671 129.943 67.3152 129.569C67.9408 129.048 67.607 128.009 67.0097 127.468C66.6656 127.156 66.2031 126.909 65.7419 127.003C65.2157 127.11 64.8579 127.666 64.8824 128.192ZM66.721 128.963C66.3944 129.219 65.8215 129.001 65.7613 128.596C65.701 128.192 66.1846 127.811 66.5715 127.959C66.9583 128.107 67.0476 128.706 66.721 128.963ZM45.8379 141.558C45.1354 141.11 44.7297 140.055 45.2138 139.383C45.3074 139.253 45.4304 139.143 45.5765 139.084C45.9082 138.949 46.2865 139.093 46.6076 139.266C47.3203 139.65 48.0375 140.456 47.7256 141.209C47.4407 141.897 46.4632 141.957 45.8379 141.558ZM46.4777 139.982C46.3127 139.888 46.1181 139.791 45.9472 139.865C45.6195 140.007 45.7695 140.536 46.0198 140.807C46.3019 141.113 46.8468 141.32 47.0567 140.967C47.2721 140.605 46.8437 140.191 46.4777 139.982ZM36.249 146.381C36.0058 146.709 36.0805 147.141 36.2155 147.503C36.3735 147.926 36.6129 148.338 37.0065 148.595C37.4001 148.852 37.974 148.917 38.3929 148.658C38.7963 148.408 38.9655 147.912 38.8806 147.486C38.7957 147.059 38.4968 146.7 38.1413 146.425C37.606 146.012 36.6613 145.825 36.249 146.381ZM37.0243 146.887C37.2467 146.642 37.8039 146.803 37.7013 147.105L37.9109 147.332C38.2676 147.278 38.3513 147.853 38.0311 148.017C37.7108 148.18 37.3156 148.001 37.1009 147.746C36.8981 147.505 36.8019 147.133 37.0243 146.887ZM51.7284 126.168C52.0956 126.134 52.4832 126.153 52.7969 126.331C53.1106 126.508 53.3237 126.88 53.2139 127.219C53.119 127.512 52.8251 127.702 52.5444 127.852C52.1334 128.071 51.6844 128.263 51.2196 128.249C50.7548 128.236 50.2765 127.962 50.1784 127.528C50.0126 126.794 50.9435 126.239 51.7284 126.168ZM51.6358 126.978C51.2823 126.896 50.8824 127.203 50.8868 127.554C51.4863 127.714 52.1831 127.506 52.595 127.044C52.4078 126.765 51.9331 126.725 51.6857 126.968L51.6358 126.978ZM149.272 250.842L135.108 201.947C134.429 202.561 134.622 203.61 134.87 204.457L148.719 251.86C147.299 252.342 146.246 250.653 145.815 249.288C140.99 234.008 136.45 218.639 132.198 203.191C134.617 202.864 136.298 200.302 136.081 197.978C135.863 195.654 134.144 193.689 132.073 192.504C130.003 191.318 127.598 190.785 125.235 190.268L102.776 185.353C100.817 184.925 98.7733 184.455 97.2791 183.185C95.4935 181.668 94.823 179.301 94.2351 177.068L89.03 157.301C87.2618 150.586 84.885 143.111 78.4574 140.022C83.8594 144.676 86.7518 151.454 88.5981 158.235C89.2941 160.79 89.8664 163.381 90.4384 165.971L90.4384 165.972C91.3838 170.252 92.3286 174.531 93.8309 178.644C94.5424 180.593 95.4296 182.569 97.0568 183.905C98.3663 184.981 100.045 185.549 101.704 186.027C105.639 187.16 109.706 187.913 113.767 188.666L113.767 188.666L113.767 188.666C120.135 189.846 126.488 191.024 132.3 193.657C133.768 194.322 135.264 196.328 133.839 197.135C119.622 205.183 105.771 213.844 92.3432 223.081C91.3041 223.796 89.894 223.267 88.7778 222.722L59.4046 208.385C58.3448 207.868 56.9827 208.76 56.6111 209.864C56.2396 210.968 56.5556 212.149 56.8724 213.253L69.3486 256.731C67.3388 255.679 66.4842 253.388 65.804 251.283C62.6033 241.375 59.7883 231.345 56.9737 221.317L56.9737 221.317C52.9048 206.82 48.8369 192.326 43.606 178.207C42.1543 174.29 40.4199 170.161 36.8275 167.862C40.4387 172.588 42.6258 178.178 44.5949 183.751C48.702 195.374 52.0423 207.241 55.3827 219.108C58.7051 230.912 62.0275 242.715 66.1042 254.278C66.4837 255.354 66.9637 256.533 68.0346 257.012C69.1055 257.491 70.7671 256.568 70.3862 255.492C65.3759 241.337 61.2421 226.88 58.0135 212.219L85.6105 225.891C87.0289 226.594 88.5782 227.445 89.0109 228.925C92.4847 240.81 96.2586 252.608 100.328 264.305C100.724 265.441 101.218 266.686 102.34 267.205C103.461 267.724 105.226 266.788 104.857 265.644L92.3553 226.878L131.545 203.358C135.346 218.873 140.106 234.134 144.862 249.384C145.215 250.516 145.66 251.758 146.746 252.305C147.833 252.852 149.602 251.98 149.272 250.842ZM88.3144 226.552L58.2492 211.076C57.736 210.812 57.1402 210.374 57.2997 209.827C57.5129 209.097 58.6381 209.268 59.3324 209.606L90.9713 224.979C105.209 215.425 119.778 206.335 134.645 197.732C135.236 198.188 135.221 199.109 134.821 199.747C134.421 200.385 133.74 200.807 133.084 201.205L92.815 225.648C92.308 225.956 91.7616 226.311 91.5913 226.861C91.4573 227.293 91.589 227.75 91.7214 228.176C93.1516 232.783 94.7083 237.352 96.2648 241.921L96.2648 241.921C99.0992 250.242 101.933 258.56 104 267.096C100.18 263.381 98.5886 258.096 97.1295 253.036L90.5139 230.097C90.1191 228.728 89.6137 227.221 88.3144 226.552ZM33.0437 141.256C32.8979 141.408 32.698 141.501 32.4935 141.557C31.8759 141.726 31.1462 141.544 30.7829 141.035C30.4196 140.527 30.5458 139.71 31.103 139.397C31.5313 139.156 32.0827 139.248 32.5058 139.486C33.1328 139.839 33.5449 140.734 33.0437 141.256ZM31.7863 139.969C31.3707 139.982 31.2796 140.653 31.6256 140.873C31.9716 141.093 32.4569 140.931 32.7608 140.65L31.8017 139.979L31.7863 139.969ZM71.2419 120.933L70.1104 120.492C69.8852 120.405 69.6437 120.315 69.4119 120.371C69.0226 120.463 68.823 120.957 68.9256 121.362C69.0282 121.766 69.354 122.076 69.7065 122.283C70.2014 122.573 70.8514 122.692 71.3078 122.359C71.7643 122.027 71.7731 121.14 71.2419 120.933ZM69.574 121.396C69.6109 121.145 69.9651 121.03 70.1409 121.212L70.2033 121.242C70.5972 121.18 71.0145 121.517 71.0559 121.93C70.5242 121.963 69.978 121.766 69.574 121.396ZM59.0181 141.714C58.7946 141.48 58.6085 141.182 58.6176 140.858C58.6362 140.194 59.4605 139.828 60.1119 139.952C60.9472 140.111 61.67 141.099 61.2149 141.818C60.7624 142.533 59.6036 142.326 59.0181 141.714ZM59.9082 141.496L60.5414 141.596C60.7485 141.299 60.5859 140.82 60.241 140.711C59.8961 140.602 59.4895 140.901 59.49 141.263L59.9078 141.496L59.9082 141.496ZM58.9036 134.374C59.0002 133.803 58.5503 133.289 57.9718 133.047C57.6337 132.905 57.2151 132.839 56.8485 132.986C56.3147 133.2 56.1022 133.809 56.2812 134.255C56.4603 134.7 56.9274 135.001 57.4199 135.207C57.9987 135.449 58.807 134.945 58.9036 134.374ZM57.508 133.571C57.7438 133.615 57.9101 133.778 58.0484 133.94L58.0429 134.029C58.3863 134.033 58.2447 134.569 57.9003 134.618C57.5559 134.667 57.2866 134.428 57.0898 134.204C57.0056 134.107 56.9198 133.999 56.9351 133.873C56.9606 133.662 57.2722 133.527 57.508 133.571ZM69.8757 137.915C69.5035 137.582 69.2378 137.038 69.4422 136.583C69.7585 135.879 70.8155 136.014 71.4618 136.435C71.7123 136.599 71.9575 136.802 72.0611 137.083C72.247 137.588 71.8665 138.179 71.3547 138.331C70.8428 138.483 70.2759 138.272 69.8757 137.915ZM70.9551 137.007L70.3698 136.799C70.2176 137.038 70.2695 137.388 70.4848 137.574C70.7002 137.759 71.0515 137.757 71.263 137.569C71.387 137.354 71.1992 137.034 70.9519 137.038L70.9551 137.007ZM60.2599 120.536C60.1721 120.746 60.2197 120.974 60.2942 121.179C60.4724 121.668 60.8315 122.127 61.3785 122.299C61.9254 122.472 62.6663 122.265 62.9167 121.773C63.2387 121.14 62.6321 120.484 61.9587 120.206C61.3862 119.969 60.4893 119.984 60.2599 120.536ZM61.1905 120.861C61.3821 120.642 61.8693 120.729 61.8398 120.997L62.0038 120.994C62.1946 121.192 62.2665 121.477 62.1924 121.742C61.8913 121.736 61.575 121.712 61.3408 121.558C61.1066 121.404 60.9989 121.079 61.1905 120.861ZM23.1696 144.455C23.3744 143.859 24.2346 143.691 24.8615 143.869C25.4658 144.04 26.039 144.652 25.7175 145.179C25.5541 145.447 25.2168 145.579 24.8965 145.64C24.4648 145.722 23.9969 145.705 23.6307 145.494C23.2645 145.284 23.0344 144.849 23.1696 144.455ZM24.3847 144.428L23.9137 144.818C24.2108 145.09 24.7196 145.135 25.0852 144.92C25.067 144.631 24.7357 144.407 24.4315 144.478L24.3847 144.428ZM40.5989 134.026C41.1441 134.21 41.77 133.985 42.1895 133.589C42.3479 133.44 42.4903 133.252 42.501 133.037C42.5212 132.633 42.0899 132.362 41.6986 132.243C41.0849 132.057 40.2744 132.099 39.9696 132.66C39.696 133.164 40.0538 133.841 40.5989 134.026ZM40.5865 133.195C40.5012 132.98 40.7705 132.7 40.9667 132.826L40.9816 132.765C41.2504 132.688 41.5595 132.779 41.7397 132.988C41.5794 133.158 41.4092 133.336 41.1858 133.409C40.9624 133.483 40.6717 133.411 40.5865 133.195ZM41.532 153.682C41.9136 153.244 42.693 153.212 43.0929 153.617C43.4929 154.023 43.4194 154.771 42.9458 155.116C42.537 155.414 41.9064 155.37 41.5611 155.019C41.2158 154.669 41.2026 154.06 41.532 153.682ZM42.7303 154.577C42.744 154.188 42.2777 153.873 41.8985 154.014C41.8928 154.409 42.3282 154.741 42.7287 154.647L42.7303 154.577ZM34.2439 159.188C34.0685 159.429 34.1097 159.782 34.2086 160.078C34.4815 160.893 35.4658 161.586 36.0746 161.05C36.4244 160.742 36.4567 160.136 36.2145 159.707C35.9722 159.279 35.5133 159.023 35.0538 158.95C34.7595 158.904 34.4221 158.943 34.2439 159.188ZM35.3024 159.713C35.5593 159.715 35.768 160.051 35.6649 160.298L35.8862 160.46C35.5774 160.6 35.1292 160.622 34.9738 160.294C34.8563 160.046 35.0455 159.712 35.3024 159.713ZM31.2131 153.876C31.141 154.011 31.0374 154.13 30.9124 154.223C30.69 154.388 30.3991 154.466 30.1239 154.433C29.542 154.363 29.1146 153.751 29.2659 153.203C29.4172 152.656 30.1122 152.301 30.6609 152.491C31.2096 152.68 31.4847 153.371 31.2131 153.876ZM30.6592 153.901C30.924 153.583 30.5413 153.036 30.1369 153.155C29.9835 153.308 29.8926 153.517 29.888 153.726C30.1189 153.841 30.3833 153.897 30.6467 153.885L30.6592 153.901ZM78.9492 132.806C78.7047 132.412 78.3567 131.968 77.8085 132C77.2202 132.035 76.8178 132.654 76.9137 133.135C77.0103 133.621 77.5433 134.015 78.1356 133.939C78.7279 133.862 79.2137 133.233 78.9492 132.806ZM78.0958 132.88C78.3117 133.019 78.166 133.393 77.8815 133.43L77.8894 133.331C77.7006 133.341 77.5546 133.165 77.6248 133.011C77.695 132.857 77.9549 132.785 78.0958 132.88ZM73.0888 126.81C72.7915 126.233 73.2486 125.419 73.9192 125.332C74.6846 125.232 75.3364 126.153 74.9666 126.811C74.5967 127.469 73.4283 127.469 73.0888 126.81ZM74.0588 126.85C74.3587 126.837 74.6064 126.503 74.5025 126.234C74.3986 125.965 73.9645 125.889 73.7704 126.113C73.5763 126.337 73.7591 126.745 74.0591 126.742L74.0588 126.85ZM52.3196 145.7C52.1962 145.501 52.0027 145.346 51.781 145.269C51.0386 145.01 50.185 145.884 50.4656 146.616C50.7463 147.348 51.9664 147.43 52.3457 146.742C52.5217 146.423 52.5113 146.01 52.3196 145.7ZM51.193 146.533C51.0678 146.32 51.25 146.001 51.4982 145.999C51.7464 145.998 51.9319 146.314 51.8088 146.529C51.6858 146.744 51.3182 146.746 51.193 146.533Z" fill="#00160A"/>
<path fill-rule="evenodd" clip-rule="evenodd" d="M266.226 63.66C266.353 63.7076 266.451 63.7936 266.533 63.8871C266.901 64.3098 266.926 64.9859 266.456 65.4065C265.986 65.8272 265.031 65.7679 264.869 65.2499C264.817 65.0844 264.846 64.9026 264.886 64.7273C264.953 64.4397 265.058 64.1425 265.294 63.9139C265.529 63.6853 265.925 63.5474 266.226 63.66ZM266.074 64.5422C266.229 64.4533 266.108 64.213 265.934 64.2634C265.514 64.4964 265.442 65.0682 265.803 65.3057C265.979 65.0741 266.074 64.8038 266.072 64.5415L266.074 64.5422ZM288.898 66.6418C289.35 66.6754 289.758 66.347 290.032 66.0028C290.333 65.6256 290.56 65.1682 290.491 64.7238C290.422 64.2793 289.967 63.8873 289.472 63.9757C289.125 64.0377 288.857 64.3014 288.645 64.5652C288.362 64.9188 288.119 65.3255 288.119 65.7506C288.118 66.1756 288.432 66.6073 288.898 66.6418ZM290.028 64.7357L289.315 65.819L289.304 65.8537L288.879 65.7203C288.925 65.4319 288.979 65.1272 289.184 64.8944C289.388 64.6617 289.798 64.5465 290.028 64.7357ZM300.349 68.5635C299.888 68.3119 299.873 67.6496 300.011 67.142C300.11 66.7752 300.271 66.4023 300.579 66.183C300.888 65.9637 301.373 65.9642 301.6 66.2697C301.741 66.4601 301.753 66.7147 301.751 66.9519C301.747 67.3846 301.705 67.8392 301.465 68.197C301.225 68.5548 300.727 68.7701 300.349 68.5635ZM301.27 67.0105C301.287 66.9294 301.298 66.8416 301.264 66.7662C301.228 66.6881 301.142 66.6362 301.057 66.6414C300.58 66.9256 300.384 67.6016 300.632 68.102C300.954 67.8204 301.182 67.4312 301.27 67.0105ZM299.125 77.6661C299.78 77.9238 300.408 77.1604 300.589 76.4988C300.71 76.0525 300.768 75.5925 300.76 75.1357C300.755 74.8539 300.671 74.5104 300.381 74.4485C300.241 74.4185 300.093 74.4685 299.961 74.5289C299.078 74.9334 298.499 75.8832 298.583 76.7906C298.616 77.1478 298.777 77.5293 299.125 77.6661ZM300.142 75.3658C300.222 75.4857 300.159 75.6457 300.096 75.7786L299.452 77.1234C299.118 76.5217 299.334 75.6852 299.931 75.2688C300.014 75.2618 300.098 75.3005 300.142 75.3658ZM237.163 165.429C236.967 166.716 237.893 168.213 239.243 168.148C252.955 167.486 266.686 167.556 280.353 168.358C284.882 168.624 289.9 168.831 293.492 166.078C294.888 165.009 295.929 163.58 296.948 162.174L307.579 147.506C304.588 154.562 300.311 161.137 295.005 166.839C293.736 168.203 292.365 169.548 290.647 170.327C288.508 171.297 286.069 171.29 283.726 171.264L242.715 170.804C241.077 170.785 238.793 169.898 239.445 168.44C238.305 169.221 238.855 170.906 239.517 172.059L283.868 172.499C285.969 172.52 288.144 172.527 290.09 171.718C292.023 170.914 293.526 169.389 294.94 167.881C300.957 161.467 306.618 154.314 308.666 145.969C308.726 145.726 308.784 145.479 308.843 145.231L308.843 145.23C309.368 143.006 309.928 140.639 311.835 139.33C316.571 155.553 320.676 171.958 324.139 188.501C324.371 189.611 326.269 189.52 326.912 188.55C327.554 187.58 327.322 186.337 327.067 185.233L312.35 121.516C310.282 112.56 308.208 103.27 310.206 94.2056C307.29 102.748 309.288 111.927 311.306 120.594L326.166 184.424C326.534 186.006 326.765 187.982 325.408 188.993L312.692 138.327C310.068 138.793 308.877 141.682 307.888 144.079L307.87 144.124C305.001 151.082 299.94 157.008 294.962 162.802C292.864 165.244 290.217 167.928 286.973 167.696C270.794 166.538 254.53 166.225 238.274 166.758C239.495 163.472 241.889 160.701 244.351 158.114C248.765 153.474 253.557 149.163 258.666 145.236L258.882 145.07L259.024 144.961C261.393 143.144 263.859 141.253 265.033 138.595C266.614 135.019 265.475 130.993 264.383 127.312C262.882 122.257 261.498 117.167 260.233 112.047C258.507 105.064 257.002 97.7486 258.738 90.6893C255.705 95.0286 256.819 100.722 258.052 105.724L264.095 130.247C264.85 133.309 265.535 136.787 263.699 139.456C263.009 140.46 262.023 141.239 261.054 142.004L260.986 142.057C253.214 148.194 245.927 154.902 239.212 162.099C238.301 163.076 237.36 164.143 237.163 165.429ZM299.885 214.127C299.416 214.789 298.077 214.858 297.92 214.103C295.075 200.392 292.316 186.662 289.641 172.914C289.155 172.769 288.949 173.507 289.043 173.975L296.105 209.407C296.474 211.259 296.85 213.132 297.697 214.826C298.186 215.803 299.971 215.468 300.574 214.501C301.178 213.534 300.971 212.355 300.745 211.29L292.434 172.139C292.328 171.641 291.896 171.003 291.418 171.281L300.052 211.864C300.212 212.618 300.354 213.465 299.885 214.127ZM244.252 172.629L255.073 219.417C255.307 220.431 253.784 221.212 252.774 220.81C251.763 220.408 251.255 219.37 250.875 218.401C249.102 213.887 248.263 209.087 247.427 204.302L247.427 204.302C247.298 203.562 247.168 202.823 247.036 202.085C245.331 192.596 243.031 183.222 240.152 174.024C240.068 173.757 240.492 173.54 240.757 173.662C241.022 173.784 241.135 174.075 241.224 174.341C244.196 183.197 245.955 192.384 247.714 201.57C248.395 205.126 249.076 208.681 249.827 212.217C250.338 214.627 250.899 217.07 252.164 219.197C252.414 219.616 252.731 220.051 253.227 220.178C253.723 220.305 254.382 219.908 254.273 219.435L243.735 173.834C243.623 173.349 243.72 172.608 244.252 172.629ZM308.687 76.8142C308.785 76.7634 308.894 76.721 309.004 76.7404C309.182 76.7719 309.303 76.9528 309.374 77.1283C309.699 77.9208 309.383 78.9239 308.681 79.3315C308.382 79.5052 307.899 79.505 307.787 79.1575C307.501 78.272 307.905 77.2193 308.687 76.8142ZM308.902 78.0039C309.015 77.8242 309.017 77.5728 308.909 77.3835C308.437 77.6368 308.173 78.2465 308.295 78.7988C308.601 78.658 308.832 78.3578 308.9 78.0128L308.902 78.0039ZM277.555 81.1611C277.42 81.0276 277.253 80.9245 277.07 80.8619C276.44 80.6457 275.651 80.9966 275.401 81.605C275.15 82.2134 275.48 82.9753 276.099 83.2186C276.719 83.4619 277.522 83.1449 277.8 82.5474C278.014 82.0886 277.912 81.515 277.555 81.1611ZM276.951 82.51C276.59 82.6655 276.126 82.3377 276.173 81.9609C276.22 81.5841 276.755 81.3538 277.068 81.5752C277.382 81.7965 277.312 82.3546 276.951 82.51ZM307.809 84.2837C307.95 84.3098 308.091 84.3921 308.147 84.5269C308.186 84.6223 308.178 84.7297 308.17 84.8324L308.124 85.3855C308.094 85.759 308.059 86.1467 307.872 86.4684C307.685 86.7901 307.3 87.024 306.948 86.9093C306.339 86.7112 306.387 85.8108 306.646 85.2214C306.865 84.7249 307.28 84.1861 307.809 84.2837ZM307.502 85.7546C307.646 85.5343 307.64 85.2228 307.489 85.005C307.011 85.2909 306.879 86.0313 307.225 86.4779L307.524 85.7699L307.502 85.7546ZM287.64 80.7425C287.574 80.6633 287.498 80.588 287.403 80.5458C287.095 80.4103 286.75 80.6634 286.54 80.9256C286.268 81.2635 286.058 81.6694 286.06 82.0945C286.063 82.5197 286.325 82.9566 286.745 83.0712C287.474 83.2703 288.126 82.3971 288.038 81.6646C287.998 81.3278 287.858 81.0043 287.64 80.7425ZM286.98 82.4875C286.709 82.458 286.57 82.0792 286.758 81.8841L286.753 81.8861L287.178 81.2025C287.508 81.5686 287.407 82.22 286.98 82.4875ZM266.164 83.264C266.07 83.4218 265.932 83.5548 265.769 83.6449C265.102 84.0148 264.138 83.3976 264.222 82.6545C264.307 81.9114 265.389 81.4927 265.959 81.9828C266.317 82.2907 266.407 82.8568 266.164 83.264ZM265.31 82.39C265.064 82.4113 264.87 82.6771 264.929 82.9105C264.989 83.1439 265.287 83.2832 265.513 83.1832C265.708 82.9004 265.634 82.4758 265.355 82.2777L265.31 82.39ZM310.578 69.026C311.035 68.6221 311.085 67.8771 311.02 67.2209C310.961 66.636 310.142 66.4635 309.749 66.8417C309.356 67.2199 309.288 67.8565 309.244 68.4374C309.195 69.0892 310.121 69.4299 310.578 69.026ZM310.233 67.2804C310.453 67.2825 310.601 67.6354 310.453 67.8049L310.452 67.7994C310.519 68.1167 310.286 68.453 309.991 68.4635C309.893 68.0482 309.986 67.5944 310.233 67.2804ZM288.346 75.5686C287.813 75.7092 287.266 75.1254 287.25 74.5387C287.233 73.952 287.607 73.4363 288.058 73.1119C288.381 72.8795 288.873 73.1054 289.062 73.4817C289.25 73.8581 289.2 74.3132 289.072 74.706C288.947 75.0871 288.716 75.4709 288.346 75.5686ZM288.612 74.2144L288.557 73.7673C288.044 73.8097 287.701 74.4834 287.94 74.9752C288.061 75.0236 288.2 75.0164 288.312 74.9557C288.344 74.6916 288.438 74.4383 288.584 74.2253L288.612 74.2144ZM275.985 75.2868C276.545 75.1481 276.81 74.5883 276.839 74.1229C276.862 73.764 276.751 73.3537 276.351 73.2435C275.906 73.1207 275.389 73.4578 275.142 73.8254C274.922 74.1521 274.823 74.5418 274.971 74.8606C275.119 75.1794 275.557 75.3929 275.985 75.2868ZM275.858 73.8844C276.059 73.7613 276.348 73.9786 276.213 74.1513L276.192 74.133C276.16 74.3494 276.041 74.5649 275.859 74.7379C275.574 74.5461 275.574 74.1308 275.858 73.8844ZM300.249 83.1704C300.244 83.0775 300.234 82.9797 300.177 82.9052C300.091 82.7911 299.922 82.7666 299.774 82.7847C299.134 82.8629 298.734 83.5139 298.587 84.1179C298.457 84.6517 298.579 85.3818 299.139 85.4592C299.677 85.5333 300.045 84.9255 300.155 84.4108C300.242 84.0023 300.274 83.5842 300.249 83.1704ZM299.298 84.254C299.163 84.1245 299.195 83.8732 299.36 83.7717L299.345 83.7909C299.475 83.7434 299.615 83.8807 299.593 84.0114C299.572 84.142 299.435 84.2364 299.298 84.254ZM278.336 65.7938C278.108 66.1388 277.842 66.4718 277.483 66.6672C277.372 66.7281 277.244 66.6145 277.169 66.5076C276.754 65.9174 276.567 65.0737 276.959 64.4811C277.352 63.8885 278.434 63.9032 278.65 64.595C278.779 65.0072 278.569 65.4403 278.336 65.7938ZM277.896 64.6573C277.428 64.7481 277.263 65.4264 277.522 65.8449C277.898 65.6139 278.081 65.0974 277.939 64.6641L277.896 64.6573ZM265.768 72.6208C265.656 72.2871 265.318 72.0071 264.98 72.0762C264.705 72.1324 264.515 72.3923 264.42 72.6601C264.271 73.0783 264.319 73.6038 264.651 73.8979C264.984 74.192 265.612 74.0874 265.727 73.6581C265.818 73.3198 265.88 72.9545 265.768 72.6208ZM265.055 73.6693L264.892 73.2233L264.898 73.2162C264.909 73.001 264.996 72.7915 265.14 72.6343C265.397 72.9243 265.356 73.4317 265.055 73.6693ZM256.952 82.2481C257.281 82.553 257.264 83.09 257.149 83.5247C257.11 83.6729 257.059 83.8253 256.951 83.9278C256.72 84.1452 256.333 84.0398 256.091 83.8237C255.735 83.5056 255.57 82.9384 255.779 82.5125C255.988 82.0866 256.601 81.9231 256.952 82.2481ZM256.269 83.0486C256.305 83.1821 256.486 83.2462 256.588 83.1612C256.69 83.0762 256.668 82.8788 256.55 82.8145C256.434 82.7706 256.302 82.9107 256.346 83.0311L256.269 83.0486ZM257.54 75.0949C258.036 74.9828 258.309 74.3346 258.032 73.9302C257.965 73.8327 257.874 73.7511 257.768 73.694C257.33 73.4573 256.68 73.769 256.601 74.254C256.522 74.7391 257.045 75.207 257.54 75.0949ZM257.391 74.0839C257.613 74.0292 257.573 74.4605 257.346 74.477L257.351 74.4846C257.232 74.382 257.254 74.1677 257.391 74.0839Z" fill="#00160A"/>
<path fill-rule="evenodd" clip-rule="evenodd" d="M304.724 60.5493C307.63 60.7062 310.664 60.8992 313.144 62.337C316.25 64.1385 317.946 67.6498 318.374 71.1529C318.801 74.656 318.135 78.2077 317.472 81.6959C316.722 85.6383 315.972 89.5806 315.222 93.5229C308.977 92.4375 303.157 89.8322 297.037 88.2445C283.684 84.7803 269.249 86.3007 255.976 90.5062C254.859 90.86 253.349 91.0999 252.788 90.1179C252.621 89.8257 252.587 89.4799 252.559 89.1449C251.922 81.5804 252.568 73.8931 254.464 66.4827C254.745 65.3842 255.058 64.2787 255.629 63.2866C256.949 60.9959 259.519 59.5713 262.148 58.9847C264.777 58.3981 267.501 58.5395 270.181 58.6842C281.695 59.3059 293.21 59.9276 304.724 60.5493ZM254.929 67.9139C253.401 74.8357 252.488 81.981 253.572 88.934C253.619 89.2337 253.678 89.5508 253.889 89.7722C254.315 90.2199 255.077 90.0438 255.68 89.8407C269.651 85.1377 285.055 83.8764 299.069 87.948C303.858 89.3396 308.45 91.3334 313.325 92.4327C313.54 92.4812 313.781 92.5241 313.972 92.4112C314.164 92.2973 314.237 92.0657 314.293 91.8552C315.68 86.644 316.728 81.354 317.429 76.0273C317.678 74.139 317.882 72.2186 317.568 70.3496C316.778 65.6445 312.367 61.8089 307.442 61.5438C294.819 60.8645 282.196 60.1852 269.573 59.5059C267.266 59.3817 264.928 59.2595 262.652 59.7035C260.376 60.1476 258.131 61.2287 256.777 63.0697C255.736 64.4866 255.303 66.2217 254.929 67.9139Z" fill="#00160A"/>
<path fill-rule="evenodd" clip-rule="evenodd" d="M168.24 121.668C167.655 122.217 166.616 121.888 166.169 121.256C165.82 120.764 165.709 120.164 165.599 119.568C165.568 119.399 165.537 119.23 165.5 119.064C165.154 117.493 164.298 116.106 163.445 114.722C163.179 114.29 162.913 113.859 162.663 113.423C158.506 106.174 158.76 96.718 163.305 89.4567C164.459 90.6594 166.628 90.4768 168.056 89.5047C169.484 88.5325 170.347 86.991 171.147 85.5049C171.948 84.0188 172.789 82.4718 174.194 81.4693C172.974 81.5918 171.778 81.9942 170.736 82.6329C170.156 81.1625 168.157 80.4075 166.635 81.0838C165.596 81.5456 164.476 80.8054 163.58 80.1637C162.685 79.522 161.375 78.9537 160.501 79.6659C161.975 80.0551 162.354 81.8816 162.17 83.3455C162.136 83.6125 162.093 83.8837 162.05 84.1564C161.857 85.3782 161.659 86.6294 162.261 87.669C162.835 88.6584 162.188 89.8861 161.626 90.9106C158.471 96.6591 157.794 103.553 159.788 109.631C158.055 108.319 156.039 107.344 153.894 106.781C153.494 106.676 153.085 106.583 152.676 106.49C151.226 106.161 149.766 105.83 148.64 104.941C147.313 103.892 145.354 103.81 143.675 104.312C141.996 104.814 140.528 105.819 139.095 106.807C138.697 107.081 138.249 107.463 138.335 107.916C138.399 108.254 138.74 108.464 139.06 108.615C142.127 110.061 146.154 109.493 148.752 107.249C149.698 106.432 151.148 106.585 152.35 106.911C159.33 108.801 164.642 115.088 165.127 122.034C164.216 122.664 163.12 122.906 162.019 123.15C161.413 123.284 160.805 123.418 160.225 123.618C158.592 124.18 156.996 125.844 157.705 127.323C159.348 130.751 161.018 134.279 161.234 138.076C161.296 139.178 161.235 140.283 161.173 141.389C161.128 142.185 161.084 142.982 161.086 143.777C161.09 145.772 161.389 147.759 161.97 149.661C162.126 150.171 162.314 150.693 162.704 151.068C163.279 151.621 164.167 151.738 164.992 151.776C167.654 151.898 170.357 151.491 172.878 150.587C174.784 149.904 176.803 148.657 177.083 146.742C177.26 145.534 176.685 144.373 176.141 143.287C173.556 138.129 171.293 132.54 171.857 126.773C171.877 126.574 171.899 126.373 171.922 126.172C172.055 124.988 172.192 123.778 171.71 122.712C171.146 121.465 169.277 120.692 168.24 121.668ZM167.255 139.649L166.537 143.27C166.453 143.695 166.493 144.295 166.941 144.338C167.645 142.581 167.976 140.696 167.907 138.835C167.881 138.15 168.363 137.507 168.972 137.126C169.581 136.745 170.303 136.58 171.01 136.436C171.406 136.356 171.849 136.287 172.185 136.491C172.451 136.654 172.585 136.951 172.704 137.232L175.881 144.725C176.161 145.383 176.445 146.079 176.343 146.792C176.169 147.997 174.972 148.83 173.824 149.378C171.003 150.726 167.795 151.292 164.7 150.988C164.263 150.945 163.81 150.879 163.457 150.636C162.987 150.312 162.788 149.744 162.636 149.207C161.653 145.728 161.553 142.003 162.348 138.435L166.513 138.736C166.766 138.754 167.052 138.788 167.199 138.983C167.338 139.167 167.299 139.422 167.255 139.649ZM167.067 137.712C166.889 138.053 166.443 138.304 166.088 138.146C164.881 137.609 163.407 137.619 162.177 138.173C161.94 135.445 160.893 132.903 159.843 130.357C159.343 129.144 158.842 127.929 158.429 126.692C158.38 126.548 158.333 126.39 158.39 126.246C158.483 126.009 158.792 125.936 159.052 125.899L165.248 125.004C165.46 124.973 165.679 124.943 165.883 124.999C166.458 125.157 166.592 125.859 166.625 126.433L167.206 136.598C167.227 136.974 167.245 137.37 167.067 137.712ZM167.873 135.061C167.89 131.5 167.598 127.947 167.003 124.448C168.535 124.285 170.012 123.572 171.073 122.482C171.123 123.677 171.109 124.884 171.095 126.089C171.06 128.956 171.026 131.82 171.862 134.532L171.87 134.557C171.941 134.786 172.014 135.024 171.971 135.262C171.925 135.509 171.707 135.752 171.447 135.739C170.232 135.679 168.985 136.217 168.212 137.136C167.867 136.524 167.87 135.787 167.873 135.083L167.873 135.061ZM163.861 88.7181C162.987 87.9982 162.542 86.8635 162.582 85.7469C162.601 85.225 162.714 84.688 162.826 84.1545C163.051 83.0852 163.273 82.0298 162.728 81.1367C162.571 80.8793 162.37 80.5181 162.616 80.3234C163.966 80.9383 165.045 82.0565 165.578 83.3926C165.733 83.7831 165.843 84.2203 165.7 84.6228C165.56 85.0169 165.215 85.2914 164.87 85.5651C164.749 85.6612 164.629 85.7572 164.517 85.8583C164.087 86.2473 163.78 86.9382 164.184 87.3314C166.134 85.0166 168.998 83.4133 172.041 82.9326C171.376 83.623 170.801 84.3911 170.332 85.213C170.17 85.4982 170.014 85.7957 169.857 86.0951C169.181 87.3878 168.485 88.7166 167.132 89.2556C166.042 89.6897 164.734 89.4381 163.861 88.7181ZM143.605 105.04C145.357 104.48 147.659 104.959 148.752 105.82L147.146 107.41C145.25 108.815 144.128 108.781 143.598 108.765C143.571 108.764 143.544 108.764 143.52 108.763C141.964 108.73 140.421 108.444 138.977 107.922C140.37 106.749 141.853 105.599 143.605 105.04ZM169.651 82.6166C169.592 82.7563 169.443 82.8395 169.304 82.9116L167.016 84.1005C166.906 84.1577 166.788 84.2167 166.664 84.2096C166.338 84.191 166.25 83.7739 166.292 83.4628C166.335 83.1517 166.385 82.7641 166.112 82.5988C165.78 82.3985 166.167 81.9092 166.544 81.7787C167.435 81.4699 168.454 81.5476 169.262 81.9859C169.504 82.1177 169.756 82.3637 169.651 82.6166ZM165.772 123.408C166.039 123.578 166.042 124.07 165.724 124.138C163.772 124.555 161.781 124.789 159.791 124.835C161.345 124.023 163.103 123.683 164.829 123.353C165.148 123.292 165.506 123.238 165.772 123.408ZM170.046 122.05C170.181 122.211 170.128 122.485 169.94 122.597C169.015 123.151 168.023 123.6 166.993 123.933C166.679 123.837 166.644 123.39 166.851 123.138C167.059 122.886 167.402 122.783 167.722 122.694L170.046 122.05ZM179.752 138.481C194.332 134.686 209.717 130.879 224.196 134.605C225.586 134.962 226.087 136.771 225.534 138.077C224.981 139.383 223.731 140.272 222.52 141.054C218.7 143.523 214.655 145.657 210.451 147.421C206.475 149.088 202.366 150.422 198.252 151.717C174.246 159.273 149.532 165.618 124.414 165.995C124.096 165.196 124.688 164.334 125.264 163.672C134.055 153.577 146.896 147.874 159.287 142.493C145.884 146.524 133.478 153.799 123.508 163.473C122.22 164.723 120.882 166.575 121.792 168.079C122.541 169.317 124.315 169.41 125.799 169.346C151.01 168.259 176.104 163.369 199.91 154.901C202.91 153.834 205.89 152.711 208.859 151.56C216.498 148.598 224.44 145.177 229.386 138.759C229.809 138.211 230.221 137.607 230.273 136.927C230.413 135.116 228.162 134.179 226.337 133.84C210.856 130.958 194.449 132.593 179.752 138.481ZM228.393 135.309C229.423 136.043 229.863 137.682 228.926 138.553C225.869 141.394 222.756 144.245 219.097 146.296C217.161 147.381 215.097 148.227 213.036 149.059C209.032 150.675 205.012 152.251 200.952 153.722C176.355 162.638 150.346 167.708 124.236 168.677C123.018 168.722 122.128 167.378 122.325 166.205C122.481 165.283 123.113 164.512 123.892 163.935C123.417 164.581 123.554 165.741 124.247 166.289C125.168 167.015 126.488 166.963 127.679 166.871C141.793 165.771 155.9 163.998 169.664 160.629C174.077 159.549 178.448 158.307 182.817 157.065C195.705 153.402 208.721 149.687 220.477 143.309C222.855 142.02 225.3 140.492 226.476 138.105C226.7 137.65 226.875 137.152 226.82 136.655C226.704 135.607 225.657 134.947 224.716 134.436C225.999 134.492 227.364 134.575 228.393 135.309ZM124.557 163.506C124.269 163.567 124.048 163.724 123.892 163.935C124.105 163.777 124.329 163.634 124.557 163.506ZM125.241 162.9C125.055 162.996 124.76 162.833 124.84 162.644L124.968 162.718C124.996 162.462 125.321 162.281 125.559 162.389C125.501 162.586 125.426 162.803 125.241 162.9ZM230.867 227.639C232.775 230.544 236.157 232.843 239.693 232.343C240.971 232.162 241.436 230.172 240.356 229.502C239.276 228.832 237.6 230.069 237.963 231.269C235.591 231.028 233.554 229.457 232.225 227.543C230.897 225.63 230.168 223.385 229.457 221.175L226.568 212.204C225.598 209.192 224.416 205.914 221.612 204.347C221.002 204.006 220.339 203.763 219.677 203.52C218.83 203.209 217.984 202.899 217.256 202.386C215.55 201.185 214.791 199.105 214.193 197.133C210.902 186.277 209.7 174.796 210.669 163.456C210.733 162.713 210.806 161.969 210.878 161.225L210.878 161.224C211.172 158.223 211.466 155.215 211.157 152.231C210.543 152.243 210.323 153.027 210.287 153.624L209.567 165.687C209.379 168.834 209.192 171.985 209.268 175.133C209.447 182.531 211.078 189.791 212.703 196.998C213.096 198.739 213.531 200.563 214.756 201.877C215.642 202.827 216.833 203.396 218.03 203.968C218.898 204.382 219.769 204.799 220.53 205.363C222.209 206.609 223.244 208.496 224.13 210.366C225.299 212.831 226.299 215.375 227.123 217.974C227.323 218.605 227.513 219.241 227.704 219.878L227.704 219.879L227.704 219.88L227.705 219.88C228.512 222.579 229.323 225.289 230.867 227.639ZM238.683 230.688C238.684 230.277 239.253 229.978 239.593 230.216L239.647 230.141C239.986 230.382 239.958 230.972 239.591 231.18C239.225 231.389 238.681 231.099 238.683 230.688ZM160.956 256.399C160.513 255.416 161.581 254.409 162.575 253.926L162.696 253.867C163.665 253.397 164.792 252.851 164.922 251.821C165.443 247.679 164.418 243.533 163.4 239.412C162.192 234.525 160.993 229.673 162.391 224.907C163.061 222.621 164.302 220.524 165.717 218.581C165.824 218.434 165.933 218.286 166.042 218.138L166.045 218.134C167.195 216.572 168.398 214.936 168.443 213.046C168.468 211.991 168.12 210.97 167.776 209.975L161.122 190.715C160.273 188.257 159.422 185.796 158.402 183.402C156.312 178.497 153.526 173.911 150.54 169.479C152.056 169.85 153.059 171.21 153.877 172.505C158.597 179.982 161.489 188.412 164.342 196.76L168.811 209.835C169.628 212.226 170.291 215.258 168.365 216.976C165.307 219.701 163.326 223.555 162.925 227.558C162.539 231.398 163.548 235.168 164.55 238.912L164.55 238.912C164.777 239.76 165.003 240.606 165.213 241.452C166.349 246.031 166.946 251.12 164.624 255.297C164.242 255.985 163.747 256.667 163.015 256.986C162.284 257.305 161.276 257.108 160.956 256.399ZM161.652 256.184C161.674 256.41 161.951 256.541 162.18 256.496C162.409 256.452 162.592 256.286 162.756 256.122C163.278 255.597 163.732 255.006 164.102 254.37C163.633 254.187 163.076 254.347 162.675 254.656C162.274 254.966 162.002 255.404 161.759 255.843C161.7 255.95 161.641 256.065 161.652 256.184ZM197.459 212.353C199.072 218.701 201.618 224.77 204.154 230.813C204.861 232.496 205.583 234.206 206.762 235.611C207.295 236.247 208.169 236.854 208.923 236.464C209.159 236.341 209.339 236.136 209.479 235.914C210.029 235.049 209.922 233.751 209.047 233.221C208.172 232.692 206.728 233.48 206.943 234.465C203.759 227.937 201.033 221.192 198.792 214.291C198.543 213.523 198.221 212.665 197.459 212.353ZM208.644 233.85C208.715 233.974 208.676 234.129 208.635 234.267L208.301 235.387L207.89 235.42C207.743 235.046 207.723 234.624 207.835 234.236C207.939 233.874 208.459 233.526 208.644 233.85ZM194.518 200.898C193.751 198.848 193.266 196.705 192.799 194.566C190.377 183.473 188.389 172.284 186.841 161.031C186.804 160.761 186.786 160.439 187.002 160.264C187.45 159.901 187.951 160.641 188.033 161.201C190.002 174.647 192.508 188.014 195.658 201.229C195.727 201.519 195.304 201.732 195.03 201.606C194.755 201.48 194.623 201.178 194.518 200.898Z" fill="#00160A"/>
<path d="M203.497 210.524C200.4 211.142 197.303 211.761 194.205 212.379C189.934 213.232 185.65 214.087 181.315 214.425C178.289 214.662 175.248 214.644 172.239 214.374C171.912 214.344 171.569 214.306 171.306 214.124C170.803 213.776 170.804 213.015 171.14 212.499C171.476 211.983 172.051 211.656 172.608 211.36C184.38 205.106 198.053 203.438 211.344 202.208C212.35 202.115 213.389 202.027 214.342 202.314C215.296 202.601 216.153 203.363 216.198 204.322C216.251 205.446 215.233 206.369 214.232 206.996C211.035 208.999 207.215 209.781 203.497 210.524" fill="white"/>
<path fill-rule="evenodd" clip-rule="evenodd" d="M203.497 210.524C200.4 211.142 197.303 211.761 194.205 212.379C189.934 213.232 185.65 214.087 181.315 214.425C178.289 214.662 175.248 214.644 172.239 214.374C171.912 214.344 171.569 214.306 171.306 214.124C170.803 213.776 170.804 213.015 171.14 212.499C171.476 211.983 172.051 211.656 172.608 211.36C184.38 205.106 198.053 203.438 211.344 202.208C212.35 202.115 213.389 202.027 214.342 202.314C215.296 202.601 216.153 203.363 216.198 204.322C216.251 205.446 215.233 206.369 214.232 206.996C211.035 208.999 207.215 209.781 203.497 210.524M171.736 213.627C182.474 214.208 193.201 211.773 203.743 209.354C206.33 208.761 208.92 208.167 211.467 207.418C212.473 207.123 213.551 206.747 214.132 205.905C214.713 205.062 214.382 203.651 213.347 203.542C207.335 202.909 201.242 204.127 195.275 205.348C188.174 206.802 180.999 208.294 174.407 211.285C173.279 211.797 172.056 212.482 171.736 213.627Z" fill="#00160A"/>
<path fill-rule="evenodd" clip-rule="evenodd" d="M311.435 133.56C311.185 130.217 310.64 126.901 309.808 123.658C308.531 118.68 306.582 113.881 305.547 108.846C304.511 103.811 304.461 98.3498 306.851 93.7047C307.091 95.8448 306.959 98.0302 306.461 100.141C305.481 104.296 306.558 108.58 307.63 112.676C309.28 118.978 310.93 125.281 312.58 131.583C313.083 133.505 312.179 135.629 310.644 136.983C309.11 138.336 307.043 139 304.995 139.22C303.368 139.394 301.73 139.312 300.1 139.23C290.44 138.741 280.781 138.253 271.122 137.765C270.345 137.726 269.4 137.57 269.154 136.859C265.427 126.079 262.425 115.052 260.174 103.87C259.205 99.0585 258.476 93.6896 261.231 89.5081C260.731 92.0298 260.229 94.5673 260.192 97.1267C260.143 100.492 260.899 103.8 261.651 107.072C263.925 116.974 266.213 126.922 270.026 136.345C270.207 136.792 270.531 137.321 271.026 137.253C275.119 136.695 279.263 136.991 283.369 137.288C289.06 137.7 294.751 138.112 300.442 138.525C301.826 138.625 303.229 138.724 304.599 138.475C306.561 138.118 308.318 137.075 310.023 136.052C310.53 135.748 311.066 135.412 311.306 134.884C311.493 134.471 311.469 134.005 311.435 133.56Z" fill="#00160A"/>
<path fill-rule="evenodd" clip-rule="evenodd" d="M304.508 141.058C296.488 142.687 288.282 141.291 280.144 141.126C277.282 141.068 274.414 141.163 271.548 141.259C269.685 141.321 267.822 141.383 265.959 141.445C269.163 139.687 273.045 139.782 276.689 139.93C285.962 140.306 295.235 140.682 304.508 141.058Z" fill="#00160A"/>
<path fill-rule="evenodd" clip-rule="evenodd" d="M145.734 105.815C145.995 105.754 146.237 105.726 146.631 105.712L148.923 105.674C149.046 105.671 149.16 105.668 149.26 105.666C149.403 105.662 149.519 105.771 149.52 105.908C149.52 106.045 149.405 106.16 149.262 106.163L148.438 106.18L146.879 106.202L146.762 106.205C146.325 106.216 146.093 106.24 145.846 106.298L145.784 106.316C145.333 106.453 143.245 107.229 141.886 107.686C141.75 107.732 141.604 107.663 141.56 107.534C141.516 107.404 141.59 107.262 141.725 107.217L142.239 107.041C143.588 106.574 145.347 105.922 145.703 105.823L145.734 105.815Z" fill="#00160A"/>
<path fill-rule="evenodd" clip-rule="evenodd" d="M145.214 105.043C145.293 104.927 145.454 104.892 145.572 104.966L146.613 105.612C146.732 105.686 146.764 105.839 146.684 105.955C146.605 106.071 146.445 106.106 146.326 106.032L145.285 105.386C145.167 105.312 145.135 105.159 145.214 105.043Z" fill="#00160A"/>
<path fill-rule="evenodd" clip-rule="evenodd" d="M146.549 105.622C146.682 105.67 146.747 105.813 146.694 105.941L146.207 107.137C146.155 107.266 146.005 107.332 145.872 107.284C145.739 107.237 145.674 107.094 145.727 106.965L146.213 105.769C146.266 105.64 146.416 105.574 146.549 105.622Z" fill="#00160A"/>
<path fill-rule="evenodd" clip-rule="evenodd" d="M142.44 106.149C142.473 106.015 142.613 105.93 142.751 105.959L144.218 106.265C144.357 106.294 144.443 106.427 144.41 106.561C144.376 106.695 144.237 106.78 144.098 106.751L142.631 106.445C142.492 106.416 142.406 106.283 142.44 106.149Z" fill="#00160A"/>
<path fill-rule="evenodd" clip-rule="evenodd" d="M144.236 106.353C144.352 106.43 144.379 106.585 144.295 106.699L143.25 108.123C143.167 108.237 143.005 108.266 142.889 108.188C142.773 108.111 142.746 107.956 142.83 107.842L143.875 106.418C143.958 106.304 144.12 106.275 144.236 106.353Z" fill="#00160A"/>
<path fill-rule="evenodd" clip-rule="evenodd" d="M166.941 144.338C166.493 144.295 166.453 143.695 166.537 143.27C166.776 142.063 167.015 140.856 167.255 139.649C167.299 139.422 167.338 139.167 167.199 138.983C167.052 138.788 166.766 138.754 166.513 138.736C165.125 138.635 163.736 138.535 162.348 138.435C161.553 142.003 161.653 145.728 162.636 149.207C162.788 149.744 162.987 150.312 163.457 150.636C163.81 150.879 164.263 150.945 164.7 150.988C167.795 151.292 171.003 150.726 173.824 149.378C174.972 148.83 176.169 147.997 176.343 146.792C176.445 146.079 176.161 145.383 175.881 144.725C174.822 142.227 173.763 139.729 172.704 137.232C172.585 136.951 172.452 136.654 172.185 136.491C171.849 136.287 171.406 136.356 171.01 136.436C170.303 136.58 169.581 136.745 168.972 137.126C168.363 137.507 167.881 138.15 167.907 138.835C167.976 140.696 167.645 142.581 166.941 144.338Z" fill="#E7EAEE"/>
<path fill-rule="evenodd" clip-rule="evenodd" d="M162.177 138.173C163.407 137.619 164.881 137.609 166.088 138.147C166.443 138.305 166.889 138.054 167.067 137.712C167.245 137.37 167.227 136.974 167.206 136.598C167.012 133.21 166.818 129.821 166.625 126.433C166.592 125.859 166.459 125.157 165.883 124.999C165.68 124.943 165.46 124.973 165.248 125.004C163.182 125.302 161.117 125.601 159.052 125.899C158.792 125.937 158.484 126.01 158.39 126.246C158.334 126.39 158.38 126.548 158.429 126.692C159.71 130.523 161.827 134.144 162.177 138.173Z" fill="white"/>
<path fill-rule="evenodd" clip-rule="evenodd" d="M171.073 122.482C170.012 123.572 168.535 124.285 167.003 124.448C167.598 127.947 167.89 131.501 167.874 135.061C167.87 135.771 167.863 136.517 168.212 137.136C168.985 136.217 170.232 135.679 171.447 135.739C171.707 135.752 171.925 135.509 171.971 135.262C172.016 135.016 171.935 134.769 171.862 134.532C170.674 130.679 171.243 126.519 171.073 122.482Z" fill="white"/>
<path fill-rule="evenodd" clip-rule="evenodd" d="M159.791 124.835C161.781 124.789 163.772 124.555 165.724 124.138C166.042 124.07 166.039 123.578 165.772 123.408C165.506 123.238 165.148 123.292 164.829 123.354C163.103 123.683 161.345 124.023 159.791 124.835Z" fill="white"/>
<path fill-rule="evenodd" clip-rule="evenodd" d="M166.993 123.933C168.023 123.601 169.015 123.151 169.94 122.598C170.128 122.485 170.181 122.211 170.046 122.05C169.272 122.265 168.497 122.48 167.723 122.694C167.402 122.783 167.059 122.886 166.852 123.138C166.644 123.39 166.68 123.837 166.993 123.933" fill="white"/>
<path fill-rule="evenodd" clip-rule="evenodd" d="M162.582 85.747C162.542 86.8636 162.987 87.9982 163.861 88.7182C164.734 89.4381 166.042 89.6898 167.132 89.2557C168.799 88.5918 169.468 86.7298 170.332 85.213C170.801 84.3911 171.376 83.623 172.041 82.9327C168.998 83.4134 166.134 85.0166 164.184 87.3314C163.78 86.9382 164.087 86.2473 164.517 85.8583C164.947 85.4694 165.511 85.1553 165.7 84.6228C165.843 84.2203 165.733 83.7831 165.578 83.3926C165.045 82.0566 163.966 80.9384 162.616 80.3234C162.37 80.5182 162.571 80.8793 162.728 81.1367C163.545 82.4754 162.639 84.1789 162.582 85.747Z" fill="#FFB61D"/>
<path fill-rule="evenodd" clip-rule="evenodd" d="M169.304 82.9116C169.443 82.8395 169.592 82.7564 169.651 82.6166C169.756 82.3637 169.504 82.1177 169.262 81.9859C168.454 81.5477 167.435 81.4699 166.544 81.7787C166.167 81.9092 165.78 82.3985 166.112 82.5988C166.385 82.7641 166.335 83.1517 166.292 83.4628C166.25 83.774 166.338 84.191 166.664 84.2097C166.788 84.2167 166.906 84.1577 167.016 84.1005C167.779 83.7042 168.541 83.3079 169.304 82.9116Z" fill="#FFB61D"/>
</svg>
