<svg width="20" height="20" viewBox="0 0 20 20" fill="none" xmlns="http://www.w3.org/2000/svg">
<path d="M11.4965 1.33959L10.5055 0.322876C10.0859 -0.107625 9.40743 -0.107625 8.9923 0.322876L0.314695 9.22143C-0.1049 9.65194 -0.1049 10.3481 0.314695 10.774L8.9923 19.6771C9.41189 20.1076 10.0904 20.1076 10.5055 19.6771L11.4965 18.6604C11.9205 18.2253 11.9116 17.5155 11.4786 17.0895L6.09976 11.8319H18.9287C19.5224 11.8319 20 11.3419 20 10.7328V9.26723C20 8.65812 19.5224 8.16808 18.9287 8.16808H6.09976L11.4786 2.91046C11.9161 2.48454 11.925 1.77467 11.4965 1.33959Z" fill="white"/>
</svg>
