<?xml version="1.0" encoding="utf-8"?>
<!-- Generator: Adobe Illustrator 25.0.0, SVG Export Plug-In . SVG Version: 6.00 Build 0)  -->
<svg version="1.1" id="Layer_1" xmlns="http://www.w3.org/2000/svg" xmlns:xlink="http://www.w3.org/1999/xlink" x="0px" y="0px"
	 viewBox="0 0 1080 1080" style="enable-background:new 0 0 1080 1080;" xml:space="preserve">
<path d="M515.98,223.12V30.09c0-11.84,9.6-21.45,21.45-21.45c11.85,0,21.45,9.6,21.45,21.45v193.02c0,11.84-9.6,21.45-21.45,21.45
	C525.58,244.56,515.98,234.96,515.98,223.12z M666.11,244.56c11.85,0,21.44-9.6,21.44-21.45V94.43c0-11.84-9.6-21.45-21.44-21.45
	s-21.45,9.6-21.45,21.45v128.68C644.66,234.96,654.26,244.56,666.11,244.56z M408.74,244.56c11.85,0,21.45-9.6,21.45-21.45V94.43
	c0-11.84-9.6-21.45-21.45-21.45c-11.85,0-21.45,9.6-21.45,21.45v128.68C387.3,234.96,396.9,244.56,408.74,244.56z M301.51,544.82
	h-4.29c-11.85,0-21.45,9.6-21.45,21.45c0,11.84,9.6,21.45,21.45,21.45h4.29c11.85,0,21.45-9.6,21.45-21.45
	C322.95,554.42,313.35,544.82,301.51,544.82z M1052.15,1016.66c0,11.84-9.6,21.44-21.44,21.44H837.69
	c-11.85,0-21.45-9.61-21.45-21.44c0-11.85,9.61-21.45,21.45-21.45h51.09l-53.62-107.23H239.7l-53.62,107.23h51.09
	c11.85,0,21.45,9.61,21.45,21.45c0,11.84-9.6,21.44-21.45,21.44H44.14c-11.85,0-21.45-9.61-21.45-21.44
	c0-11.85,9.6-21.45,21.45-21.45h93.98l151.32-302.63c-114.27-16.32-202.4-114.84-202.4-233.55v-42.89
	c0-23.65,19.24-42.89,42.89-42.89h85.79c0-11.84,9.6-21.45,21.45-21.45c11.85,0,21.45,9.6,21.45,21.45h57.19
	c0-11.84,9.6-21.45,21.45-21.45s21.45,9.6,21.45,21.45h57.19c0-11.84,9.6-21.45,21.45-21.45c11.85,0,21.45,9.6,21.45,21.45h57.19
	c0-11.84,9.6-21.45,21.45-21.45c11.85,0,21.45,9.6,21.45,21.45h57.19c0-11.84,9.6-21.45,21.45-21.45c11.85,0,21.45,9.6,21.45,21.45
	h57.19c0-11.84,9.6-21.45,21.44-21.45s21.45,9.6,21.45,21.45h57.19c0-11.84,9.61-21.45,21.45-21.45s21.44,9.6,21.44,21.45h85.79
	c23.65,0,42.9,19.24,42.9,42.89v42.89c0,118.71-88.13,217.22-202.4,233.55l151.32,302.63h93.98
	C1042.55,995.21,1052.15,1004.81,1052.15,1016.66z M322.55,652.06c0.29-0.01,0.58,0,0.87,0h428.01c0.3,0,0.59-0.01,0.88,0
	c106.25-0.22,192.62-86.73,192.62-193.02v-42.89H129.93v42.89C129.93,565.33,216.3,651.83,322.55,652.06z M813.71,845.08
	l-75.07-150.13H336.21l-75.07,150.13H813.71z M408.74,587.71h361.38c37.58,0,71.34-22.85,84-56.86c4.13-11.1-1.52-23.45-12.62-27.58
	c-11.11-4.13-23.45,1.52-27.58,12.62c-6.44,17.3-24.04,28.93-43.8,28.93H408.74c-11.85,0-21.45,9.6-21.45,21.45
	C387.3,578.11,396.9,587.71,408.74,587.71z"/>
</svg>
