<?xml version="1.0" encoding="utf-8"?>
<!-- Generator: Adobe Illustrator 25.0.0, SVG Export Plug-In . SVG Version: 6.00 Build 0)  -->
<svg version="1.1" id="Layer_1" xmlns="http://www.w3.org/2000/svg" xmlns:xlink="http://www.w3.org/1999/xlink" x="0px" y="0px"
	 viewBox="0 0 1080 1080" style="enable-background:new 0 0 1080 1080;" xml:space="preserve">
<style type="text/css">
	.st0{fill:#B4B4B4;}
</style>
<path class="st0" d="M1027.15,488.75L553.91,179.19c-21.35-13.95-49.06-15.48-71.94-3.92c-22.92,11.53-37.23,34.24-37.23,58.95
	v124.55L170.26,179.23c-21.35-13.96-49.06-15.49-71.93-3.96c-22.93,11.57-37.24,34.28-37.24,59v611.5
	c0,24.83,14.4,47.58,37.43,59.07c23,11.53,50.75,9.88,72.1-4.27l274.12-181.62v126.78c0,24.82,14.4,47.58,37.4,59.11
	c23.04,11.49,50.82,9.83,72.13-4.31l473.2-313.55c16.84-11.18,26.9-29.59,26.82-49.19C1054.25,518.14,1044.08,499.81,1027.15,488.75
	z"/>
</svg>
